<?xml version="1.0" encoding="UTF-8"?><svg id="Laag_2" xmlns="http://www.w3.org/2000/svg" viewBox="0 0 120.94 167.95"><defs><style>.cls-1{fill:#e05d9e;}.cls-1,.cls-2,.cls-3,.cls-4,.cls-5,.cls-6,.cls-7,.cls-8,.cls-9,.cls-10,.cls-11,.cls-12,.cls-13,.cls-14,.cls-15,.cls-16,.cls-17,.cls-18,.cls-19{stroke-width:0px;}.cls-2{fill:#b3cc4e;}.cls-3{fill:#a7afa9;}.cls-4{fill:#1973b6;}.cls-5{fill:#2a2b28;}.cls-7{fill:#989898;}.cls-8{fill:#67a0d6;}.cls-9{fill:#e9903b;}.cls-10{fill:#e36da7;}.cls-11{fill:#fff;}.cls-12{fill:#92b323;}.cls-13{fill:#7b2a83;}.cls-14{fill:#e58bb8;}.cls-15{fill:#f4c835;}.cls-16{fill:#f4f1ea;}.cls-17{fill:#9c4794;}.cls-18{fill:#1d1d1b;}.cls-19{fill:#792779;}</style></defs><g id="Laag_8"><g id="Boekie"><g id="Linker_arm"><polygon class="cls-15" points="1.88 19.01 20.89 0 21.37 20.98 12.69 30.73 1.88 19.01"/><polygon class="cls-9" points="9.75 52.51 21.37 20.98 12.69 30.73 0 60.91 9.75 52.51"/><polygon class="cls-15" points="16.9 75.21 0 60.91 9.75 52.51 21.37 61.74 16.9 75.21"/></g><polygon id="Ond._blad" class="cls-16" points="17.55 95.8 19.48 99.83 22.56 103.49 93.81 116.86 93.9 111.27 17.55 95.8"/><polygon id="Zij._blad" class="cls-16" points="99.2 117.87 108.47 55.57 115.53 56.96 116.78 62.64 106.91 119.36 99.2 117.87"/><path id="Boek" class="cls-17" d="m102.72,111.69l-84.78-15.18c-4.28-.29-5.82-2.51-5.57-5.8,3.23-18.8,10.91-31.11,16.21-49.76.61-2.95,2.5-3.81,5.48-2.86l80.34,16.71c-2.44.23-2.39,5.02-2.75,6.95l-8.94,49.94"/><path class="cls-13" d="m113.77,85.84s3.5-18.46,3.46-24.63c-.04-7.26-5.47-8.92-6.35-2.86-1.56,10.77-6.7,45.17-6.7,45.17l1.99-.87s4.81-32.41,5.79-42.43c.46-4.66,3.8-4.66,3.75,1.43-.05,5.74-2.94,22.79-2.94,22.79l1,1.39Z"/><path id="Ond._lijn" class="cls-19" d="m19.48,99.83s.3,2.3.31,2.35c.53,2.23,2.11,3.39,4.38,3.85l80.86,14.76c2.59.72,4.05-.26,4.26-2.38.09-.89,0-3.59,0-3.59l-2.1,1.46c.12,1.49-.23,2.23-1.49,1.88l-81.93-15.05c-1.59-.75-3.23-2.76-4.29-3.26Z"/><path class="cls-13" d="m15.65,96.87c16.34,3.17,74.2,14.02,74.2,14.02l.56-1.46s-55.27-10.39-74.34-13.26c-.74-.11-1.54.48-.41.7Z"/><path class="cls-13" d="m15.59,96.86c-1.55-.48-3.58-2.45-3.14-4.28h0c.19,1.63,1.56,3.18,3.51,3.58l-.37.7Z"/><polygon class="cls-13" points="110.89 61.3 27.68 43.96 27.95 42.54 111.53 59.39 110.89 61.3"/><g id="Rechter_been"><polygon class="cls-12" points="68.99 117.91 67.85 109.29 77.01 110.54 78.33 118.9 68.99 117.91"/><path class="cls-2" d="m75.99,167.93l-7-50.02,9.34,1,7.07,37.48c-5.81,1.61-9.47,4.95-9.42,11.54Z"/><path class="cls-2" d="m107.27,166.35l-18.95,1.59-.47-.92-4.94-9.79c.74-.26,1.59-.71,2.49-.83l13.32-.03c4.89,2.01,6.59,4.27,8.54,9.99Z"/><path class="cls-12" d="m75.98,167.85l11.87-.85-4.94-9.79c-4.33,1.53-7.08,4.34-6.93,10.64Z"/></g><g id="Linker_been"><polygon class="cls-4" points="50.55 114.1 50.55 105.99 58.74 107.63 58.89 115.8 50.55 114.1"/><path class="cls-8" d="m60.11,167.95l-1.21-52.15-8.35-1.7-.92,42.43c5.45,1.37,8.87,5.26,10.48,11.41Z"/><path class="cls-4" d="m49.02,167.95h11.09c-1.51-5.78-4.35-10.23-10.48-11.41-4.88,0-5.12-.69-8.2,1.44,3.29,2.23,6.38,5.21,7.6,9.98Z"/><path class="cls-8" d="m36.03,167.95h-15.07c1.15-5.26,4.62-9.23,11.26-11.41h12.21c-5.59,1.71-7.2,6.46-8.4,11.41Z"/></g><g id="Microfoo"><path class="cls-18" d="m90.33,127.95c-4.6,1.25-1.11,8.42,1.51,7.9,3.29-.65,1.82-8.81-1.51-7.9Z"/><path class="cls-3" d="m78.53,108.67l9.58,21.76c1.24-1.1,2.88-1.58,4.65-1.27l-3.57-24.08c-3.19,1.82-6.89,2.87-10.66,3.59Z"/><path class="cls-18" d="m84.25,108.28c13.33-4.1,6.47-21.46-6.3-17.53-10.29,3.17-8.55,22.1,6.3,17.53Z"/><path class="cls-7" d="m71.68,102.41l19.13-6.1c.34.7.56,1.72.68,3.05l-18.77,5.72c-.53-.86-.84-1.76-1.04-2.67Z"/></g><g id="Rechter_arn"><polygon class="cls-10" points="108.02 99.29 111.33 82.42 120.9 95.8 109.54 101.17 108.02 99.29"/><path class="cls-14" d="m96.85,121.82c-.14-.05-3.4-13.59-3.4-13.59l16.09-7.06,11.35-5.36c.8,10.88-8.58,19.21-24.05,26.01Z"/><polygon class="cls-10" points="84.87 125.48 79.42 112.15 93.45 108.23 96.85 121.82 84.87 125.48"/></g><g id="Mond"><path class="cls-6" d="m44.49,78.19c.97-3.11,5.51-2.37,5.51-2.37,5.44,3.01,13.4,4.14,20.53,3.26,4.04-.97,5.3.95,4.75,5.67.12,4.83-5.14,7.79-14.65,8.75-10.85.89-18.89-8.5-16.15-15.32Z"/><path class="cls-1" d="m52.95,92.37c5.05-5.82,11.64-6.29,19.03-2.03-5.97,3.74-14.15,4.07-19.03,2.03Z"/><path class="cls-11" d="m46.38,76.94c-.28-.83,1.66-1.81,3.62-1.12,6.9,3.35,13.75,3.99,20.68,3.23,2.23-.77,4.92.28,4.21,2.23-.38,1.05-2.96,1.73-4.25.27-.82-.94-2.05-1.09-2.99,0-2.06,2.37-5.16,2.53-6.79,0-.41-.63-.91-1.1-2.15-.54-3.07,1.39-5.8,1.55-6.53-1.21-.26-.98-.51-1.94-1.7-1.56-2.01.63-3.67,0-4.11-1.3Z"/></g><path class="cls-5" d="m44.78,55.23c3.93-9.25,16.17-8.45,16.93,2.85-3.82-8.41-10.5-9.25-16.93-2.85Z"/><g id="L_oog"><path class="cls-11" d="m61.18,56.29c.95,2.38,1.19,5.58,0,9.7-.62,2.15-2.16,3.55-4.43,3.75-3.35.3-5.26.02-6.62-.18-4.12-.6-6.57-2.37-7.38-5.45-.33-1.72.14-4.58.63-6.03.87-2.59,1.82-3.83,5.2-5.84,5.65-3.37,10.07-2.29,12.59,4.05Z"/><ellipse class="cls-5" cx="54.23" cy="61.94" rx="4.72" ry="4.98"/><path class="cls-5" d="m46.61,41.49c5.94-7.73,16.76-8.98,18.42-2.82-6.27-2.83-12.37-1.23-18.42,2.82Z"/></g><g id="R_oog"><path class="cls-11" d="m66.5,62.5c-.68,2.49-.98,4.98,0,7.15,1.02,2.25,2.95,3.67,5.18,4.16,3.18.69,6.44.67,9.52,0,2.12-.46,3.59-1.97,4.31-3.64.72-1.65.6-6.86.28-7.45-4.23-7.77-16.59-8.58-19.3-.22Z"/><ellipse class="cls-5" cx="73.91" cy="66.33" rx="4.7" ry="4.95"/><path class="cls-5" d="m68.33,59.33c3.73-7.22,16.63-6.32,17.66,4.43-4.13-7.9-10.77-8.33-17.66-4.43Z"/><path class="cls-5" d="m71.67,41.49c5.01-3.8,12.74-.34,17.18,11.99-4.81-7.53-10.49-12.23-17.18-11.99Z"/></g></g></g></svg>