<?xml version="1.0" encoding="UTF-8"?><svg id="Laag_2" xmlns="http://www.w3.org/2000/svg" viewBox="0 0 216.51 206.03"><defs><style>.cls-1{fill:#aecc47;}.cls-1,.cls-2,.cls-3,.cls-4,.cls-5,.cls-6,.cls-7,.cls-8,.cls-9,.cls-10,.cls-11,.cls-12,.cls-13,.cls-14,.cls-15,.cls-16,.cls-17,.cls-18,.cls-19,.cls-20,.cls-21{stroke-width:0px;}.cls-2{fill:#fafdff;}.cls-3{fill:#7d7d7d;}.cls-4{fill:#e05d9e;}.cls-5{fill:#b3cc4e;}.cls-6{fill:#1973b6;}.cls-7{fill:#2a2b28;}.cls-9{fill:#74902b;}.cls-10{fill:#67a0d6;}.cls-11{fill:#e9903b;}.cls-12{fill:#e36da7;}.cls-13{fill:#bebcbd;}.cls-14{fill:#fff;}.cls-15{fill:#a3a2a2;}.cls-16{fill:#92b323;}.cls-17{fill:#7b2a83;}.cls-18{fill:#e58bb8;}.cls-19{fill:#f4c835;}.cls-20{fill:#f4f1ea;}.cls-21{fill:#9c4794;}</style></defs><g id="Laag_4"><g id="Boek_aan_het_schrijven"><g id="Boek"><g id="Lichaam"><path class="cls-21" d="m157.79,3.57c-5.87-9.7-68.22,2.69-100.34,9.96-17.08,6.76-17.02,9.7-18.04,16.6-1.79,13.11,19.22,52.12,34.19,84l-11.19,35.95,88.32,1.41,13.96-29.45-6.89-118.47Z"/><path class="cls-17" d="m150.38,150.37l14.04-28.34c-11.13-15.35-22.95-57.49-34.64-94.72l-.85-8.17-85.79,13.79v-3.06l86.64-14.3c5.97-13.02,21.36-18.89,34.64-6.89,24.88,46.36,36.21,79.03,36.77,100.85l-16.17,43.4-34.63-.26v-2.3Z"/><path class="cls-20" d="m155.66,148.92h27.4s13.02-40.28,13.02-40.28c2.68-21.17-34.18-98.22-37.79-98.18-9.45-7.66-20.27-.53-24,8.17-3.83,10.51,16.56,58.84,33.19,101.28-5.66,12.51-11.24,24.89-11.83,29.01Z"/></g><g id="L_oog"><path class="cls-7" d="m77.49,52.33c-4.09-13.66-18.06-16.12-16.34,0,3.51-9.97,9.32-8.08,16.34,0Z"/><path class="cls-14" d="m88.4,95.52c-9.45,2.48-25.52-26.1-17.76-35.7,14.78,5.18,22.18,17.45,19.17,34.2-.13.73-.69,1.31-1.41,1.5Z"/><path class="cls-7" d="m83.23,80.07c4.81-3.45,12.25,7.96,7.19,12.15-3.99,3.3-12.16-8.58-7.19-12.15Z"/><path class="cls-7" d="m68.67,65.08c-.67-14.7,18.31-.66,19.59,10.28-8.19-10.42-15.67-16.35-19.59-10.28Z"/></g><g id="R_oog"><path class="cls-7" d="m90.13,38.03c1.53-13.69,22.85-5.36,27.06,8.04-9.71-9.18-18.89-13.29-27.06-8.04Z"/><path class="cls-14" d="m119.23,93.27c-13.36,8.6-33.96-21.79-15.15-34.13,10.69-7.02,29.4,24.96,15.15,34.13Z"/><path class="cls-7" d="m114.56,75.57c9.72.04,8.07,15.04.72,15.57-8.83.64-9.32-15.61-.72-15.57Z"/><path class="cls-7" d="m96.53,70.03c.38-20.42,20.41-13.83,24.41,0-8.55-10.85-19.44-13.74-24.41,0Z"/></g><g id="Mon"><path class="cls-4" d="m109.18,105.74c6.67-11.57,15.76-15.54,20.61-8.47-10.45,6.11-11.45,7.18-20.61,8.47Z"/><path class="cls-7" d="m96.53,106.97c16.51,4.12,28.55.72,35.47-11.29-9.99,7.57-21.89,11.17-35.47,11.29Z"/></g><g id="Pen"><path class="cls-1" d="m132.77,107.23c7.95-10.5,17.69-23.74,20.94-27.19l-3.83-2.94c3.19-6.3,12.77-6,12.13,3.7l-16.85,27.84-12.38-1.42Z"/><path class="cls-9" d="m132.77,107.23l20-26.98-2.53-3.79c1.22-2.22,5.4-5.47,9.53-2.4l-16.53,29.68-10.47,3.49Z"/><path class="cls-2" d="m140.3,97.14c-1.73,2.38-5.69-.61-3.83-3.45,3.23-4.92,13.76-17.23,13.76-17.23l3.47,3.7s-10.52,13.01-13.4,16.98Z"/></g></g><g id="Linker_arm"><polygon class="cls-11" points="64.85 112.42 68.49 103.42 59.5 84.88 29.19 119.23 64.85 112.42"/><path class="cls-19" d="m79.53,120.95c-7.49-12.6-30.25-13.13-50.34-1.72"/></g><path class="cls-8" d="m112.26,202.12l51.06-1.7c-7.05-11.4-21.55-15.88-42.38-14.47l-.68-18.48c25.64.51,54.64,0,63.34-2.42l1.43-12.13-129.36-3.76c2.95,9.69,17.94,18.29,58.47,18.31l.43,18.48c-12.62,2.62-10.08,8.78-2.3,16.17Z"/><g id="Rechter_arn"><path class="cls-18" d="m144,123.04l-1.02-19.39,37.79,10.47c9.13-5.75,19.1.39,29.29,9.7l-66.06-.78Z"/><path class="cls-12" d="m180.77,114.12c-9.43-14.59-13.42-31.97-15.06-50.55l30.13,38.55,14.23,21.7-29.29-9.7Z"/><path class="cls-12" d="m112.98,122.21l24.05-18.27,5.95-.29,1.01,19.19c-11.64.2-22.41.13-31-.63Z"/></g><g id="Tafel"><polygon class="cls-3" points="132.77 206.03 120.51 206.03 118.21 137.61 132.77 137.61 132.77 206.03"/><polygon class="cls-3" points="186.69 138.73 203.23 139.14 191.74 202.12 179.23 202.12 186.69 138.73"/><path class="cls-3" d="m24.96,199.51c3.34-5.23,6.53-9.61,10.18-11.69l-10.54-53.53H7.91l17.04,65.22Z"/><polygon class="cls-15" points="0 117.95 121.79 122.54 121.79 137.61 2.55 134.29 0 117.95"/><polygon class="cls-13" points="121.79 137.61 210.06 139.14 216.51 123.82 121.79 122.54 121.79 137.61"/></g><g id="Linker_been"><path class="cls-10" d="m77.36,187.82l-5.7-36.86c.63-2.79-11.14-3.27-22.39-3.84l9.53,38.82c3.01,0,10.92-.25,18.55,1.87Z"/><polygon class="cls-6" points="49.28 147.12 86.04 147.65 86.04 151.21 71.67 150.96 49.28 147.12"/><path class="cls-6" d="m67.23,200.42l10.13-12.6c-6.49-2.35-12.72-3.2-18.55-1.87-1.63,2.91-5.99,6.06-2.85,8.53,2.02,4.33,6.72,5.87,11.27,5.94Z"/><path class="cls-10" d="m54.55,202.12l-29.96-.17c-.04-5.73,7.24-14.71,16.17-16h18.04c-1.57,2.91-3.01,7.98-4.26,16.17Z"/></g><g id="Rechter_been"><path class="cls-5" d="m112.26,204.16l-1.19-51.57c-.75-2.19-6.55-3.03-13.11-3.67h-10.04s2.04,38.9,2.04,38.9c10.13,2.21,19.4-8.17,22.3,16.34Z"/><polygon class="cls-16" points="111.06 152.59 155.66 152.93 155.66 150.71 97.96 148.92 111.06 152.59"/><path class="cls-5" d="m65.45,205.35l32.51.68.99-2.12,3.6-16.43c-.74-.26-2.7-.02-3.6-.14l-21.59.47c-5.81.98-11.91,11.06-11.91,17.53Z"/><path class="cls-16" d="m112.26,204.16l-13.31-.25,3.6-16.43c6.81-1.54,9.85,10.38,9.7,16.68Z"/></g></g></g></svg>