<?xml version="1.0" encoding="UTF-8"?><svg id="Laag_2" xmlns="http://www.w3.org/2000/svg" viewBox="0 0 307.88 319.07"><defs><style>.cls-1{fill:#e05d9e;}.cls-1,.cls-2,.cls-3,.cls-4,.cls-5,.cls-6,.cls-7,.cls-8,.cls-9,.cls-10,.cls-11,.cls-12,.cls-13,.cls-14,.cls-15,.cls-16,.cls-17,.cls-18,.cls-19,.cls-20,.cls-21{stroke-width:0px;}.cls-2{fill:#b3cc4e;}.cls-3{fill:#1973b6;}.cls-4{fill:#2a2b28;}.cls-5{fill:#67a0d6;}.cls-6{fill:#e9903b;}.cls-7{fill:#e36da7;}.cls-8{fill:#fff;}.cls-9{fill:#92b323;}.cls-10{fill:#90d1db;}.cls-11{fill:#c97b55;}.cls-12{fill:#b4dee7;}.cls-13{fill:#7b2a83;}.cls-14{fill:#e58bb8;}.cls-15{fill:#742675;}.cls-16{fill:#f4c835;}.cls-17{fill:#d1c5c1;}.cls-18{fill:#f4f1ea;}.cls-19{fill:#9c4794;}.cls-20{fill:#89ad6d;}.cls-21{fill:#792779;}</style></defs><g id="Optie_2.1"><g id="PB_Donker"><rect class="cls-12" x="11.5" y="10.28" width="153.9" height="99.91"/><rect class="cls-10" x="165.4" y="10.28" width="14.02" height="99.91"/><rect class="cls-17" x="0" y="108.02" width="190.82" height="11.88" rx="5.62" ry="5.62"/><rect class="cls-17" x="0" y="0" width="190.82" height="11.88" rx="5.62" ry="5.62"/><rect class="cls-20" x="27.54" y="25.86" width="115.99" height="6.8" rx="1.85" ry="1.85"/><rect class="cls-20" x="27.54" y="73.9" width="61.94" height="6.8" rx="1.85" ry="1.85"/><rect class="cls-20" x="27.54" y="49.88" width="115.99" height="6.8" rx="1.85" ry="1.85"/></g><g id="Boek_M"><g id="Boek"><polygon id="Ond._blad" class="cls-18" points="116.21 204.07 116.33 207.65 118.43 210.64 234 229.35 234.99 223.7 116.21 204.07"/><polygon id="Zij._blad" class="cls-18" points="234.39 228.2 256.51 101.75 279.88 111.32 266.3 233.84 234.39 228.2"/><path id="Ond._lijn" class="cls-21" d="m116.53,207.65c-.07-.03-.14.04-.12.11.97,3.9,3.85,5.94,8,6.76l132.19,22.3-1.68-5.93-131.11-19.9c-2.89-1.32-5.36-2.45-7.29-3.33Z"/><path id="ZIJ_lijn" class="cls-13" d="m272.72,209.65l8.07-92.19.84-1.43c.27-.46.41-.98.41-1.51v-3.04c0-.7-.26-1.38-.73-1.9-5.34-5.73-11.62-8.81-18.83-9.29-.02,0-.03.01-.05.02-4.21.51-5.65,3.34-6.27,6.85l-133.5-21.11,8.52,2.94,123.64,21.96-17.36,107.87c-.23,1.74-1.59,2.51-3.45,2.85l-134.89-22.43c-4.13-.64-7.46-2.18-10.13-4.47.48,3.94,3.82,6.28,9.32,7.4l135.38,22.83c3.7-.01,6.21-1.46,7.15-4.79l17.65-108.77c.57-2.32,1.61-4.11,3.67-4.79,1.37-.38,2.75-.38,4.12.06,4.22,1.63,7.83,3.76,10.52,6.64.45.48.64,1.14.57,1.79l-10.23,96.97,5.58-2.48Z"/><path id="Boek-2" class="cls-19" d="m88.98,194.77c5.3-38.07,17.82-74.01,32.07-109.59,0-.02,0-.04,0-.05-.4-1.28-.34-2.57.12-3.87.94-1.75,2.39-2.83,4.25-3.42.01,0,.03,0,.04,0l137.01,22.44c-4.56.98-5.11,3.57-5.7,7.47l-18.77,110.82c-.2,1.18-.92,2.2-1.97,2.78h0c-.62.34-1.34.42-2.04.31l-134.27-22.25c-.7-.12-1.53-.27-2.23-.39-3.26-.59-4.69-1.24-7.06-3.13-.03-.02-1.46-1.09-1.46-1.13Z"/></g><g id="Rechter_arn"><polygon class="cls-7" points="256.13 177.96 260.56 153.88 264.13 158.81 263.45 182.98 256.13 177.96"/><path class="cls-14" d="m307.88,207.58c-.26-.09-18.04-5.53-18.04-5.53l-26.38-19.06.68-24.17,43.74,48.77Z"/><polygon class="cls-7" points="274.85 226.98 251.11 219.24 289.83 202.05 307.88 207.58 274.85 226.98"/><polygon class="cls-14" points="286.77 246.3 286.31 246.18 256.98 238.13 251.11 219.24 274.85 226.98 286.77 246.3"/></g><g id="Linker_arm"><rect class="cls-11" x="38.65" y="75.23" width="53.98" height="6.33" rx="1.85" ry="1.85" transform="translate(107.85 -14.74) rotate(64.31)"/><polygon class="cls-16" points="61.39 90.42 92.41 89.79 97.77 112.89 67.39 113.88 61.39 90.42"/><polygon class="cls-6" points="61.39 160.09 97.77 112.47 76.45 113.46 63.43 141.2 61.39 160.09"/><polygon class="cls-16" points="96.56 157.07 61.39 160.09 77.48 139.03 102.5 136.35 96.56 157.07"/></g><g id="Rechter_been"><polygon class="cls-9" points="192.73 232.05 192.26 218.01 208.07 220.69 209.19 234.98 192.73 232.05"/><path class="cls-2" d="m197.49,317.32l-4.77-85.28,16.47,2.94,6.38,63.23c-12.37.49-17.18,7.99-18.09,19.11Z"/><path class="cls-2" d="m254.51,319.07h-34.64s-.71-1.62-.71-1.62l-8.16-18.79c1.37-.33,2.92-.5,4.57-.57h22.09c8.57,4.07,14.18,11.06,16.85,20.98Z"/><path class="cls-9" d="m197.49,317.2l21.68.25-8.16-18.79c-8.1,1.97-12.82,7.9-13.52,18.54Z"/></g><g id="Linker_been"><polygon class="cls-3" points="163.22 226.54 163.22 213.12 179.32 215.84 179.62 229.35 163.22 226.54"/><path class="cls-5" d="m182,315.67l-2.38-86.32-16.4-2.81-1.81,70.23c10.71,2.26,17.43,8.71,20.6,18.89Z"/><path class="cls-3" d="m160.22,315.67h21.79c-2.97-9.56-8.55-16.94-20.6-18.89-9.59,0-10.06-1.14-16.12,2.38,6.47,3.69,12.54,8.62,14.93,16.52Z"/><path class="cls-5" d="m134.68,315.67h-29.62c2.26-8.71,9.07-15.28,22.13-18.89h24c-10.99,2.83-14.15,10.69-16.51,18.89Z"/></g><g id="Rechter_oog"><path id="Rechter_oog1" class="cls-8" d="m177.19,132.55c1.61-10.04,9.36-18.03,19.15-18.61,11.67-.68,19.8,8.12,19.15,18.61-.65,10.56-8.27,18.43-19.15,18.61-11.77.19-20.88-7.79-19.15-18.61Z"/><path id="Rechter_oog-2" class="cls-4" d="m203.04,132.9c-.83,5.15-3.3,8.19-8.87,8.75-5.46.55-9.2-3.08-8.87-8.75.28-4.82,3.99-8.37,8.87-8.75,6.14-.48,9.77,3.14,8.87,8.75Z"/><path class="cls-4" d="m178.66,127.03c2.95-5.13,6.64-9.77,13.56-12.26.36-.13.74-.22,1.12-.26,2.96-.35,5.82-.31,8.62.02.3.04.6.11.88.22,10.18,3.89,12.92,11.12,12.47,21.75.06-.19.22-1.29.27-1.47.39-1.37.58-2.79.63-4.21v-1.96c0-1.39-.17-2.77-.52-4.11-.41-1.56-.93-3.09-1.54-4.6-.54-1.33-1.27-2.58-2.22-3.66-2.32-2.62-4.95-4.38-7.9-5.28l-1.53-.45c-.29-.09-.43-.13-.91-.13h-5.56c-.37,0-.73.05-1.09.14l-1.12.3c-1.99.55-3.69,1.38-5.79,2.72-.22.14-.44.3-.65.45-2.38,1.84-4.3,3.94-5.88,6.25-.13.19-.24.39-.32.6-1.44,3.44-1.93,4.61-2.48,5.93Z"/><path id="Rechter_wenkbrauw" class="cls-4" d="m192.77,93.41c1.45-1.29,3.16-2,5.02-2.38,9.06-1.9,16.42,5.68,23.4,15.4-9.74-6.67-19.35-12.25-28.43-13.02Z"/></g><g id="Linker_oog"><path id="Linker_oog_1" class="cls-8" d="m167.83,130.97c4.26-11.57-1.36-22.34-9.27-23.62-7.93-1.28-16.7,2.56-21.9,12.81-5.27,10.38-1.14,22.89,9.27,23.62,7.83.54,18.4-3.31,21.9-12.81Z"/><path id="Linker_oog-2" class="cls-4" d="m164.62,127.47c-.57,5.07-4.02,8.77-8.65,9-5.35.27-9.44-3.63-8.65-9,.7-4.72,4.08-8.53,8.65-9,5.3-.54,9.24,3.73,8.65,9Z"/><path id="Linker_lid" class="cls-4" d="m136.57,120.47c2.96-4.68,6.62-9.9,12.78-12.21.32-.12.86-.38,1.2-.43,2.63-.32,5.07-.68,7.56-.37.26.03.53.1.78.2,9.06,3.61,10.47,9.88,10.07,19.75.05-.17.19-1.2.24-1.37.35-1.27.51-2.59.56-3.91v-1.82c0-1.29-.05-2.91-.26-4.24-.23-1.48,0-2-.55-3.39-.48-1.24-1.13-2.4-1.98-3.4-2.06-2.44-4.41-4.07-7.03-4.91l-1.36-.41c-.26-.08-.38-.12-.81-.12h-4.94c-.33,0-.65.04-.97.13l-1,.28c-1.77.51-3.28,1.28-5.15,2.53-.2.13-.39.27-.58.42-2.12,1.71-3.83,3.66-5.23,5.8-.11.17-.45.76-.53.96-1.28,3.2-2.29,5.28-2.78,6.51Z"/><path id="Linker_wenkbrauw" class="cls-4" d="m148.22,75.96c11.62-3.83,22.47-5.34,31.87-2.47-.9-2.29-2.6-4.36-4.34-5.19-9.23-3.28-17.03-.1-27.53,7.66Z"/></g><g id="Mond"><path id="Mond-2" class="cls-4" d="m128.05,148.69c-10.3,18.47-6.31,27.27-.51,33.45,30.38,21.53,77.87,6.72,89.45-23.91.47-1.6-.24-2.14-1.45-2.21-36.84,10.16-65.99,8.8-85.27-7.32-.8-.6-1.56-.74-2.21,0Z"/><path id="Tanden" class="cls-8" d="m130.93,149.24c-.43,11.54,6.14,18,16.29,15.7,5.08,8.28,13.5,10.47,21.25,3.15,7.54,7.48,16.81,6.89,22.47-2.55,10.48,5.39,17.33,1.7,21.45-8.85-32.6,8.6-59.64,9.02-81.46-7.45Z"/><path id="Tong" class="cls-1" d="m149.07,191.18c17.24,3.48,38.79-1.05,54.11-13.62-23.64-3.74-42.62,1.62-54.11,13.62Z"/></g><path id="Sikje" class="cls-15" d="m160.69,201.42c6.71,4.06,12.88,3.35,18.57-1.45.11-.09.04-.28-.11-.27l-18.4,1.43c-.15.01-.19.22-.07.29Z"/></g></g></svg>