<?xml version="1.0" encoding="UTF-8"?><svg id="Laag_2" xmlns="http://www.w3.org/2000/svg" viewBox="0 0 163.71 169.28"><defs><style>.cls-1{fill:#cd8147;}.cls-1,.cls-2,.cls-3,.cls-4,.cls-5,.cls-6,.cls-7,.cls-8,.cls-9,.cls-10,.cls-11,.cls-12,.cls-13,.cls-14,.cls-15,.cls-16,.cls-17{stroke-width:0px;}.cls-2{fill:#e05d9e;}.cls-3{fill:#b3cc4e;}.cls-4{fill:#1973b6;}.cls-6{fill:#a75d29;}.cls-18{fill:none;stroke:#4e321d;stroke-miterlimit:10;stroke-width:2px;}.cls-7{fill:#67a0d6;}.cls-8{fill:#4e321d;}.cls-9{fill:#e9903b;}.cls-10{fill:#e36da7;}.cls-11{fill:#fff;}.cls-12{fill:#92b323;}.cls-13{fill:#7b2a83;}.cls-14{fill:#e58bb8;}.cls-15{fill:#f4c835;}.cls-16{fill:#f4f1ea;}.cls-17{fill:#9c4794;}</style></defs><g id="Archief"><g id="Boek_zoekend"><g id="L_arm"><polygon class="cls-9" points="31.08 92.82 36.02 87.54 30.06 75.11 13.89 92.45 31.08 92.82"/><path class="cls-5" d="m22.91,109.5c2.12,3.2,6.97,2.24,7.15-1.7.26-5.64-8-21.11-8-21.11,10.72-12.26-2.55-39.15-14.98-39.15-13.45,1.7-6.47,35.32,10.21,41.19,0,0,2.65,16.28,5.62,20.77Z"/><path class="cls-15" d="m13.89,92.48l6.26,15.83c5.9.29,10.99-2.25,14.85-9.19-1.06-2.39-3.53-6.73-6.98-12.43-7.9,6.21-11.13,5.64-14.13,5.79Z"/><polygon class="cls-15" points="36.02 87.54 30.06 75.11 46.84 71.7 48.81 83.28 36.02 87.54"/></g><g id="R_Been"><path class="cls-12" d="m108.25,124.85l7.05-5.74,17.75,21.88c-14.72-1.83-19.55-6.97-24.79-16.14Z"/><polygon class="cls-3" points="148.95 128.05 133.04 140.99 125.47 131.65 135.68 122.43 148.95 128.05"/><path class="cls-12" d="m140.78,134.69l8.17-6.64c6.27,3.3,7.48,10.84,6.38,20.3l-14.55-4.85v-8.81Z"/></g><g id="L_been"><polygon class="cls-4" points="71.21 124.35 74.15 120.52 84.26 124.33 80.61 129.29 71.21 124.35"/><path class="cls-7" d="m55.25,169.28l25.36-39.99-9.4-4.95-20.43,24c.16,2.87,2.17,12.14,4.47,20.94Z"/><path class="cls-4" d="m41.12,163.71l14.13,5.57-4.47-20.94s-.55-11.78-19.7-11.36c4.07,5.37,9.45,17.79,10.04,26.72Z"/></g><path class="cls-8" d="m111.93,43.16c2.94,3.45,2.46,6.82-1.23,10.14,0-3.7.71-7.63,1.23-10.14Z"/><path class="cls-17" d="m105.55,128.05c-5.3,2.27-18.94-2.67-33.12-8.08-3.83-1.46-7.15-4.03-9.53-7.37-19.28-26.98-23.43-56.15-2.03-89,11.87,4.11,24.08,5.6,36.58,4.85-20.01,35.73-12.76,68.42,8.11,99.59Z"/><path class="cls-11" d="m18.15,83.96c9.02-1.11-.25-33.74-10.55-31.32-8.68,2.04-1.11,32.75,10.55,31.32Z"/><path class="cls-13" d="m60.53,24.12c.43,14.04,19.47,13.63,32.15,5.29l-32.15-5.29Z"/><path class="cls-5" d="m68.08,43.09c8.1-5.18,11.02-.22,11.49,9.51-2.29-6.84-5.71-10.98-11.49-9.51Z"/><path class="cls-5" d="m64.57,64.99c3.2-8.61,7.53-7.53,12.51-.83-3.94-2.9-8.05-3.51-12.51.83Z"/><path class="cls-11" d="m56.56,70.54c6.03-4.79,6.12-22.55,1.81-24.93-.33-.18-1.12-.27-1.47-.12-6.06,2.64-6.98,19.92-2.78,25.12.46.56,1.88.38,2.44-.07Z"/><g id="L_oog"><path class="cls-5" d="m56.52,35.24c3.39-7.45,8.8-8.49,8.69-.83-1.4-4.27-4.49-3.42-8.69.83Z"/><path class="cls-5" d="m53.29,49.85c1.6-8.09,8.86-8.05,7.86,2.15-1-6.96-4.86-7.57-7.86-2.15Z"/><path class="cls-5" d="m53.24,69.34c.29.56,1.13.5,1.35-.1,1.67-4.5,2.56-10.45-.37-12.42-.63-.42-1.43-.34-1.9.43-1.36,2.24-1.22,8,.92,12.08Z"/></g><g id="Mond"><path class="cls-5" d="m57.32,83.64c-2.31.31-2.56,1.82-2.32,3.62,2.22,9.57,6.2,16.91,13.23,18.77,11.45-5.68,12.21-17.34,10.22-27.51l-.44-2.51c-11.09,7.13-17.22,8.83-20.69,7.63Z"/><path class="cls-2" d="m68.02,106.03c.56-9.38,3.72-15.03,10.98-14.81-.46,9.42-4.28,14.13-10.98,14.81Z"/><path class="cls-11" d="m56.51,85.23h0c0-.75.42-1.43,1.08-1.77,7.6-.8,13.13-3.57,16.51-8.37.28-.14.58-.21.89-.21h1.23c.97,0,1.8.7,1.95,1.66l.24,1.43c.12.73-.16,1.5-.78,1.91-.19.13-.38.31-.56.55-.11,2.56-1.65,2.72-3.57,2.23-.62-.49-1.11-.34-1.47.45-.44,2.84-1.92,4.32-5.31,3.29-.29-.09-.56-.25-.77-.47-.75-.77-1.21-.39-1.84.05-2.58,2.9-4.9,2.83-7.03.65-.37-.38-.58-.88-.58-1.41Z"/></g><path class="cls-16" d="m106.27,126.46l19.2-15.65c-14.52-21.22-18.26-46.59-14.77-74.76-4.88-6.64-10.1-7.41-17.57-6.14-8.68,33.81-11.3,68.39,13.15,96.54Z"/><path class="cls-13" d="m125.47,110.82c.34.6,4.26.32,3.44-.89-16.59-24.38-21.88-44.9-16.12-71.06-4.3-6.97-9.61-10.52-14.92-10.4-3.66.08-6.45.6-7.38,4.15-12.14,46.22-5.88,66.87,15.06,95.44l1.11-.96c-13.35-21.66-26.62-42.97-14.63-92.38.43-1.79,1.86-3.16,3.66-3.57,5.21-1.17,9.53,1.27,13.17,6.4.82,1.16,1.09,2.62.81,4.01-8.15,41.07,7.11,53.79,15.8,69.25Z"/><g id="Pet"><path class="cls-1" d="m112.78,38.86c-4.11-5.34-7.18-8.75-13.74-10.37l2.11-17.58c12.55.72,18.1,14.41,11.63,27.94Z"/><path class="cls-6" d="m99.04,28.49c-13.24-7.89-22.26-12.02-30.77-12.14,7.62-15.16,18.64-12.89,32.88-5.43l-2.11,17.58Z"/><path class="cls-8" d="m99.05,28.49c-17.16,3.19-31.42.22-42.48-6.57-1.03-.63-1.01-2.12.02-2.75,10.76-6.57,25.97-1.43,42.46,9.32Z"/><path class="cls-18" d="m99,1.67l1.04,6.3c.24,1.46,1.33,2.64,2.77,2.98,5.31,1.27,8.44-2.79-.27-4.65-.11-.02-.23-.05-.34-.09l-3.51-1.13c-.8-.26-1.51-.77-2.02-1.44-4.74-6.16-8.3-.08-1.84,3.3,1.06.56,2.32.62,3.45.2l8.17-2.99"/><circle class="cls-8" cx="99.35" cy="6.65" r="2.16"/></g><g id="R_arm"><polygon class="cls-10" points="135.08 52.65 148.24 46.18 163.71 53.33 150.74 56.73 135.08 52.65"/><path class="cls-14" d="m129.81,90.86l-.9-6.55,2.25-.31,3.93-31.35,15.66,4.09c-2.8,11.16-5.93,21.89-9.96,31.49-3.43,1.95-7.15,2.55-10.98,2.64Z"/><polygon class="cls-10" points="102.06 91.28 99.85 74.43 128.9 84.3 129.81 90.86 102.06 91.28"/></g></g></g></svg>