<?xml version="1.0" encoding="UTF-8"?><svg id="Laag_2" xmlns="http://www.w3.org/2000/svg" viewBox="0 0 142.2 142.72"><defs><style>.cls-1{fill:#f07f43;}.cls-1,.cls-2,.cls-3,.cls-4,.cls-5,.cls-6,.cls-7{stroke-width:0px;}.cls-2{fill:#d83536;}.cls-8{fill:#1d1d1b;font-family:MyriadPro-Regular, 'Myriad Pro';font-size:41.58px;}.cls-3{fill:#feedd5;}.cls-9{fill:none;stroke:#000;stroke-miterlimit:10;stroke-width:3px;}.cls-4{fill:#e9903b;}.cls-5{fill:#cce4f2;}.cls-6{fill:#9d643a;}.cls-7{fill:#f4c835;}</style></defs><g id="Leestekst"><polygon class="cls-4" points="36.38 51.15 0 94.03 21.32 93.14 35.83 68 36.38 51.15"/><rect id="Blad" class="cls-5" x="30.37" width="111.83" height="142.72" rx="2.17" ry="2.17"/><g id="Lijnen"><line class="cls-9" x1="67.39" y1="19.4" x2="125.35" y2="19.4"/><line class="cls-9" x1="47.1" y1="34.72" x2="125.35" y2="34.72"/><line class="cls-9" x1="47.1" y1="49.02" x2="125.35" y2="49.02"/><line class="cls-9" x1="47.1" y1="63.74" x2="125.35" y2="63.74"/><line class="cls-9" x1="90.63" y1="78.38" x2="125.35" y2="78.38"/><line class="cls-9" x1="47.1" y1="93.02" x2="125.35" y2="93.02"/><line class="cls-9" x1="47.1" y1="107.83" x2="125.35" y2="107.83"/><line class="cls-9" x1="42.39" y1="122.64" x2="95.99" y2="122.64"/></g><g id="Vergrootglas"><path class="cls-1" d="m16.32,128.39l23.91-23.99c5.08,2.42,9.19,6.25,12.47,11.26l-25.02,24.13c-4.48-3.04-8.2-6.91-11.37-11.4Z"/><polygon class="cls-2" points="47.61 105.26 58.94 94.6 62.61 97.6 51.39 108.26 47.61 105.26"/><path class="cls-6" d="m16.32,128.39c-1.78,6.17,4.12,11.66,11.37,11.4-4.85-3.35-8.52-7.2-11.37-11.4Z"/><path class="cls-6" d="m40.24,104.4c9.65-1.55,13.35,2.64,12.47,11.26-3.54-5.41-8.11-9.26-12.47-11.26Z"/><ellipse class="cls-2" cx="77.86" cy="77.95" rx="26.47" ry="26.12"/><ellipse class="cls-3" cx="77.59" cy="78.04" rx="23.57" ry="23.15"/><text class="cls-8" transform="translate(65.1 91.46)"><tspan x="0" y="0">A</tspan></text></g><polygon class="cls-7" points="25.52 128.39 0 94.03 21.32 93.14 42.39 114.13 25.52 128.39"/></g></svg>