<?xml version="1.0" encoding="UTF-8"?><svg id="Laag_2" xmlns="http://www.w3.org/2000/svg" viewBox="0 0 294.62 315.3"><defs><style>.cls-1{fill:#49525a;}.cls-1,.cls-2,.cls-3,.cls-4,.cls-5,.cls-6,.cls-7,.cls-8,.cls-9,.cls-10,.cls-11,.cls-12,.cls-13,.cls-14,.cls-15,.cls-16,.cls-17,.cls-18,.cls-19,.cls-20,.cls-21{stroke-width:0px;}.cls-2{fill:#e05d9e;}.cls-3{fill:#b3cc4e;}.cls-4{fill:#1973b6;}.cls-5{fill:#2a2b28;}.cls-6{fill:#d25464;}.cls-7{fill:#eddaa1;}.cls-8{fill:#67a0d6;}.cls-9{fill:#e9903b;}.cls-10{fill:#e36da7;}.cls-11{fill:#fff;}.cls-12{fill:#92b323;}.cls-13{fill:#7b2a83;}.cls-14{fill:#e58bb8;}.cls-15{fill:#742675;}.cls-16{fill:#f4c835;}.cls-17{fill:#f4f1ea;}.cls-18{fill:#9c4794;}.cls-19{fill:#98cfc2;}.cls-20{fill:#f8eed1;}.cls-21{fill:#792779;}</style></defs><g id="Laag_3"><rect class="cls-7" y="0" width="169.02" height="118.72" rx="8.43" ry="8.43"/><path class="cls-20" d="m160.98,118.72h-74.94C47.92,88.75,27.72,50.35,32.94,0h127.91c4.51,0,8.17,3.66,8.17,8.17v102.51c0,4.44-3.6,8.04-8.04,8.04Z"/><ellipse class="cls-19" cx="112.47" cy="47.96" rx="33.74" ry="32.3"/><rect class="cls-6" x="25.02" y="68" width="35.49" height="19.32" rx="6.72" ry="6.72"/><rect class="cls-1" x="21.96" y="44.38" width="41.62" height="7.15" rx="3.57" ry="3.57"/><rect class="cls-1" x="21.96" y="23.74" width="41.62" height="7.15" rx="3.57" ry="3.57"/></g><g id="Boek_mascotte"><g id="Boek"><polygon id="Ond._blad" class="cls-17" points="102.96 200.29 103.08 203.88 105.17 206.87 220.74 225.57 221.73 219.93 102.96 200.29"/><polygon id="Zij._blad" class="cls-17" points="221.13 224.43 243.26 97.98 266.62 107.55 253.04 230.06 221.13 224.43"/><path id="Ond._lijn" class="cls-21" d="m103.27,203.88c-.07-.03-.14.04-.12.11.97,3.9,3.85,5.94,8,6.76l132.19,22.3-1.68-5.93-131.11-19.9c-2.89-1.32-5.36-2.45-7.29-3.33Z"/><path id="ZIJ_lijn" class="cls-13" d="m259.46,205.87l8.07-92.19.84-1.43c.27-.46.41-.98.41-1.51v-3.04c0-.7-.26-1.38-.73-1.9-5.34-5.73-11.62-8.81-18.83-9.29-.02,0-.03.01-.05.02-4.21.51-5.65,3.34-6.27,6.85l-133.5-21.11,8.52,2.94,123.64,21.96-17.36,107.87c-.23,1.74-1.59,2.51-3.45,2.85l-134.89-22.43c-4.13-.64-7.46-2.18-10.13-4.47.48,3.94,3.82,6.28,9.32,7.4l135.38,22.83c3.7-.01,6.21-1.46,7.15-4.79l17.65-108.77c.57-2.32,1.61-4.11,3.67-4.79,1.37-.38,2.75-.38,4.12.06,4.22,1.63,7.83,3.76,10.52,6.64.45.48.64,1.14.57,1.79l-10.23,96.97,5.58-2.48Z"/><path id="Boek-2" class="cls-18" d="m75.72,191c5.3-38.07,17.82-74.01,32.07-109.59,0-.02,0-.04,0-.05-.4-1.28-.34-2.57.12-3.87.94-1.75,2.39-2.83,4.25-3.42.01,0,.03,0,.04,0l137.01,22.44c-4.56.98-5.11,3.57-5.7,7.47l-18.77,110.82c-.2,1.18-.92,2.2-1.97,2.78h0c-.62.34-1.34.42-2.04.31l-134.27-22.25c-.7-.12-1.53-.27-2.23-.39-3.26-.59-4.69-1.24-7.06-3.13-.03-.02-1.46-1.09-1.46-1.13Z"/></g><g id="Rechter_arn"><polygon class="cls-10" points="242.87 174.19 247.3 150.11 250.87 155.04 250.19 179.21 242.87 174.19"/><path class="cls-14" d="m294.62,203.81c-.26-.09-18.04-5.53-18.04-5.53l-26.38-19.06.68-24.17,43.74,48.77Z"/><polygon class="cls-10" points="261.6 223.21 237.85 215.47 276.57 198.28 294.62 203.81 261.6 223.21"/><polygon class="cls-14" points="273.51 242.53 273.05 242.41 243.72 234.36 237.85 215.47 261.6 223.21 273.51 242.53"/></g><g id="Linker_arm"><polygon class="cls-16" points="48.13 76.79 79.15 75.89 84.51 108.7 54.13 110.11 48.13 76.79"/><polygon class="cls-9" points="48.13 156.32 84.51 108.7 63.19 109.69 50.17 137.43 48.13 156.32"/><polygon class="cls-16" points="83.3 153.29 48.13 156.32 64.22 135.26 89.24 132.58 83.3 153.29"/></g><g id="Rechter_been"><polygon class="cls-12" points="179.47 228.28 179 214.23 194.81 216.91 195.94 231.21 179.47 228.28"/><path class="cls-3" d="m184.23,313.55l-4.77-85.28,16.47,2.94,6.38,63.23c-12.37.49-17.18,7.99-18.09,19.11Z"/><path class="cls-3" d="m241.26,315.3h-34.64s-.71-1.62-.71-1.62l-8.16-18.79c1.37-.33,2.92-.5,4.57-.57h22.09c8.57,4.07,14.18,11.06,16.85,20.98Z"/><path class="cls-12" d="m184.23,313.43l21.68.25-8.16-18.79c-8.1,1.97-12.82,7.9-13.52,18.54Z"/></g><g id="Linker_been"><polygon class="cls-4" points="149.96 222.77 149.96 209.35 166.06 212.07 166.36 225.57 149.96 222.77"/><path class="cls-8" d="m168.74,311.89l-2.38-86.32-16.4-2.81-1.81,70.23c10.71,2.26,17.43,8.71,20.6,18.89Z"/><path class="cls-4" d="m146.96,311.89h21.79c-2.97-9.56-8.55-16.94-20.6-18.89-9.59,0-10.06-1.14-16.12,2.38,6.47,3.69,12.54,8.62,14.93,16.52Z"/><path class="cls-8" d="m121.43,311.89h-29.62c2.26-8.71,9.07-15.28,22.13-18.89h24c-10.99,2.83-14.15,10.69-16.51,18.89Z"/></g><g id="Rechter_oog"><path id="Rechter_oog1" class="cls-11" d="m163.94,128.78c1.61-10.04,9.36-18.03,19.15-18.61,11.67-.68,19.8,8.12,19.15,18.61-.65,10.56-8.27,18.43-19.15,18.61-11.77.19-20.88-7.79-19.15-18.61Z"/><path id="Rechter_oog-2" class="cls-5" d="m189.78,129.13c-.83,5.15-3.3,8.19-8.87,8.75-5.46.55-9.2-3.08-8.87-8.75.28-4.82,3.99-8.37,8.87-8.75,6.14-.48,9.77,3.14,8.87,8.75Z"/><path class="cls-5" d="m165.4,123.26c2.95-5.13,6.64-9.77,13.56-12.26.36-.13.74-.22,1.12-.26,2.96-.35,5.82-.31,8.62.02.3.04.6.11.88.22,10.18,3.89,12.92,11.12,12.47,21.75.06-.19.22-1.29.27-1.47.39-1.37.58-2.79.63-4.21v-1.96c0-1.39-.17-2.77-.52-4.11-.41-1.56-.93-3.09-1.54-4.6-.54-1.33-1.27-2.58-2.22-3.66-2.32-2.62-4.95-4.38-7.9-5.28l-1.53-.45c-.29-.09-.43-.13-.91-.13h-5.56c-.37,0-.73.05-1.09.14l-1.12.3c-1.99.55-3.69,1.38-5.79,2.72-.22.14-.44.3-.65.45-2.38,1.84-4.3,3.94-5.88,6.25-.13.19-.24.39-.32.6-1.44,3.44-1.93,4.61-2.48,5.93Z"/><path id="Rechter_wenkbrauw" class="cls-5" d="m179.51,89.64c1.45-1.29,3.16-2,5.02-2.38,9.06-1.9,16.42,5.68,23.4,15.4-9.74-6.67-19.35-12.25-28.43-13.02Z"/></g><g id="Linker_oog"><path id="Linker_oog_1" class="cls-11" d="m154.57,127.19c4.26-11.57-1.36-22.34-9.27-23.62-7.93-1.28-16.7,2.56-21.9,12.81-5.27,10.38-1.14,22.89,9.27,23.62,7.83.54,18.4-3.31,21.9-12.81Z"/><path id="Linker_oog-2" class="cls-5" d="m151.36,123.7c-.57,5.07-4.02,8.77-8.65,9-5.35.27-9.44-3.63-8.65-9,.7-4.72,4.08-8.53,8.65-9,5.3-.54,9.24,3.73,8.65,9Z"/><path id="Linker_lid" class="cls-5" d="m123.31,116.7c2.96-4.68,6.62-9.9,12.78-12.21.32-.12.86-.38,1.2-.43,2.63-.32,5.07-.68,7.56-.37.26.03.53.1.78.2,9.06,3.61,10.47,9.88,10.07,19.75.05-.17.19-1.2.24-1.37.35-1.27.51-2.59.56-3.91v-1.82c0-1.29-.05-2.91-.26-4.24-.23-1.48,0-2-.55-3.39-.48-1.24-1.13-2.4-1.98-3.4-2.06-2.44-4.41-4.07-7.03-4.91l-1.36-.41c-.26-.08-.38-.12-.81-.12h-4.94c-.33,0-.65.04-.97.13l-1,.28c-1.77.51-3.28,1.28-5.15,2.53-.2.13-.39.27-.58.42-2.12,1.71-3.83,3.66-5.23,5.8-.11.17-.45.76-.53.96-1.28,3.2-2.29,5.28-2.78,6.51Z"/><path id="Linker_wenkbrauw" class="cls-5" d="m134.96,72.19c11.62-3.83,22.47-5.34,31.87-2.47-.9-2.29-2.6-4.36-4.34-5.19-9.23-3.28-17.03-.1-27.53,7.66Z"/></g><g id="Mond"><path id="Mond-2" class="cls-5" d="m114.79,144.91c-10.3,18.47-6.31,27.27-.51,33.45,30.38,21.53,77.87,6.72,89.45-23.91.47-1.6-.24-2.14-1.45-2.21-36.84,10.16-65.99,8.8-85.27-7.32-.8-.6-1.56-.74-2.21,0Z"/><path id="Tanden" class="cls-11" d="m117.67,145.47c-.43,11.54,6.14,18,16.29,15.7,5.08,8.28,13.5,10.47,21.25,3.15,7.54,7.48,16.81,6.89,22.47-2.55,10.48,5.39,17.33,1.7,21.45-8.85-32.6,8.6-59.64,9.02-81.46-7.45Z"/><path id="Tong" class="cls-2" d="m135.81,187.4c17.24,3.48,38.79-1.05,54.11-13.62-23.64-3.74-42.62,1.62-54.11,13.62Z"/></g><path id="Sikje" class="cls-15" d="m147.44,197.65c6.71,4.06,12.88,3.35,18.57-1.45.11-.09.04-.28-.11-.27l-18.4,1.43c-.15.01-.19.22-.07.29Z"/></g></svg>