<?xml version="1.0" encoding="UTF-8"?><svg id="Laag_2" xmlns="http://www.w3.org/2000/svg" viewBox="0 0 205.7 166.64"><defs><style>.cls-1{fill:#e05d9e;}.cls-1,.cls-2,.cls-3,.cls-4,.cls-5,.cls-6,.cls-7,.cls-8,.cls-9,.cls-10,.cls-11,.cls-12,.cls-13,.cls-14,.cls-15,.cls-16{stroke-width:0px;}.cls-2{fill:#b3cc4e;}.cls-3{fill:#1973b6;}.cls-5{fill:#555454;}.cls-6{fill:#67a0d6;}.cls-7{fill:#e9903b;}.cls-8{fill:#e36da7;}.cls-9{fill:#fff;}.cls-10{fill:#92b323;}.cls-11{fill:#e58bb8;}.cls-12{fill:#f4c835;}.cls-13{fill:#f4f1ea;}.cls-14{fill:#9c4794;}.cls-15{fill:#c7c5cc;}.cls-16{fill:#792779;}</style></defs><g id="Laag_6"><g id="Pen_met_hood"><g id="Lichaam"><polygon class="cls-13" points="47.66 136.6 26.47 129.2 31.21 27.25 47.66 27.25 47.66 136.6"/><path class="cls-14" d="m47.78,38.1l100.11-5.33c2.47-2.06,3.88-5.06-1.6-9.34,6.31,1.06,6.6,3.75,5.55,8.8.91,28.44-.4,61.76-2.81,97.47-13.8,2.77-57.6,6.04-98.87,7.32-2.87.09-5.99-.94-7.88-.84l5.51-98.08Z"/><path class="cls-14" d="m29.83,28.62c11.67-5.97,15.45-.06,19.79,6.96l97.87-4.09c4.47-2.44,3.49-4.32-.51-7.73-7.53-4.86-111.86-3.71-117.15,4.87Z"/><path class="cls-16" d="m26.81,121.15l4.93-91.01c1.62-4.77,18.6,1.45,13.74,7.53l-4.43,95.91c.47,2.47,1.73,3.47,3.49,3.53,0,0,10.05-.11,13.36-.37,1.66-.13,2.55-.14,3.72-.2.33-.02-1.93-.99-3.96-1.26-3.21-.44-12.83-.85-12.83-.85-1.14.17-1.76-.27-1.7-1.49l4.68-94.81,99.15-5.06c4.75-1.27,7.04-5.93,2.04-8.72-2.09-.74-2.79-.83-1.53,0,3.57,2.9,3.57,6.18-1.79,7.14l-96.08,4.09c-1.87-11.23-17.07-12.27-20.08-6.47l-5.41,91.75,2.69.28Z"/></g><g id="Rechter_been"><polygon class="cls-10" points="94.62 146.54 93.09 135.05 108.1 134.05 110.21 145.15 94.62 146.54"/><polygon class="cls-2" points="96.68 162.13 94.62 146.54 110.21 145.15 112.49 159.56 96.68 162.13"/></g><g id="Linker_been"><polygon class="cls-3" points="72.94 147.61 73.06 135.9 58.02 136.76 57.82 147.83 72.94 147.61"/><polygon class="cls-6" points="58.36 155.5 57.82 147.83 72.94 147.07 74.23 160.22 58.36 155.5"/></g><g id="Rechter_arn"><path class="cls-11" d="m198.3,58.6h-25.15l8.04-32.43s24.46-.78,24.51-.77l-7.4,33.19Z"/><path class="cls-8" d="m181.19,109.41l-8.04-50.81h11.11c5.21,22.22,1.61,36.23-3.06,50.81Z"/><path class="cls-11" d="m150.76,100.35s.7-18.73.8-18.7l25.61,2.36,4.02,25.4"/></g><g id="Linker_arm"><polygon class="cls-12" points="0 117.37 23.23 119.78 23.23 120.77 32.59 121.75 38.04 139.83 37.62 166.64 31.49 145.11 7.91 138.39 0 117.37"/><polygon class="cls-7" points="35.74 105.71 35.91 87.24 0 117.37 23.23 119.78 35.74 105.71"/></g><g id="HOedje"><path class="cls-5" d="m42.2,4.57c32.87,5.43,67.1,4.82,101.2-1.28C109.22-1.27,74.88-1.32,42.2,4.57Z"/><path class="cls-4" d="m68.85,25.45c18.02,2.48,34.91,2.63,49.96-1.02v-14.04s18.4-1,25.68-2.66c2.37-.54.94-4.88-1.54-4.43-32.61,5.96-67.12,6.68-100.14,1.17-2.68-.45-4.18,4.34,0,4.85,6.54.81,26.3,2.04,26.3,2.04l-.26,14.09Z"/><path class="cls-15" d="m90.43,3.07l-26.91,4.24c-.38.06-.66.39-.66.78v17.33c1.36-.08,2.55,1.49.6,2.21.28,6.56,2.51,12.3,5.28,19.87.49,1.33-.85,2-1.62,1.23-.5-.51-.47-1.9-.68-2.51-.26-.75-1.08-.72-1.28-.13-.17.5.04,1.81.17,2.49.05.25-.1.5-.35.57-1.59.43-3.19.51-4.81.19-.72-.14-1.2-.82-1.11-1.54,1.04-8.13,2.01-16.06,1.63-19.97-1.62-.26-2.06-2.06,0-2.43l.48-18.68c.02-.64.49-1.17,1.13-1.25l25.71-3.43,2.43,1.02Z"/></g><g id="L_oog"><path class="cls-4" d="m75.49,46.34c4.72-14.36,18.7-19.47,24.45-10.15-9.94-2.86-17.86,1.33-24.45,10.15Z"/><path class="cls-9" d="m91.64,83.49c-18.43-.85-17.55-26.94-1.04-27.43,16.87-1.29,19.57,28.28,1.04,27.43Z"/><path class="cls-4" d="m97.46,82.57c-6.67,1.51-7.08-15.2.37-14.84s6.67,13.25-.37,14.84Z"/><path class="cls-4" d="m78.11,67.72c1.6-17.61,20.81-16.14,24.97-3.7-11.4-11.68-18.23-8.48-24.97,3.7Z"/></g><g id="R_oog"><path class="cls-4" d="m112.06,37.66c7.72-9.57,16.6-5.74,20.62,5.68-5.62-7.85-12.44-10.01-20.62-5.68Z"/><path class="cls-9" d="m121.13,81.07c-11.81.78-19.48-25.53-.54-28.19,14.14-1.99,13.12,27.36.54,28.19Z"/><path class="cls-4" d="m124.45,79.41c-5.57-.07-5.29-13.94,1.53-13.53,7.44.45,2.94,13.59-1.53,13.53Z"/><path class="cls-4" d="m109.21,64.05c.64-15.38,17.51-17.45,21.01-3.83-8.48-10.18-14.74-8.6-21.01,3.83Z"/></g><g id="Mond"><path class="cls-4" d="m78.72,89.08c-17.98,33.1,54.38,41.57,47.12,4.35-16.59,1.44-32.49.64-47.12-4.35Z"/><path class="cls-9" d="m77.86,92.66c-.74-.63-.03-2.55.52-3.35,1.23-1.78,2.54-1.21,5.36-.45,10.81,3.83,23.47,4.5,36.84,2.04,2.68.07,4.93.69,5.26,2.53.15.85.22.6-.36,1.05-2.93,2.26-6.11,3.08-8.12,1.08-.51-.51-1.29-.53-1.79,0-5.34,5.68-12.48,5.06-13.45.53-.11-.53-1.8-1.21-2.04-.53-2.35,6.49-12.51,2.15-12.08-2.19.13-1.29-1.41-1.55-2.55-.89-3.42,1.97-5.55,1.9-7.58.19Z"/><path class="cls-1" d="m76.87,104.61c15.96-3.24,26.5,1.26,31.64,12.76-12.63,2-27.37-2.31-31.64-12.76Z"/></g></g></g></svg>