<?xml version="1.0" encoding="UTF-8"?>
<svg id="Layer_2" data-name="Layer 2" xmlns="http://www.w3.org/2000/svg" viewBox="0 0 29.92 26">
  <defs>
    <style>
      .cls-1 {
        fill: #951B81;
        stroke-width: 0px;
      }
    </style>
  </defs>
  <path class="cls-1" d="m28.93,12c-.21,0-.41-.07-.58-.19L14.93,2.23,1.51,11.81c-.48.28-1.09.12-1.37-.35-.25-.42-.16-.95.21-1.27L14.35.19c.35-.25.81-.25,1.16,0l14,10c.45.32.55.95.22,1.4-.19.26-.49.41-.8.41Z"/>
  <path class="cls-1" d="m23.93,26h-5c-.55,0-1-.45-1-1v-7h-6v7c0,.55-.45,1-1,1h-5c-1.66,0-3-1.34-3-3v-10c0-.55.45-1,1-1s1,.45,1,1v10c0,.55.45,1,1,1h4v-7c0-.55.45-1,1-1h8c.55,0,1,.45,1,1v7h4c.55,0,1-.45,1-1v-10c0-.55.45-1,1-1s1,.45,1,1v10c0,1.66-1.34,3-3,3Z"/>
</svg>