<?xml version="1.0" encoding="UTF-8"?>
<svg id="Layer_1" data-name="Layer 1" xmlns="http://www.w3.org/2000/svg" viewBox="0 0 881 1080">
  <defs>
    <style>
      .cls-1 {
        fill: #cbcaca;
      }

      .cls-1, .cls-2, .cls-3, .cls-4, .cls-5, .cls-6, .cls-7, .cls-8, .cls-9, .cls-10, .cls-11, .cls-12, .cls-13 {
        stroke-width: 0px;
      }

      .cls-2 {
        fill: #dbe7f9;
      }

      .cls-3 {
        fill: #bbd25d;
      }

      .cls-14, .cls-5, .cls-15 {
        isolation: isolate;
      }

      .cls-5 {
        opacity: 1;
      }

      .cls-5, .cls-15 {
        fill: #ec671b;
      }

      .cls-6 {
        fill: none;
      }

      .cls-7 {
        fill: #e25f9f;
      }

      .cls-8 {
        fill: #a5549b;
      }

      .cls-9 {
        fill: #95b32a;
      }

      .cls-10 {
        fill: #acbd56;
      }

      .cls-11 {
        fill: #fff;
      }

      .cls-12 {
        fill: #9d9d9d;
      }

      .cls-15 {
        font-family: Asap-Bold, Asap;
        font-size: 72.13px;
        font-weight: 700;
      }

      .cls-13 {
        fill: #822584;
      }
    </style>
  </defs>
  <rect class="cls-6" x=".17" y="62.7" width="884.83" height="1019.48"/>
  <path id="Path_831" data-name="Path 831" class="cls-5" d="m808.06,485.59c341.28,0,617.94,276.12,617.94,616.74s-276.66,616.74-617.94,616.74S190.12,1442.94,190.12,1102.32,466.78,485.59,808.06,485.59Z"/>
  <g id="Laag_2-2" data-name="Laag 2-2">
    <path id="R" class="cls-4" d="m656.36,612.34l36.02,25.67c4.81,3.42,9.89,6.44,15.19,9.03l11.05,5.37c1.12.54,2.47.07,3.01-1.05.08-.16.13-.33.17-.5l7.21-32.97c.92-4.19,1.56-8.43,1.91-12.71l4.01-48.67c.14-1.55,1.09-2.9,2.5-3.55,0,0,22.58-7.64,28.45-12.79s3.08-11.78-4.99-9.33c-5.63,2.44-11.09,5.26-16.34,8.45-1.85-.3-1.99-1.54-1.02-3.39,0,0,16.14-12.93,19.68-18.74,3.2-5.23-.13-10.88-6.78-7.04-5.56,3.2-18.56,17.78-18.56,17.78-1.83.89-2.74.41-2.29-2.01,0,0,6.65-15.86,7.63-21.47,2.11-12-5.61-14.12-10.97-4.09-4.03,7.53-10.05,32.66-10.05,32.66-.53,1.75-1.55,1.92-3.06.35-2.88-4.23-6.03-8.28-9.42-12.11-6.17-5.66-10.87.18-6.9,8,2.53,5.01,15.43,16.36,15.43,16.36,1.23,1.3,1.85,3.05,1.72,4.84l-6.22,81.35c-.05.68-.64,1.19-1.32,1.14-.21-.02-.41-.08-.58-.19l-54.83-35.81-.64,15.37-.02.05Z"/>
    <path id="L" class="cls-4" d="m401.03,641.46l-58.45,84.5c-1.33,1.07-1.54,3.01-.47,4.34.29.36.65.64,1.06.84l75.41,38.02c10.37,11.76,20.27,17.23,29.09,9.25l-1.31-39.3c-12.45-7.67-20.04,1.08-26.05,15.35l-60.27-27.73c-.79-.36-1.14-1.3-.78-2.1.04-.08.08-.15.13-.22l47.62-69.78-5.98-13.16v-.02Z"/>
    <g id="Dop">
      <path id="Path_800" data-name="Path 800" class="cls-13" d="m388.21,343.15c7.5-4.41,15.38-8.11,23.56-11.07l111.33-21.73c1.87-.36,3.68-1.07,5.56-1.29,13.46-1.47,24.52-2.91,37-.85l-1.38-12.04c-11.4-11.04-27.35-13.98-45.64-12.68-35.32,2-70.29,8.07-104.22,18.11-1.17.35-2.29.96-3.48,1.29-6.77,1.74-21.59,14.16-26.02,24.04l3.26,16.25.02-.03Z"/>
      <path id="Path_801" data-name="Path 801" class="cls-8" d="m384.94,326.87c5.95-10.54,15.05-18.94,26.02-24.04,38.41-11.85,78.24-18.45,118.42-19.61,13.07,1.07,24.7,2.88,34.9,12.92l-1.19-10.37c-8.69-17.76-22.62-28.02-43.68-28.06-39.54-.25-78.7,7.85-114.9,23.76-4.2,1.84-7.98,4.54-11.07,7.92-5.23,6.01-8.98,13.18-10.94,20.9-.64,2.25-.67,4.62-.08,6.88,0,0,2.51,9.68,2.51,9.68Z"/>
    </g>
    <path id="Path_802" data-name="Path 802" class="cls-3" d="m419,683.84l235.76-32.25,5.87-141.72c.19-4.64.26-9.29.19-13.94l-.58-47.32c-3.17-57.65-15.03-100.77-42.26-118.13-18.65-14.68-37.67-23.4-57.24-23.72-13.6-.64-26.31-.28-36.26,3.31l-113.85,22.11c-48.11,19.06-71.15,52.85-75.77,94.96-1.85,18.3-.09,36.79,5.17,54.42l2.87,9.88,9,27.65c.97,3.01,2.07,6.01,3.25,8.95l42.78,106.65,21.07,49.18v-.02Z"/>
    <g id="Tusenlijf">
      <path id="Path_803" data-name="Path 803" class="cls-1" d="m439.34,702.37l1.25,10.48,95.32-24.37-20.75-3.92-75.82,17.81Z"/>
      <path id="Path_804" data-name="Path 804" class="cls-10" d="m443.2,726.28l206.84-55.85,5.81,23.05-209.03,64.4-3.62-31.6Z"/>
      <path id="Path_805" data-name="Path 805" class="cls-9" d="m419,683.84l235.76-32.25c1.21,8.07.29,13.76-4.8,14.76l.36,3.11c.2,1.72-1.2,1.76-2.87,2.22l-204.03,56.35c-.95.26-1.93-.31-2.18-1.25-.02-.08-.04-.15-.05-.23-.45-3.73-1.15-7.42-2.09-11.06-.29-1.13.39-2.29,1.52-2.59l90.22-23.91-88.12,13.04c-2.95.47-5.97.12-8.73-1.01-9.33-3.87-14.41-9.56-14.96-17.16h-.02Z"/>
    </g>
    <g id="Onderlijf">
      <path id="Path_806" data-name="Path 806" class="cls-8" d="m444.01,761.93c-3.66-7.66-1.58-11.7,7.02-11.62l203.77-57.94c3.99-1.52,7.65-1.07,10.21,5.44l14.07,47.37c1.93,5.88,2.36,11.32.29,16.04-5.54,26.02-19.13,61.61-34.34,98.9l-101.84,26.04-53.53-43.27c-5.15-4.16-10-8.68-14.52-13.51l-7.48-8.03c-1.93-2.05-3.97-4-5.98-5.97-4.47-4.38-8.28-11.25-10.88-22.76l-6.79-30.73v.05Z"/>
      <path id="Path_807" data-name="Path 807" class="cls-13" d="m451.03,750.31c73.58-11.33,141.83-30.16,203.77-57.94,0,0-203.77,57.94-203.77,57.94Z"/>
      <path id="Path_808" data-name="Path 808" class="cls-13" d="m461.17,793c77.68-6.16,144.47-27.34,202.93-60l-202.93,60Z"/>
      <path id="Path_809" data-name="Path 809" class="cls-13" d="m509.87,846.13c52.58-1.13,99.47-13.96,141.27-37.18l-141.27,37.18h0Z"/>
    </g>
    <g id="Pen_punt" data-name="Pen punt">
      <path id="Path_810" data-name="Path 810" class="cls-3" d="m542.87,885.92l15.18,11.23,79.1-19.17,8.07-18.3-102.34,26.24Z"/>
      <path id="Path_811" data-name="Path 811" class="cls-9" d="m558.05,897.15l14.41,8.93,57.01-14.47,8.14-14.68-79.56,20.22Z"/>
      <path id="Path_812" data-name="Path 812" class="cls-12" d="m571.95,905.75l8.59,9.5,43.52-12.22,5.86-12.24-57.97,14.96Z"/>
      <path id="Path_813" data-name="Path 813" class="cls-1" d="m580,914.72l15.84,15.49,20.71-5.15,7.89-22.83-44.43,12.49Z"/>
      <path id="Path_814" data-name="Path 814" class="cls-4" d="m595.83,930.22c7.78,3.49,15.16,4.75,20.73-5.16l-20.73,5.16Z"/>
    </g>
    <g id="Wenkies">
      <path id="Path_815" data-name="Path 815" class="cls-4" d="m375.9,408.69c23.36-42.85,68.16-61.87,89.56-32.67-31.51-13.7-61.13.66-89.56,32.67Z"/>
      <path id="Path_816" data-name="Path 816" class="cls-4" d="m508.12,369.47c31.54-32.94,68.11-21.69,105.66,14.79-33.59-27.71-68.91-31.1-105.66-14.79Z"/>
    </g>
    <g id="R_oog" data-name="R oog">
      <g id="Wit_oog" data-name="Wit oog">
        <path id="Path_817" data-name="Path 817" class="cls-11" d="m617.84,473.99c.99,10.19-2.1,20.36-8.6,28.28-8.66,10.71-21.21,17.55-34.9,19.03-11.98,1.04-24.03-1.2-34.84-6.47-10.72-5.09-15.96-17.46-17.31-29.19-2.6-22.69,16.8-56.43,42.98-59.42,12.11-1.3,24.21,2.6,33.27,10.73,10.53,9.75,17.37,22.83,19.37,37.04h.02Z"/>
      </g>
      <ellipse id="Ellipse_86" data-name="Ellipse 86" class="cls-4" cx="561.38" cy="484.4" rx="19.26" ry="21.4" transform="translate(-51.47 67.02) rotate(-6.53)"/>
      <path id="Path_818" data-name="Path 818" class="cls-4" d="m521.95,483.88c-11.89-89.47,92.03-95.39,95.41-13.01-14.52-64.89-88.63-57.3-95.41,13.01Z"/>
      <g id="R_Wimpers" data-name="R Wimpers">
        <path id="Path_819" data-name="Path 819" class="cls-4" d="m593.51,420.65c2.27-4.89,4.18-9.94,5.72-15.1.28-2.73-.03-5.48-.92-8.07-2.25-5.07-7.68-3.62-8.09,2.31-.36,5.27,3.28,20.85,3.28,20.85v.02Z"/>
        <path id="Path_820" data-name="Path 820" class="cls-4" d="m602.63,428.44s14.31-11.17,16.17-16.69c2.3-6.77-4.6-10.19-8.27-4.76-3.21,4.72-7.9,21.45-7.9,21.45Z"/>
        <path id="Path_821" data-name="Path 821" class="cls-4" d="m609.85,437.66s16.23-1.52,20.09-5.23c5.03-4.86-.35-10.87-6.3-7.92-4.28,2.11-13.79,13.17-13.79,13.17v-.02Z"/>
      </g>
    </g>
    <g id="L_oog" data-name="L oog">
      <g id="Wit_oog-2" data-name="Wit oog-2">
        <path id="Path_822" data-name="Path 822" class="cls-11" d="m493.17,493.83c1.28,10.55.3,16.33-4.72,24.96-7.34,12.6-22.71,18.98-38.26,20.14-15.55,1.15-29.97-2.4-39.99-12.58-8.1-7.73-13.14-18.13-14.17-29.28-2.86-26.25,17.03-50.14,43.26-53.14s50.71,23.98,53.83,49.91h.05Z"/>
        <ellipse id="Ellipse_87" data-name="Ellipse 87" class="cls-11" cx="445.78" cy="489.31" rx="38.13" ry="39.7" transform="translate(-52.78 53.9) rotate(-6.53)"/>
      </g>
      <path id="Path_823" data-name="Path 823" class="cls-4" d="m396.06,497.06c-7.84-76.5,78.83-91.22,96.48-8.73-28.02-64-89.43-53.72-96.48,8.73Z"/>
      <g id="L_Wimpers" data-name="L Wimpers">
        <path id="Path_824" data-name="Path 824" class="cls-4" d="m405.62,451.03s-1.9-16.14-5.11-20.28c-3.52-4.56-9.49-.85-7.49,4.73,1.7,4.72,12.6,15.55,12.6,15.55Z"/>
        <path id="Path_825" data-name="Path 825" class="cls-4" d="m400.05,461.71s-10.56-14.62-15.73-17.34c-4.92-2.58-9.9,2.95-5.6,7.76,3.91,4.34,21.33,9.61,21.33,9.61v-.02Z"/>
        <path id="Path_826" data-name="Path 826" class="cls-4" d="m396.38,472.78s-13.98-6.02-18.86-5.56c-5.48.51-5.9,7.65-.06,8.96,4.69,1.04,18.92-3.4,18.92-3.4Z"/>
      </g>
      <ellipse id="Ellipse_88" data-name="Ellipse 88" class="cls-4" cx="456.39" cy="501.05" rx="19.26" ry="21.26" transform="translate(-54.04 55.18) rotate(-6.53)"/>
    </g>
    <g id="Mond">
      <path id="Path_827" data-name="Path 827" class="cls-4" d="m464.47,566.94c16.93,60.16,105.04,55.23,102-11.68.67-8.06-.03-10.02-7.95-7.27-20.92,41.34-64.86,33.83-86.83,9.31-6.22-.04-8.55,2.09-7.25,9.64h.02Z"/>
      <path id="Path_828" data-name="Path 828" class="cls-11" d="m471.72,557.3c13.33,14.3,30.31,21.87,49.82,19.56,16.49-2.6,30.48-13.51,37.01-28.88-26.65,15.61-58.47,16.89-86.83,9.31Z"/>
      <path id="Path_829" data-name="Path 829" class="cls-7" d="m473.34,585.62c13.22,18.79,36.71,27.39,58.93,21.59-13.99-18.99-33.04-27.9-58.93-21.59Z"/>
    </g>
  </g>
  <g id="Group_225" data-name="Group 225">
    <path id="Polygon_1" data-name="Polygon 1" class="cls-2" d="m360.26,256.99l-69.64-42.83,71.56-38.91-1.92,81.74Z"/>
    <g id="Group_130" data-name="Group 130">
      <rect id="Rectangle_274" data-name="Rectangle 274" class="cls-2" x="227.79" y="40.03" width="447.23" height="161.1" rx="79.35" ry="79.35" transform="translate(-10.79 52.14) rotate(-6.53)"/>
      <g id="Hulp_nodig_" data-name="Hulp nodig " class="cls-14">
        <text class="cls-15" transform="translate(262.68 167.6) rotate(-6.53)"><tspan x="0" y="0">Hulp nodig?</tspan></text>
      </g>
    </g>
  </g>
</svg>