<svg id="Component_52_13" data-name="Component 52 – 13" xmlns="http://www.w3.org/2000/svg" xmlns:xlink="http://www.w3.org/1999/xlink" width="242" height="392" viewBox="0 0 242 392">
  <defs>
    <clipPath id="clip-path">
      <rect id="Rectangle_426" data-name="Rectangle 426" width="242" height="392" transform="translate(9651 3914)" fill="#fff"/>
    </clipPath>
  </defs>
  <g id="Mask_Group_2" data-name="Mask Group 2" transform="translate(-9651 -3914)" clip-path="url(#clip-path)">
    <g id="Laag_2-2" transform="translate(9698.997 4009.078)">
      <path id="R" d="M135.63,153.82l13.67,12.31a44.426,44.426,0,0,0,5.85,4.45l4.31,2.74a.939.939,0,0,0,1.39-.49l4.54-13.28a40.094,40.094,0,0,0,1.39-5.16l3.96-19.92a1.808,1.808,0,0,1,1.2-1.35s9.69-2.09,12.36-3.94,1.83-4.72-1.62-4.09a55.274,55.274,0,0,0-7.15,2.72c-.75-.21-.75-.73-.26-1.45,0,0,7.28-4.58,9.02-6.81,1.57-2.01.46-4.5-2.47-3.23-2.45,1.06-8.51,6.47-8.51,6.47-.8.28-1.15.04-.85-.94,0,0,3.5-6.24,4.17-8.51,1.44-4.86-1.65-6.1-4.34-2.21-2.02,2.92-5.7,13.02-5.7,13.02-.3.7-.73.72-1.28,0a50.732,50.732,0,0,0-3.32-5.45c-2.28-2.63-4.5-.44-3.23,2.98.81,2.19,5.6,7.49,5.6,7.49a2.628,2.628,0,0,1,.48,2.08l-6.42,33.32a.513.513,0,0,1-.83.3l-20.96-17.39-.99,6.32Z"/>
      <path id="L" d="M28.75,153.77.6,185.92a1.284,1.284,0,0,0,0,2.17l29.36,19.28c3.73,5.35,7.56,8.08,11.58,5.2l1.32-16.3c-4.78-3.76-8.33-.5-11.49,5.11L7.78,187.07a.658.658,0,0,1-.16-.99L30.6,159.5l-1.85-5.72Z"/>
      <g id="Dop">
        <path id="Path_800" data-name="Path 800" d="M37.57,29.9a58.778,58.778,0,0,1,10.26-3.46l47.03-3.71c.79-.06,1.57-.27,2.36-.27,5.63.03,10.27-.04,15.33,1.4V18.82c-4.19-5.1-10.64-7.07-18.26-7.4a190.724,190.724,0,0,0-43.92,2.55c-.5.09-.99.29-1.5.37-2.88.4-9.59,4.83-11.89,8.7l.58,6.87Z" fill="#822584"/>
        <path id="Path_801" data-name="Path 801" d="M36.99,23.02a24.054,24.054,0,0,1,11.89-8.7,185.24,185.24,0,0,1,49.86-2.5c5.35,1.06,10.07,2.36,13.81,6.99V14.47C109.8,6.72,104.53,1.82,95.83.81a116.944,116.944,0,0,0-48.6,4.38,13.634,13.634,0,0,0-4.95,2.75,21.161,21.161,0,0,0-5.51,8.12,5.416,5.416,0,0,0-.36,2.84l.58,4.12Z" fill="#a5549b"/>
      </g>
      <path id="Path_802" data-name="Path 802" d="M34.17,172.13l98.94-2.17,9.13-58.28q.45-2.865.74-5.75l2-19.58c1.42-23.97-1.44-42.35-11.87-50.81-7.01-6.95-14.46-11.45-22.53-12.51-5.59-.91-10.86-1.36-15.14-.35L47.35,26.43c-20.78,5.6-31.9,18.47-35.8,35.65a58.549,58.549,0,0,0-.44,22.73l.72,4.22,2.41,11.85c.26,1.29.57,2.58.92,3.85l12.63,46.09,6.38,21.32Z" fill="#bbd25d"/>
      <g id="Tusenlijf">
        <path id="Path_803" data-name="Path 803" d="M41.7,180.75l.02,4.39,40.54-5.56-8.39-2.6Z" fill="#cbcaca"/>
        <path id="Path_804" data-name="Path 804" d="M42.16,190.81l88.11-13.29,1.31,9.8L42.16,204.04Z" fill="#acbd56"/>
        <path id="Path_805" data-name="Path 805" d="M34.17,172.13l98.94-2.17c.12,3.39-.53,5.7-2.68,5.87v1.3c0,.72-.58.67-1.29.78L42.17,191.54a.74.74,0,0,1-.85-.72,35.7,35.7,0,0,0-.34-4.67.888.888,0,0,1,.75-1l38.41-5.61-37.03,1.22a6.78,6.78,0,0,1-3.56-.83c-3.67-2.04-5.5-4.63-5.37-7.8Z" fill="#95b32a"/>
      </g>
      <g id="Onderlijf">
        <path id="Path_806" data-name="Path 806" d="M40.81,205.58c-1.15-3.34-.1-4.91,3.45-4.47l86.94-14.3c1.72-.44,3.21-.08,3.96,2.73l3.57,20.24c.52,2.52.44,4.79-.64,6.64-3.52,10.49-10.82,24.55-18.87,39.24L75.91,261.6,55.84,241.19a59.309,59.309,0,0,1-5.36-6.27l-2.71-3.67c-.7-.94-1.45-1.84-2.19-2.75-1.64-2.02-2.89-5.04-3.42-9.92l-1.35-13.02Z" fill="#a5549b"/>
        <path id="Path_807" data-name="Path 807" d="M44.26,201.11c30.94-1.2,60.03-5.75,86.94-14.3l-86.94,14.3Z" fill="#822584"/>
        <path id="Path_808" data-name="Path 808" d="M46.43,219.23c32.39,1.13,60.99-4.46,86.69-15.19L46.43,219.23Z" fill="#822584"/>
        <path id="Path_809" data-name="Path 809" d="M64.04,243.49c21.78,2.02,41.76-1.06,60.13-8.68l-60.13,8.68Z" fill="#822584"/>
      </g>
      <g id="Pen_punt">
        <path id="Path_810" data-name="Path 810" d="M75.79,261.49l5.74,5.36,33.59-4.18,4.2-7.18Z" fill="#bbd25d"/>
        <path id="Path_811" data-name="Path 811" d="M81.53,266.85l5.53,4.37,24.24-3.28,4.06-5.68Z" fill="#95b32a"/>
        <path id="Path_812" data-name="Path 812" d="M86.87,271.06l3.1,4.33,18.56-2.99,3-4.78Z" fill="#9d9d9d"/>
        <path id="Path_813" data-name="Path 813" d="M89.77,275.15l5.81,7.15,8.8-1.15,4.34-9.06Z" fill="#cbcaca"/>
        <path id="Path_814" data-name="Path 814" d="M95.58,282.3c3.05,1.81,6.04,2.68,8.81-1.15Z"/>
      </g>
      <g id="Wenkies">
        <path id="Path_815" data-name="Path 815" d="M29.38,56.4c11.68-16.6,31.09-22.34,38.55-9.26-12.37-7.15-25.29-2.62-38.55,9.26Z"/>
        <path id="Path_816" data-name="Path 816" d="M85.87,46.45c14.59-12.12,29.17-5.74,42.96,11.11C116.26,44.52,101.83,41.45,85.87,46.45Z"/>
      </g>
      <g id="R_oog">
        <g id="Wit_oog">
          <path id="Path_817" data-name="Path 817" d="M126.26,94.83a16.1,16.1,0,0,1-4.89,11.28,21.639,21.639,0,0,1-15.32,6.21A27.629,27.629,0,0,1,91.96,108c-4.19-2.61-5.77-7.97-5.77-12.88,0-9.5,9.61-22.52,20.57-22.52A17.855,17.855,0,0,1,120,78.61a25.9,25.9,0,0,1,6.25,16.22Z" fill="#fff"/>
        </g>
        <ellipse id="Ellipse_86" data-name="Ellipse 86" cx="8.01" cy="8.9" rx="8.01" ry="8.9" transform="translate(94.43 87.56)"/>
        <path id="Path_818" data-name="Path 818" d="M86.17,94.38c-.68-37.53,42.54-35.06,40.04-.86C123.28,66.02,92.3,65.65,86.17,94.38Z"/>
        <g id="R_Wimpers">
          <path id="Path_819" data-name="Path 819" d="M118.73,71.64a46.7,46.7,0,0,0,3.08-5.97,7.864,7.864,0,0,0,0-3.38c-.69-2.2-3-1.86-3.45.57-.4,2.16.37,8.77.37,8.77Z"/>
          <path id="Path_820" data-name="Path 820" d="M122.13,75.29s6.44-3.94,7.47-6.13c1.27-2.69-1.42-4.43-3.19-2.36-1.55,1.8-4.28,8.49-4.28,8.49Z"/>
          <path id="Path_821" data-name="Path 821" d="M124.68,79.44s6.78.14,8.55-1.21c2.31-1.77.37-4.51-2.23-3.57-1.87.67-6.32,4.79-6.32,4.79Z"/>
        </g>
      </g>
      <g id="L_oog">
        <g id="Wit_oog-2">
          <path id="Path_822" data-name="Path 822" d="M73.81,97.13c.03,4.42-.65,6.76-3.13,10.09-3.63,4.86-10.28,6.77-16.76,6.51s-12.27-2.41-15.93-7.09a19.3,19.3,0,0,1-4.47-12.77c.06-10.98,9.41-19.91,20.39-19.91S73.73,86.27,73.79,97.13Z" fill="#fff"/>
          <ellipse id="Ellipse_87" data-name="Ellipse 87" cx="15.86" cy="16.51" rx="15.86" ry="16.51" transform="translate(38.58 76.51)" fill="#fff"/>
        </g>
        <path id="Path_823" data-name="Path 823" d="M33.53,93.87c.38-31.98,36.89-33.96,40.28.96C65.26,67.06,39.4,68.4,33.53,93.87Z"/>
        <g id="L_Wimpers">
          <path id="Path_824" data-name="Path 824" d="M39.66,75.3s-.02-6.76-1.15-8.62c-1.24-2.05-3.88-.8-3.32,1.6.48,2.03,4.47,7.02,4.47,7.02Z"/>
          <path id="Path_825" data-name="Path 825" d="M36.85,79.45s-3.67-6.54-5.68-7.91c-1.91-1.3-4.23.75-2.68,2.94,1.41,1.98,8.36,4.98,8.36,4.98Z"/>
          <path id="Path_826" data-name="Path 826" d="M34.81,83.85s-5.49-3.15-7.53-3.19c-2.29-.05-2.8,2.88-.45,3.7,1.89.65,7.98-.51,7.98-.51Z"/>
        </g>
        <ellipse id="Ellipse_88" data-name="Ellipse 88" cx="8.01" cy="8.84" rx="8.01" ry="8.84" transform="translate(50.26 89.53)"/>
      </g>
      <g id="Mond">
        <path id="Path_827" data-name="Path 827" d="M58.49,125.98c4.15,25.66,40.79,27.79,42.7,0,.66-3.3.46-4.14-2.94-3.38-10.6,16.09-28.4,10.91-36.32-.26-2.57-.31-3.63.46-3.45,3.64Z"/>
        <path id="Path_828" data-name="Path 828" d="M61.94,122.34c4.83,6.54,11.49,10.47,19.66,10.44A20.132,20.132,0,0,0,98.26,122.6c-11.75,5.19-24.96,4.21-36.32-.26Z" fill="#fff"/>
        <path id="Path_829" data-name="Path 829" d="M61.27,134.12A22.9,22.9,0,0,0,84.6,145.83c-4.88-8.51-12.33-13.09-23.33-11.71Z" fill="#e25f9f"/>
      </g>
    </g>
  </g>
  <g id="Group_225" data-name="Group 225" transform="translate(-4031 -1748.124)">
    <path id="Polygon_1" data-name="Polygon 1" d="M16.938,0,33.875,29.484H0Z" transform="translate(4103.587 1832.329) rotate(158)" fill="#dbe7f9"/>
    <g id="Group_130" data-name="Group 130" transform="translate(2831 1059.466)">
      <rect id="Rectangle_274" data-name="Rectangle 274" width="186" height="67" rx="33" transform="translate(1208 693.658)" fill="#dbe7f9"/>
      <text id="Hulp_nodig_" data-name="Hulp nodig?" transform="translate(1301 737.658)" fill="#ec671b" font-size="30" font-family="Asap-Bold, Asap" font-weight="700"><tspan x="-80.205" y="0">Hulp nodig?</tspan></text>
    </g>
  </g>
</svg>
