<?xml version="1.0" encoding="UTF-8"?>
<svg id="Layer_1" data-name="Layer 1" xmlns="http://www.w3.org/2000/svg" xmlns:xlink="http://www.w3.org/1999/xlink" viewBox="0 0 881 1080">
  <defs>
    <style>
      .cls-1 {
        fill: #cbcaca;
      }

      .cls-1, .cls-2, .cls-3, .cls-4, .cls-5, .cls-6, .cls-7, .cls-8, .cls-9, .cls-10, .cls-11, .cls-12, .cls-13 {
        stroke-width: 0px;
      }

      .cls-2 {
        fill: #dbe7f9;
      }

      .cls-3 {
        fill: #bbd25d;
      }

      .cls-14, .cls-5, .cls-15 {
        isolation: isolate;
      }

      .cls-5 {
        opacity: 1;
      }

      .cls-5, .cls-15 {
        fill: #ec671b;
      }

      .cls-6 {
        fill: none;
      }

      .cls-7 {
        fill: #e25f9f;
      }

      .cls-8 {
        fill: #a5549b;
      }

      .cls-9 {
        fill: #95b32a;
      }

      .cls-10 {
        fill: #acbd56;
      }

      .cls-11 {
        fill: #fff;
      }

      .cls-12 {
        fill: #9d9d9d;
      }

      .cls-15 {
        font-family: Asap-Bold, Asap;
        font-size: 72.13px;
        font-weight: 700;
      }

      .cls-16 {
        clip-path: url(#clippath);
      }

      .cls-13 {
        fill: #822584;
      }
    </style>
    <clipPath id="clippath">
      <rect class="cls-6" x=".17" y="62.7" width="884.83" height="1019.48"/>
    </clipPath>
  </defs>
  <g class="cls-16">
    <g id="Mask_Group_2" data-name="Mask Group 2">
      <path id="Path_831" data-name="Path 831" class="cls-5" d="m808.06,485.59c341.28,0,617.94,276.12,617.94,616.74s-276.66,616.74-617.94,616.74S190.12,1442.94,190.12,1102.32,466.78,485.59,808.06,485.59Z"/>
      <g id="Laag_2-2" data-name="Laag 2-2">
        <path id="R" class="cls-4" d="m641.26,627.5l32.87,29.6c4.39,3.95,9.09,7.53,14.07,10.7l10.36,6.59c1.05.67,2.45.35,3.11-.7.09-.15.17-.31.23-.48l10.92-31.93c1.39-4.06,2.51-8.2,3.34-12.41l9.52-47.9c.31-1.52,1.41-2.76,2.89-3.25,0,0,23.3-5.03,29.72-9.47s4.4-11.35-3.9-9.83c-5.87,1.78-11.62,3.97-17.19,6.54-1.8-.5-1.8-1.76-.63-3.49,0,0,17.5-11.01,21.69-16.37,3.77-4.83,1.11-10.82-5.94-7.77-5.89,2.55-20.46,15.56-20.46,15.56-1.92.67-2.77.1-2.04-2.26,0,0,8.42-15,10.03-20.46,3.46-11.69-3.97-14.67-10.44-5.31-4.86,7.02-13.71,31.31-13.71,31.31-.72,1.68-1.76,1.73-3.08,0-2.38-4.53-5.05-8.91-7.98-13.1-5.48-6.32-10.82-1.06-7.77,7.17,1.95,5.27,13.46,18.01,13.46,18.01,1.07,1.43,1.49,3.25,1.15,5l-15.44,80.12c-.13.67-.77,1.11-1.44.98-.2-.04-.39-.13-.55-.26l-50.4-41.81-2.38,15.2-.02.05Z"/>
        <path id="L" class="cls-4" d="m384.27,627.38l-67.68,77.3c-1.44.91-1.87,2.82-.96,4.26.24.39.57.71.96.96l70.59,46.36c8.97,12.86,18.18,19.43,27.84,12.5l3.17-39.19c-11.49-9.04-20.03-1.2-27.63,12.29l-56.72-34.41c-.75-.45-.99-1.43-.53-2.17.04-.07.09-.14.15-.21l55.25-63.91-4.45-13.75v-.02Z"/>
        <g id="Dop">
          <path id="Path_800" data-name="Path 800" class="cls-13" d="m405.48,329.54c7.95-3.53,16.21-6.31,24.67-8.32l113.08-8.92c1.9-.14,3.77-.65,5.67-.65,13.54.07,24.69-.1,36.86,3.37v-12.12c-10.07-12.26-25.58-17-43.91-17.79-35.32-2.04-70.76.02-105.6,6.13-1.2.22-2.38.7-3.61.89-6.92.96-23.06,11.61-28.59,20.92l1.39,16.52.02-.02Z"/>
          <path id="Path_801" data-name="Path 801" class="cls-8" d="m404.08,313c7.11-9.79,17.11-17.11,28.59-20.92,39.51-7.4,79.84-9.43,119.89-6.01,12.86,2.55,24.21,5.67,33.21,16.81v-10.44c-6.61-18.63-19.28-30.42-40.2-32.84-39.26-4.75-79.08-1.16-116.86,10.53-4.39,1.35-8.44,3.6-11.9,6.61-5.88,5.38-10.42,12.07-13.25,19.52-.9,2.16-1.19,4.52-.87,6.83,0,0,1.39,9.91,1.39,9.91Z"/>
        </g>
        <path id="Path_802" data-name="Path 802" class="cls-3" d="m397.3,671.52l237.9-5.22,21.95-140.13c.72-4.59,1.31-9.2,1.78-13.83l4.81-47.08c3.41-57.63-3.46-101.83-28.54-122.17-16.86-16.71-34.77-27.53-54.17-30.08-13.44-2.19-26.11-3.27-36.4-.84l-115.63,9.02c-49.96,13.46-76.7,44.41-86.08,85.72-3.92,17.97-4.28,36.54-1.06,54.65l1.73,10.15,5.79,28.49c.63,3.1,1.37,6.2,2.21,9.26l30.37,110.82,15.34,51.26v-.02Z"/>
        <g id="Tusenlijf">
          <path id="Path_803" data-name="Path 803" class="cls-1" d="m415.41,692.25l.05,10.56,97.48-13.37-20.17-6.25-77.35,9.06Z"/>
          <path id="Path_804" data-name="Path 804" class="cls-10" d="m416.51,716.44l211.86-31.95,3.15,23.56-215,40.2v-31.81Z"/>
          <path id="Path_805" data-name="Path 805" class="cls-9" d="m397.3,671.52l237.9-5.22c.29,8.15-1.27,13.71-6.44,14.11v3.13c0,1.73-1.39,1.61-3.1,1.88l-209.11,32.77c-.97.15-1.88-.52-2.02-1.49-.01-.08-.02-.16-.02-.24-.03-3.76-.3-7.51-.82-11.23-.16-1.16.64-2.23,1.8-2.4l92.35-13.49-89.04,2.93c-2.98.13-5.94-.56-8.56-2-8.82-4.91-13.22-11.13-12.91-18.75h-.02Z"/>
        </g>
        <g id="Onderlijf">
          <path id="Path_806" data-name="Path 806" class="cls-8" d="m413.27,751.95c-2.77-8.03-.24-11.81,8.3-10.75l209.04-34.38c4.14-1.06,7.72-.19,9.52,6.56l8.58,48.67c1.25,6.06,1.06,11.52-1.54,15.97-8.46,25.22-26.02,59.03-45.37,94.35l-104.14,14.28-48.26-49.07c-4.64-4.72-8.95-9.76-12.89-15.08l-6.52-8.82c-1.68-2.26-3.49-4.42-5.27-6.61-3.94-4.86-6.95-12.12-8.22-23.85l-3.25-31.31v.05Z"/>
          <path id="Path_807" data-name="Path 807" class="cls-13" d="m421.56,741.21c74.39-2.89,144.34-13.83,209.04-34.38,0,0-209.04,34.38-209.04,34.38Z"/>
          <path id="Path_808" data-name="Path 808" class="cls-13" d="m426.78,784.77c77.88,2.72,146.65-10.72,208.44-36.52l-208.44,36.52Z"/>
          <path id="Path_809" data-name="Path 809" class="cls-13" d="m469.12,843.11c52.37,4.86,100.41-2.55,144.58-20.87l-144.58,20.87h0Z"/>
        </g>
        <g id="Pen_punt" data-name="Pen punt">
          <path id="Path_810" data-name="Path 810" class="cls-3" d="m497.37,886.39l13.8,12.89,80.77-10.05,10.1-17.26-104.67,14.43Z"/>
          <path id="Path_811" data-name="Path 811" class="cls-9" d="m511.17,899.27l13.3,10.51,58.28-7.89,9.76-13.66-81.34,11.04Z"/>
          <path id="Path_812" data-name="Path 812" class="cls-12" d="m524.01,909.4l7.45,10.41,44.63-7.19,7.21-11.49-59.29,8.27Z"/>
          <path id="Path_813" data-name="Path 813" class="cls-1" d="m530.99,919.23l13.97,17.19,21.16-2.77,10.44-21.78-45.56,7.36Z"/>
          <path id="Path_814" data-name="Path 814" class="cls-4" d="m544.96,936.42c7.33,4.35,14.52,6.44,21.18-2.77l-21.18,2.77Z"/>
        </g>
        <g id="Wenkies">
          <path id="Path_815" data-name="Path 815" class="cls-4" d="m385.78,393.26c28.08-39.91,74.75-53.72,92.69-22.27-29.74-17.19-60.81-6.3-92.69,22.27Z"/>
          <path id="Path_816" data-name="Path 816" class="cls-4" d="m521.61,369.34c35.08-29.14,70.14-13.8,103.29,26.71-30.22-31.35-64.92-38.74-103.29-26.71Z"/>
        </g>
        <g id="R_oog" data-name="R oog">
          <g id="Wit_oog" data-name="Wit oog">
            <path id="Path_817" data-name="Path 817" class="cls-11" d="m618.73,485.66c-.18,10.24-4.41,19.99-11.76,27.12-9.82,9.66-23.07,15.03-36.84,14.93-12.03-.33-23.73-3.92-33.88-10.39-10.07-6.28-13.87-19.16-13.87-30.97,0-22.84,23.11-54.15,49.46-54.15,12.18.08,23.75,5.34,31.83,14.45,9.35,10.88,14.66,24.66,15.03,39h.02Z"/>
          </g>
          <ellipse id="Ellipse_86" data-name="Ellipse 86" class="cls-4" cx="561.45" cy="489.58" rx="19.26" ry="21.4"/>
          <path id="Path_818" data-name="Path 818" class="cls-4" d="m522.33,484.58c-1.64-90.24,102.28-84.3,96.27-2.07-7.05-66.12-81.53-67.01-96.27,2.07Z"/>
          <g id="R_Wimpers" data-name="R Wimpers">
            <path id="Path_819" data-name="Path 819" class="cls-4" d="m600.62,429.9c2.81-4.6,5.28-9.4,7.41-14.35.59-2.68.59-5.45,0-8.13-1.66-5.29-7.21-4.47-8.3,1.37-.96,5.19.89,21.09.89,21.09v.02Z"/>
            <path id="Path_820" data-name="Path 820" class="cls-4" d="m608.8,438.68s15.48-9.47,17.96-14.74c3.05-6.47-3.41-10.65-7.67-5.67-3.73,4.33-10.29,20.41-10.29,20.41Z"/>
            <path id="Path_821" data-name="Path 821" class="cls-4" d="m614.93,448.66s16.3.34,20.56-2.91c5.55-4.26.89-10.84-5.36-8.58-4.5,1.61-15.2,11.52-15.2,11.52v-.02Z"/>
          </g>
        </g>
        <g id="L_oog" data-name="L oog">
          <g id="Wit_oog-2" data-name="Wit oog-2">
            <path id="Path_822" data-name="Path 822" class="cls-11" d="m492.61,491.19c.07,10.63-1.56,16.25-7.53,24.26-8.73,11.69-24.72,16.28-40.3,15.65-15.58-.63-29.5-5.79-38.3-17.05-7.17-8.6-10.99-19.51-10.75-30.7.14-26.4,22.63-47.87,49.03-47.87s47.66,29.6,47.8,55.71h.05Z"/>
            <ellipse id="Ellipse_87" data-name="Ellipse 87" class="cls-11" cx="446.04" cy="481.31" rx="38.13" ry="39.7"/>
          </g>
          <path id="Path_823" data-name="Path 823" class="cls-4" d="m395.76,483.35c.91-76.89,88.7-81.65,96.85,2.31-20.56-66.77-82.74-63.55-96.85-2.31Z"/>
          <g id="L_Wimpers" data-name="L Wimpers">
            <path id="Path_824" data-name="Path 824" class="cls-4" d="m410.5,438.7s-.05-16.25-2.77-20.73c-2.98-4.93-9.33-1.92-7.98,3.85,1.15,4.88,10.75,16.88,10.75,16.88Z"/>
            <path id="Path_825" data-name="Path 825" class="cls-4" d="m403.74,448.68s-8.82-15.73-13.66-19.02c-4.59-3.13-10.17,1.8-6.44,7.07,3.39,4.76,20.1,11.97,20.1,11.97v-.02Z"/>
            <path id="Path_826" data-name="Path 826" class="cls-4" d="m398.84,459.26s-13.2-7.57-18.11-7.67c-5.51-.12-6.73,6.92-1.08,8.9,4.54,1.56,19.19-1.23,19.19-1.23Z"/>
          </g>
          <ellipse id="Ellipse_88" data-name="Ellipse 88" class="cls-4" cx="455.25" cy="494.17" rx="19.26" ry="21.26"/>
        </g>
        <g id="Mond">
          <path id="Path_827" data-name="Path 827" class="cls-4" d="m455.78,560.56c9.98,61.7,98.08,66.82,102.67,0,1.59-7.93,1.11-9.95-7.07-8.13-25.49,38.69-68.29,26.23-87.33-.63-6.18-.75-8.73,1.11-8.3,8.75h.02Z"/>
          <path id="Path_828" data-name="Path 828" class="cls-11" d="m464.07,551.81c11.61,15.73,27.63,25.17,47.27,25.1,16.68-.71,31.82-9.96,40.06-24.48-28.25,12.48-60.01,10.12-87.33-.63Z"/>
          <path id="Path_829" data-name="Path 829" class="cls-7" d="m462.46,580.13c11,20.17,33.35,31.39,56.1,28.16-11.73-20.46-29.65-31.47-56.1-28.16Z"/>
        </g>
      </g>
    </g>
  </g>
  <g id="Group_225" data-name="Group 225">
    <path id="Polygon_1" data-name="Polygon 1" class="cls-2" d="m387.5,240.76l-64.32-50.47,75.52-30.51-11.2,80.99Z"/>
    <g id="Group_130" data-name="Group 130">
      <rect id="Rectangle_274" data-name="Rectangle 274" class="cls-2" x="269.97" y="35.06" width="447.23" height="161.1" rx="79.35" ry="79.35"/>
      <g id="Hulp_nodig_" data-name="Hulp nodig " class="cls-14">
        <text class="cls-15" transform="translate(300.74 140.86)"><tspan x="0" y="0">Hulp nodig?</tspan></text>
      </g>
    </g>
  </g>
</svg>