<?xml version="1.0" encoding="utf-8"?>
<!-- Generator: Adobe Illustrator 28.0.0, SVG Export Plug-In . SVG Version: 6.00 Build 0)  -->
<svg version="1.1" id="Livello_1" xmlns="http://www.w3.org/2000/svg" xmlns:xlink="http://www.w3.org/1999/xlink" x="0px" y="0px"
	 viewBox="0 0 128 128" style="enable-background:new 0 0 128 128;" xml:space="preserve">
<style type="text/css">
	.st0{fill:#941C81;stroke:#941C81;stroke-width:5;stroke-miterlimit:10;}
</style>
<path class="st0" d="M66.86,42.38c-12.54,0-22.71,10.17-22.71,22.71S54.32,87.8,66.86,87.8s22.71-10.17,22.71-22.71
	S79.4,42.38,66.86,42.38z M66.86,82.35c-9.53,0-17.26-7.73-17.26-17.26s7.73-17.26,17.26-17.26s17.26,7.73,17.26,17.26
	S76.39,82.35,66.86,82.35z"/>
<path class="st0" d="M118.64,50.56h-8.11c-0.39,0-0.73-0.25-0.85-0.62c-0.53-1.5-1.13-2.97-1.82-4.41
	c-0.17-0.35-0.11-0.77,0.16-1.04l5.73-5.74c2.48-2.48,2.48-6.51,0-8.99c0,0,0,0,0,0L102.19,18.2c-2.48-2.48-6.51-2.48-8.99,0
	c0,0,0,0,0,0l-5.73,5.73c-0.28,0.27-0.7,0.34-1.04,0.16c-1.44-0.68-2.91-1.29-4.41-1.82c-0.37-0.12-0.61-0.47-0.62-0.85v-8.11
	c0-3.51-2.85-6.36-6.36-6.36H58.68c-3.51,0-6.36,2.85-6.36,6.36v8.11c0,0.39-0.25,0.73-0.62,0.85c-1.5,0.53-2.97,1.13-4.41,1.82
	c-0.35,0.17-0.77,0.11-1.04-0.16l-5.74-5.73c-2.48-2.48-6.51-2.48-8.99,0c0,0,0,0,0,0L19.97,29.76c-2.48,2.48-2.48,6.51,0,8.99
	c0,0,0,0,0,0l5.73,5.73c0.27,0.28,0.34,0.7,0.16,1.04c-0.68,1.44-1.29,2.91-1.82,4.41c-0.12,0.37-0.47,0.61-0.85,0.62h-8.11
	c-3.51,0-6.36,2.85-6.36,6.36v16.35c0,3.51,2.85,6.36,6.36,6.36h8.11c0.39,0,0.73,0.25,0.85,0.62c0.53,1.5,1.13,2.97,1.82,4.41
	c0.17,0.35,0.11,0.77-0.16,1.04l-5.73,5.74c-2.48,2.48-2.48,6.51,0,8.99c0,0,0,0,0,0l11.56,11.56c2.48,2.48,6.51,2.48,8.99,0
	c0,0,0,0,0,0l5.73-5.73c0.28-0.27,0.7-0.34,1.04-0.16c1.44,0.68,2.91,1.29,4.41,1.82c0.37,0.12,0.61,0.47,0.62,0.85v8.1
	c0,3.51,2.85,6.36,6.36,6.36l0,0h16.35c3.51,0,6.36-2.85,6.36-6.36l0,0v-8.11c0-0.39,0.25-0.73,0.62-0.85
	c1.5-0.53,2.97-1.13,4.41-1.82c0.35-0.17,0.77-0.11,1.04,0.16l5.74,5.73c2.48,2.48,6.51,2.48,8.99,0c0,0,0,0,0,0l11.56-11.56
	c2.48-2.48,2.48-6.51,0-8.99c0,0,0,0,0,0l-5.73-5.73c-0.27-0.28-0.34-0.7-0.16-1.04c0.68-1.44,1.29-2.91,1.82-4.41
	c0.12-0.37,0.47-0.61,0.85-0.62h8.1c3.51,0,6.36-2.85,6.36-6.36V56.91C125,53.4,122.15,50.56,118.64,50.56z M119.55,73.27
	c0,0.5-0.41,0.91-0.91,0.91h-8.11c-2.7,0-5.1,1.71-6,4.26c-0.46,1.32-1,2.61-1.6,3.87c-1.18,2.44-0.69,5.35,1.23,7.27l5.73,5.73
	c0.35,0.35,0.35,0.93,0,1.28l-11.56,11.55c-0.35,0.35-0.93,0.35-1.28,0l-5.73-5.73c-1.91-1.91-4.83-2.41-7.27-1.23
	c-1.26,0.6-2.56,1.13-3.88,1.6c-2.55,0.89-4.25,3.3-4.25,6v8.1c0,0.5-0.41,0.91-0.91,0.91H58.68c-0.5,0-0.91-0.41-0.91-0.91v-8.11
	c0-2.7-1.71-5.1-4.26-6c-1.32-0.46-2.61-1-3.87-1.6c-2.44-1.18-5.35-0.69-7.27,1.23l-5.73,5.73c-0.35,0.35-0.93,0.35-1.28,0
	L23.82,96.57c-0.35-0.35-0.35-0.93,0-1.28l5.73-5.73c1.91-1.91,2.41-4.83,1.23-7.27c-0.6-1.26-1.13-2.56-1.6-3.88
	c-0.9-2.54-3.3-4.23-5.99-4.23h-8.11c-0.5,0-0.91-0.41-0.91-0.91V56.91c0-0.5,0.41-0.91,0.91-0.91h8.11c2.7,0,5.1-1.71,6-4.26
	c0.46-1.32,1-2.61,1.6-3.87c1.18-2.44,0.69-5.35-1.23-7.27l-5.73-5.73c-0.35-0.35-0.35-0.93,0-1.28l11.56-11.55
	c0.35-0.35,0.93-0.35,1.28,0l5.73,5.73c1.91,1.91,4.83,2.41,7.27,1.23c1.26-0.6,2.56-1.13,3.88-1.6c2.54-0.9,4.23-3.3,4.23-5.99
	v-8.11c0-0.5,0.41-0.91,0.91-0.91h16.35c0.5,0,0.91,0.41,0.91,0.91v8.11c0,2.7,1.71,5.1,4.26,6c1.32,0.46,2.61,1,3.87,1.6
	c2.44,1.18,5.35,0.69,7.27-1.23l5.73-5.73c0.35-0.35,0.93-0.35,1.28,0l11.56,11.56c0.35,0.35,0.35,0.93,0,1.28l-5.73,5.73
	c-1.91,1.91-2.41,4.83-1.23,7.27c0.6,1.26,1.13,2.56,1.6,3.88c0.89,2.55,3.3,4.25,6,4.25h8.09c0.5,0,0.91,0.41,0.91,0.91V73.27z"/>
</svg>
