<svg xmlns="http://www.w3.org/2000/svg" width="80.731" height="80.731" viewBox="0 0 80.731 80.731">
  <g id="_1904675-configuration-edit-gear-options-preferences-setting-settings_122525" data-name="1904675-configuration-edit-gear-options-preferences-setting-settings_122525" transform="translate(1 1)">
    <path id="Path_281" data-name="Path 281" d="M54.377,39A15.377,15.377,0,1,0,69.754,54.377,15.377,15.377,0,0,0,54.377,39Zm0,27.064A11.687,11.687,0,1,1,66.064,54.377,11.687,11.687,0,0,1,54.377,66.064Z" transform="translate(-15.012 -15.012)" stroke="#000" stroke-width="2"/>
    <path id="Path_282" data-name="Path 282" d="M74.425,29.524H68.933a.615.615,0,0,1-.578-.418,30.691,30.691,0,0,0-1.23-2.983.615.615,0,0,1,.111-.707l3.881-3.887a4.306,4.306,0,0,0,0-6.089l-7.83-7.824a4.306,4.306,0,0,0-6.089,0L53.316,11.5a.615.615,0,0,1-.707.111,30.606,30.606,0,0,0-2.983-1.23.615.615,0,0,1-.418-.578V4.306A4.306,4.306,0,0,0,44.9,0H33.83a4.306,4.306,0,0,0-4.306,4.306V9.8a.615.615,0,0,1-.418.578,30.693,30.693,0,0,0-2.983,1.23.615.615,0,0,1-.707-.111L21.528,7.615a4.306,4.306,0,0,0-6.089,0l-7.824,7.83a4.306,4.306,0,0,0,0,6.089L11.5,25.415a.615.615,0,0,1,.111.707,30.607,30.607,0,0,0-1.23,2.983.615.615,0,0,1-.578.418H4.306A4.306,4.306,0,0,0,0,33.83V44.9a4.306,4.306,0,0,0,4.306,4.306H9.8a.615.615,0,0,1,.578.418,30.694,30.694,0,0,0,1.23,2.983.615.615,0,0,1-.111.707L7.615,57.2a4.306,4.306,0,0,0,0,6.089l7.83,7.83a4.306,4.306,0,0,0,6.089,0l3.881-3.881a.615.615,0,0,1,.707-.111,30.609,30.609,0,0,0,2.983,1.23.615.615,0,0,1,.418.578v5.487a4.306,4.306,0,0,0,4.306,4.306H44.9a4.306,4.306,0,0,0,4.306-4.306V68.933a.615.615,0,0,1,.418-.578,30.691,30.691,0,0,0,2.983-1.23.615.615,0,0,1,.707.111L57.2,71.116a4.306,4.306,0,0,0,6.089,0l7.83-7.83a4.306,4.306,0,0,0,0-6.089l-3.881-3.881a.615.615,0,0,1-.111-.707,30.609,30.609,0,0,0,1.23-2.983.615.615,0,0,1,.578-.418h5.487A4.306,4.306,0,0,0,78.731,44.9V33.83a4.306,4.306,0,0,0-4.306-4.306ZM75.04,44.9a.615.615,0,0,1-.615.615H68.933a4.306,4.306,0,0,0-4.06,2.885,27,27,0,0,1-1.083,2.62,4.306,4.306,0,0,0,.83,4.921L68.5,59.823a.615.615,0,0,1,0,.867l-7.824,7.818a.615.615,0,0,1-.867,0L55.93,64.627a4.306,4.306,0,0,0-4.921-.83,26.992,26.992,0,0,1-2.626,1.083,4.306,4.306,0,0,0-2.879,4.06v5.487a.615.615,0,0,1-.615.615H33.83a.615.615,0,0,1-.615-.615V68.933a4.306,4.306,0,0,0-2.885-4.06,27,27,0,0,1-2.62-1.083,4.306,4.306,0,0,0-4.921.83L18.908,68.5a.615.615,0,0,1-.867,0l-7.818-7.824a.615.615,0,0,1,0-.867L14.1,55.93a4.306,4.306,0,0,0,.83-4.921,26.988,26.988,0,0,1-1.083-2.626A4.306,4.306,0,0,0,9.8,45.516H4.306a.615.615,0,0,1-.615-.615V33.83a.615.615,0,0,1,.615-.615H9.8a4.306,4.306,0,0,0,4.06-2.885,27,27,0,0,1,1.083-2.62,4.306,4.306,0,0,0-.83-4.921l-3.881-3.881a.615.615,0,0,1,0-.867l7.824-7.818a.615.615,0,0,1,.867,0L22.8,14.1a4.306,4.306,0,0,0,4.921.83,26.99,26.99,0,0,1,2.626-1.083A4.306,4.306,0,0,0,33.215,9.8V4.306a.615.615,0,0,1,.615-.615H44.9a.615.615,0,0,1,.615.615V9.8a4.306,4.306,0,0,0,2.885,4.06,27,27,0,0,1,2.62,1.083,4.306,4.306,0,0,0,4.921-.83l3.881-3.881a.615.615,0,0,1,.867,0l7.83,7.83a.615.615,0,0,1,0,.867l-3.881,3.881a4.306,4.306,0,0,0-.83,4.921,26.992,26.992,0,0,1,1.083,2.626,4.306,4.306,0,0,0,4.06,2.879h5.474a.615.615,0,0,1,.615.615Z" stroke="#000" stroke-width="2"/>
  </g>
</svg>
