<svg xmlns="http://www.w3.org/2000/svg" width="148.795" height="71.716" viewBox="0 0 148.795 71.716">
  <path id="Path_849" data-name="Path 849" d="M35.858,0A35.868,35.868,0,0,1,71.716,35.877v77.041a35.858,35.858,0,1,1-71.716,0V35.877A35.868,35.868,0,0,1,35.858,0Z" transform="translate(148.795) rotate(90)" fill="#02b7df"/>
  <g id="Group_219" data-name="Group 219" transform="translate(-3903.102 7203.69)">
    <rect id="Rectangle_404" data-name="Rectangle 404" width="119" height="26" transform="translate(3918 -7170)" fill="#c7057f"/>
    <path id="Path_746" data-name="Path 746" d="M3893.431-7157v9.052" transform="translate(30 -13)" fill="none" stroke="#fff" stroke-width="3"/>
    <path id="Path_747" data-name="Path 747" d="M3893.431-7157v9.052" transform="translate(57 -13)" fill="none" stroke="#fff" stroke-width="3"/>
    <path id="Path_748" data-name="Path 748" d="M3893.431-7157v9.052" transform="translate(84 -13)" fill="none" stroke="#fff" stroke-width="3"/>
    <path id="Path_749" data-name="Path 749" d="M3893.431-7157v9.052" transform="translate(111 -13)" fill="none" stroke="#fff" stroke-width="3"/>
    <path id="Path_750" data-name="Path 750" d="M3893.431-7157v13" transform="translate(39 -13)" fill="none" stroke="#fff" stroke-width="3"/>
    <path id="Path_751" data-name="Path 751" d="M3893.431-7157v13" transform="translate(93 -13)" fill="none" stroke="#fff" stroke-width="3"/>
    <path id="Path_752" data-name="Path 752" d="M3893.431-7157v13" transform="translate(66 -13)" fill="none" stroke="#fff" stroke-width="3"/>
    <path id="Path_754" data-name="Path 754" d="M3893.431-7157v6.5" transform="translate(48 -13)" fill="none" stroke="#fff" stroke-width="3"/>
    <path id="Path_755" data-name="Path 755" d="M3893.431-7157v6.5" transform="translate(75 -13)" fill="none" stroke="#fff" stroke-width="3"/>
    <path id="Path_756" data-name="Path 756" d="M3893.431-7157v6.5" transform="translate(102 -13)" fill="none" stroke="#fff" stroke-width="3"/>
    <path id="Path_757" data-name="Path 757" d="M3893.431-7157v9.052" transform="translate(138 -13)" fill="none" stroke="#fff" stroke-width="3"/>
    <path id="Path_758" data-name="Path 758" d="M3893.431-7157v13" transform="translate(120 -13)" fill="none" stroke="#fff" stroke-width="3"/>
    <path id="Path_760" data-name="Path 760" d="M3893.431-7157v6.5" transform="translate(129 -13)" fill="none" stroke="#fff" stroke-width="3"/>
    <text id="A_B_C" data-name="A B C" transform="translate(3950.431 -7175)" font-size="23" font-family="Asap-Bold, Asap" font-weight="700"><tspan x="0" y="0">A B C</tspan></text>
  </g>
</svg>
