<?xml version="1.0" encoding="utf-8"?>
<!-- Generator: Adobe Illustrator 28.0.0, SVG Export Plug-In . SVG Version: 6.00 Build 0)  -->
<svg version="1.1" id="Layer_1" xmlns="http://www.w3.org/2000/svg" xmlns:xlink="http://www.w3.org/1999/xlink" x="0px" y="0px"
	 viewBox="0 0 595.28 841.89" style="enable-background:new 0 0 595.28 841.89;" xml:space="preserve">
<style type="text/css">
	.st0{fill:#DFDFDE;}
	.st1{fill:#717070;}
	.st2{font-family:'ArialMT';}
	.st3{font-size:49px;}
	.st4{fill:none;}
</style>
<g id="Group_279" transform="translate(-823 -66)">
	<path id="Rectangle_17" class="st0" d="M1027.5,453.54h187c3.31,0,6,2.69,6,6v54c0,3.31-2.69,6-6,6h-187c-3.31,0-6-2.69-6-6v-54
		C1021.5,456.23,1024.19,453.54,1027.5,453.54z"/>
	<text transform="matrix(1 0 0 1 1053.5 503.5449)" class="st1 st2 st3">Arial</text>
	<g id="Polygon_1" transform="translate(1007 116) rotate(-180)">
		<path class="st4" d="M-183.38-380.71c1.93-2.7,5.67-3.32,8.37-1.4c0.54,0.38,1.01,0.86,1.4,1.4l8.34,11.68
			c1.93,2.7,1.3,6.44-1.39,8.37c-1.02,0.73-2.24,1.12-3.49,1.12h-16.68c-3.31,0-6-2.69-6-6c0-1.25,0.39-2.47,1.12-3.49
			L-183.38-380.71z"/>
		<path class="st1" d="M-178.5-380.22c-0.98,0-1.87,0.46-2.44,1.26l-8.34,11.68c-0.67,0.93-0.75,2.1-0.23,3.12
			c0.52,1.02,1.52,1.63,2.67,1.63h16.68c1.15,0,2.14-0.61,2.67-1.63c0.52-1.02,0.44-2.18-0.23-3.12l-8.34-11.68
			C-176.63-379.76-177.52-380.22-178.5-380.22 M-178.5-383.22c1.84,0,3.69,0.84,4.88,2.51l8.34,11.68c2.84,3.97,0,9.49-4.88,9.49
			h-16.68c-4.88,0-7.72-5.52-4.88-9.49l8.34-11.68C-182.19-382.38-180.34-383.22-178.5-383.22z"/>
	</g>
</g>
</svg>
