<?xml version="1.0" encoding="UTF-8"?><svg id="Laag_2" xmlns="http://www.w3.org/2000/svg" viewBox="0 0 740.9 83.1"><defs><style>.cls-1{fill:#951b81;}.cls-1,.cls-2,.cls-3,.cls-4,.cls-5,.cls-6,.cls-7{stroke-width:0px;}.cls-2{fill:#76b82a;}.cls-3{fill:#f39200;}.cls-4{fill:#00b8e0;}.cls-5{fill:#ec6608;}.cls-6{fill:#c7017f;}.cls-7{fill:#50af47;}</style></defs><g id="Laag_1-2"><g id="Layer_1"><path class="cls-3" d="m0,9.6C0,4,3.6.8,8.5.8c2.1,0,5.6,1.7,7.1,3.7l35.7,47.7h.2V9.6c0-5.6,3.6-8.8,8.5-8.8s8.5,3.2,8.5,8.8v64c0,5.6-3.6,8.8-8.5,8.8-2.1,0-5.5-1.7-7.1-3.7L17.2,31.6h-.2v42c0,5.6-3.6,8.8-8.5,8.8s-8.5-3.2-8.5-8.8V9.6Z"/><path class="cls-2" d="m77.9,9.6c0-5.6,3.6-8.8,8.5-8.8s8.5,3.2,8.5,8.8v64c0,5.6-3.6,8.8-8.5,8.8s-8.5-3.2-8.5-8.8V9.6Z"/><path class="cls-4" d="m105,11.2c0-5.6,2.8-9.8,8.8-9.8h28c5.4,0,8,3.8,8,7.8s-2.7,7.8-8,7.8h-19.8v16.5h18.5c5.5,0,8.2,3.8,8.2,7.8s-2.8,7.8-8.2,7.8h-18.5v17.1h20.7c5.4,0,8,3.8,8,7.8s-2.7,7.8-8,7.8h-29c-5,0-8.7-3.4-8.7-8.5V11.2Z"/><path class="cls-5" d="m156.5,9.6c0-5.6,3.6-8.8,8.5-8.8s8.5,3.2,8.5,8.8v39.3c0,10.4,6.7,18.6,17.4,18.6s17.2-8.7,17.2-18.6V9.6c0-5.6,3.6-8.8,8.5-8.8s8.5,3.2,8.5,8.8v40.2c0,18.9-15.6,33.3-34.2,33.3s-34.3-14.1-34.3-33.3V9.6h-.1Z"/><path class="cls-6" d="m230.7,12c-.3-1.5-.5-2.3-.5-3.8,0-3.6,3-7.4,8-7.4,5.4,0,8,3.2,9,8.1l9.6,47.9h.2l14.7-49.4c1.2-4.1,4.6-6.7,8.8-6.7s7.6,2.6,8.8,6.7l14.7,49.4h.2l9.6-47.9c1-5,3.6-8.1,9-8.1,5,0,8,3.8,8,7.4,0,1.6-.1,2.4-.5,3.8l-14.3,61.5c-1.1,4.7-4.8,8.8-11.2,8.8-5.5,0-9.8-3.6-11.2-8.2l-13.1-43.5h-.2l-13.1,43.5c-1.4,4.6-5.6,8.2-11.2,8.2-6.3,0-10-4.1-11.2-8.8l-14.1-61.5Z"/><path class="cls-7" d="m384.2,11.4c0,4.4-2.9,8.3-7.6,8.3s-8.2-3.4-15-3.4c-4.8,0-9.2,2.6-9.2,7.3,0,11.6,37.6,4.2,37.6,33.3,0,16.1-13.3,26.1-28.8,26.1-8.7,0-27.4-2-27.4-12.6,0-4.4,2.9-8,7.6-8,5.3,0,11.6,4.4,18.9,4.4s11.5-4.2,11.5-9.7c0-13.3-37.6-5.3-37.6-31.4,0-15.8,13-25.6,28-25.6,6.2,0,22,2.4,22,11.3Z"/><path class="cls-1" d="m397.3,9.9c0-5.4,3.7-8.5,8.9-8.5h21.6c11.7,0,21.2,7.9,21.2,19.8,0,7.9-3.3,13.2-10.5,16.6v.2c9.6,1.4,17.1,9.4,17.1,19.2,0,15.9-10.6,24.5-26.2,24.5h-23.2c-5.2,0-9-3.3-9-8.6V9.9h.1Zm16.9,23.3h8.8c5.5,0,9.1-3.3,9.1-8.9,0-5.3-4.2-8-9.1-8h-8.8v16.9Zm0,33.6h13.3c6.1,0,10.6-3.5,10.6-9.8,0-5.3-4.1-8.9-11.9-8.9h-11.9v18.7h-.1Z"/><path class="cls-1" d="m462,11.2c0-5.6,2.8-9.8,8.8-9.8h28c5.4,0,8,3.8,8,7.8s-2.7,7.8-8,7.8h-19.8v16.5h18.5c5.5,0,8.2,3.8,8.2,7.8s-2.8,7.8-8.2,7.8h-18.5v17.1h20.7c5.4,0,8,3.8,8,7.8s-2.7,7.8-8,7.8h-29.1c-5,0-8.7-3.4-8.7-8.5V11.2h.1Z"/><path class="cls-1" d="m576.6,34.1c7.1,0,9.9,3.6,9.9,10.8,0,21.8-14.2,38.1-36.7,38.1s-38.8-18.1-38.8-41.5S526.8,0,549.8,0c17,0,31,8,31,15.9,0,4.8-3,7.9-7,7.9-7.7,0-9.2-8.2-24-8.2s-21.2,12.3-21.2,25.9,6.9,25.9,21.2,25.9c8.9,0,19.2-5,19.2-17.8h-11.5c-4.6,0-7.9-3.3-7.9-7.9s3.6-7.7,7.9-7.7h19.1v.1Z"/><path class="cls-1" d="m593.5,10.2c0-5.4,3-8.8,8.7-8.8h19.8c17.4,0,28.1,7.8,28.1,25.5,0,12.4-9.4,19.5-20.9,21.3l19.2,20.5c1.6,1.7,2.3,3.4,2.3,5,0,4.4-3.5,8.7-8.5,8.7-2,0-4.7-.8-6.5-2.9l-25-30.3h-.2v24.5c0,5.6-3.6,8.8-8.5,8.8s-8.5-3.2-8.5-8.8V10.2h0Zm16.9,26.7h11.6c6.2,0,10.5-3.7,10.5-10s-4.3-9.9-10.5-9.9h-11.6v19.9Z"/><path class="cls-1" d="m683.2,10.2c0-5.3,3.2-8.8,8.8-8.8h20c16.6,0,28.9,10.8,28.9,26.9s-12.7,26.7-28.2,26.7h-12.5v18.5c0,5.6-3.6,8.8-8.5,8.8s-8.5-3.2-8.5-8.8V10.2h0Zm16.9,30h11.5c7.1,0,11.6-5.2,11.6-11.9s-4.5-11.9-11.6-11.9h-11.5v23.8Z"/><path class="cls-1" d="m673.1,61.1V9.6c0-5.6-3.6-8.8-8.5-8.8s-8.5,3.2-8.5,8.8v51.6h17v-.1Z"/><path class="cls-1" d="m655.8,73.9c0-2.5.9-4.5,2.6-6.1,1.7-1.6,3.9-2.4,6.4-2.4s4.6.8,6.3,2.4c1.8,1.6,2.6,3.7,2.6,6.1s-.9,4.5-2.6,6.1c-1.8,1.6-3.9,2.5-6.3,2.5s-4.6-.8-6.3-2.5c-1.8-1.6-2.7-3.7-2.7-6.1Z"/></g></g></svg>