<?xml version="1.0" encoding="UTF-8"?><svg id="Laag_2" xmlns="http://www.w3.org/2000/svg" viewBox="0 0 210.02 172.97"><defs><style>.cls-1{fill:#93b228;}.cls-1,.cls-2,.cls-3,.cls-4,.cls-5,.cls-6,.cls-7,.cls-8,.cls-9,.cls-10,.cls-11,.cls-12,.cls-13,.cls-14,.cls-15,.cls-16,.cls-17,.cls-18,.cls-19{stroke-width:0px;}.cls-2{fill:#e05d9e;}.cls-3{fill:#1973b6;}.cls-5{fill:#b4ce4d;}.cls-6{fill:#91398d;}.cls-7{fill:#d15e9b;}.cls-8{fill:#a5549b;}.cls-9{fill:#d670a8;}.cls-10{fill:#e9903b;}.cls-11{fill:#e36da7;}.cls-12{fill:#fff;}.cls-13{fill:#92b323;}.cls-14{fill:#e58bb8;}.cls-15{fill:#f4c835;}.cls-16{fill:#cecdcc;}.cls-17{fill:#f4f1ea;}.cls-18{fill:#9c4794;}.cls-19{fill:#792779;}</style></defs><g id="Laag_7"><g id="P_M_Puzzel"><g id="Boekje"><g id="Linker_arm"><polygon class="cls-15" points="119.35 46.37 115.71 31.2 138.25 41.43 137.57 46.2 119.35 46.37"/><polygon class="cls-10" points="117.82 73.26 137.57 46.2 119.35 46.37 101.99 74.28 117.82 73.26"/><polygon class="cls-15" points="125.85 85.25 101.99 74.28 117.82 73.26 130.89 77.5 125.85 85.25"/></g><path class="cls-18" d="m142.87,163.79l-.68.11c-1.61.52-22.96-23.89-27.7-35.97-1.11-41.75,35.81-82.34,64.11-81.7,1.52-3.16,5.08-3.8,6.11-1.55l17.8,28.92c-3.48-2.13-7.74-.8-13.34,2.61-29.83,27.2-46.3,87.57-46.3,87.57Z"/><g id="Rechter_been"><polygon class="cls-13" points="134.1 167.48 134.1 155.86 142.18 163.9 139.33 165.37 134.1 167.48"/></g><g id="Linker_been"><polygon class="cls-3" points="126.08 169.6 125.61 145.69 134.1 155.86 134.1 167.48 126.08 169.6"/></g><path class="cls-17" d="m146.8,163.14l18.05-4.09,17.14-37.39,21.59-26.61c13.31-11.7-2.07-27.47-14.61-18.21-29.54,25.95-44.42,54.57-42.17,86.3Z"/><path class="cls-19" d="m181.59,125.57c6.94-10.31,14.58-20.25,22.91-29.84,12.26-2.17,2.3-31.5-12.38-21.45l-13.42-22.72-1.64,1.4,12.38,22.22c-38.04,35.86-44.22,54.88-47.26,88.71l4.62-.77c2.94-47.49,21.83-64.98,43.53-86.3,14.81-10.09,23.81,14.55,12,17.49-8.74,9.09-16.13,18.83-22.56,29.03l1.82,2.21Z"/><path class="cls-19" d="m203.58,74.07l-18.22-30.24c-.35-.57-.91-1-1.55-1.16-2.31-.59-3.62.62-4.59,2.55,2.35-1.38,3.84-2.26,4.75-.8l18.19,28.77,1.43.89Z"/><g id="Rechter_arn"><polygon class="cls-11" points="184.21 128.75 170.76 112.41 161.74 125.35 173.58 137.44 184.21 128.75"/><polygon class="cls-14" points="156.29 151.56 184.21 128.75 185.57 140.16 168.06 155.86 156.29 151.56"/><polygon class="cls-11" points="173.41 172.97 157.82 166.54 156.29 151.56 172.12 157.35 173.41 172.97"/></g><path class="cls-3" d="m113.31,30.08l25.96,12.42,4.72-9.96c8.68,14.81,19.28-8.04,2.43-5.49l5.36-9.32-10.98-5.36c14.55-8.68-5.49-21.7-5.02-2.21l-10.3-4.94-4.09,8.68c17.36,1.28,5.6,19.79-3.06,7.4l-5.02,8.77Z"/><g id="R_oog"><path class="cls-12" d="m149.06,99.43c8.39-.2,15.63-10.15,15.61-18.06,0-1.43-.43-3.15-1.79-3.58-6.32-2.03-17.22,7.22-19.91,15.74-1,3.15,2.7,5.99,6.09,5.91Z"/><path class="cls-4" d="m172.97,82.2c9.26-14.17,5.98-19.85-1.28-17.87,6.24,1.9,3.89,7.1,1.28,17.87Z"/><path class="cls-4" d="m161.74,91.01c6.89-10.21,6.4-16.62-3.19-13.28,7.31-.57,6.86,5.07,3.19,13.28Z"/><path class="cls-4" d="m147.18,89.86c5.68-1.66,9.9-4.94,10.85-9.64.13-.67-1.07-1.8-1.71-1.55-4.83,1.89-8.88,5.59-10.61,9.15-.29.61.82,2.23,1.47,2.04Z"/></g><g id="L_oog"><path class="cls-12" d="m138.66,85.97c8.36-2.84,15.8-11.68,17.16-17.94.73-3.37-1.51-4.29-3.56-3.48-5.52,2.2-16.29,9.84-17.83,17.65-.34,1.72,1.41,4.72,4.23,3.77Z"/><path class="cls-4" d="m170.1,59.86c3.38-8.87,0-9.88-10.4-4.21,6.23-2.65,10.6-2.04,10.4,4.21Z"/><path class="cls-4" d="m153.18,74.28c5.48-9.27,5.59-12.7-2.05-9.24,4.83-1.1,5.44,1.7,2.05,9.24Z"/><path class="cls-4" d="m138.96,75.5c1.2-4.1,7.01-8.27,10.97-10.02.76-.34,1.36.04,1.09.83-1.54,4.4-5.45,9.04-9.84,11.34-1.18.62-2.59-.86-2.22-2.14Z"/></g><g id="Mpnd"><path class="cls-4" d="m124.65,103.39c.36-1.13.84-2.18,2.62-1.41,5.03,2.18,20.56,6.9,20.56,6.9-4.59,9.73-10.84,16.22-21.04,15.38-1.13-.09-2.03-1.07-2.42-2.14-1.97-5.47-2.05-11.34.28-18.74Z"/><path class="cls-12" d="m132.69,108.24c1.42-.74,2.53.03,2.62,1.02.38,4.21,4.57,4.87,7.28,1.34.58-.75,1.5-.82,1.98,0,.83,1.4,1.96.66,2.55-.26,1.45-2.23,1.11-4.4-.77-4.21-6.94.71-12.2-1.56-16.72-3.32-4.31-1.68-3.99-1.45-4.01,1.02-.01,2.3,4.55,5.71,7.07,4.4Z"/><path class="cls-2" d="m125.27,123.53c3.28-5.59,8.55-6.72,16.3-4.89-7.58,6.72-12.73,8.98-16.3,4.89Z"/></g></g><g id="Pen_met_puzzel"><path class="cls-9" d="m70.84,17.46l9.79-5.53c2.47,16.23,20.59,5.87,7.07-2.75l9.44-4.57,5.45,10.19c11.02-17.88,18.38,8.09,2.55,5.45l5.01,9.81-10.72,5.11c15.4,6.02-5.63,19.82-5.26,2.95l-10.32,4.03-13.02-24.68Z"/><path class="cls-9" d="m36.21,116.41c-33.19,6.64-50.04-27.06-22.13-33.11,1.43,9.4,9.31,20.57,22.13,33.11Z"/><path class="cls-9" d="m37.5,119.9c-6.88,10.46,3.35,15.69,10.81,12.2-3.75-4.64-6.27-7.33-10.81-12.2Z"/><path class="cls-4" d="m92.87,72.5l1.91,4.4,8.21-13.81c.5-.85.37-1.93-.32-2.64l-20.66-21.08c-.31-.31-.28-.82.05-1.1,0,0,2.26-1.67,2.83-2.4,1.42-1.81.06-3.02-2.17-1.98-1.24.58-4.53,3.12-4.53,3.12-.65.45-.75,1.36-.23,1.94l20.29,22.63c.52.58.59,1.43.18,2.08l-5.56,8.85Z"/><path class="cls-5" d="m20.83,65.6c-3.59,3.4-5.47,9.92-6.66,17.71-.12,8.26,14.15,27.14,38.55,53.5,14.92,1.65,31.53-3.02,50.98-18.21.47-27.27-14.13-62.42-28.94-75.25-22.96-6.32-38.74,7.16-53.94,22.25Z"/><path class="cls-16" d="m81.57,132.88l4.12,3.52c5.95-1.14,11.83-3.29,17.65-6.72l-.7-7.21c-8.03,4.69-15.87,9.15-21.06,10.4Z"/><g id="DOP"><path class="cls-8" d="m16.55,59.39c21.06-6.34,29.28-16.34,33.62-25.19-1.62-3.32-3.81-3.87-8.08-1.96-13.59,7.14-22.21,12.31-25.53,17.96-1.87,3.4-1.36,6.21,0,9.19Z"/><path class="cls-6" d="m21.14,66.2l-4.6-6.81c18.22-6.81,28.73-15.36,33.62-25.19l7.49,9.7c2.21,4.85-30.47,27.83-36.51,22.3Z"/></g><path class="cls-4" d="m48.21,126.62c1.18-2.63-.34-4.21-1.94-2.49-3.12,3.37-10.25,15.14-10.25,15.14-.29.44-.15,1.04.31,1.3l16.13,9.34c4.43,6.42,8.23,5.81,9.64.38,1.2-4.64-.06-6.57-2.68-5.87-.77-5.87-4.4-4.47-6.64,1.72l-12.27-6.31c-.46-.24-.6-.83-.3-1.25,0,0,6.5-8.64,7.99-11.97Z"/><path class="cls-4" d="m47.52,81.6c-.73-12.84,2.41-20.05,11.57-18.47-8.32,1.83-10.68,9.43-11.57,18.47Z"/><path class="cls-4" d="m67.52,57.69c-1.05-7.57,7.15-7.91,12.34-1.96-5.88-3.36-10.43-3.71-12.34,1.96Z"/><path class="cls-12" d="m82.27,85.96c.82,2.29,2.2,3.19,4.47,1.91l5.81-4.57c1.15-.68.83-2.58-.45-5.3-4.16-9.26-8.01-10.83-12.03-10.95-3.09,2.02-2.62,7.81,2.2,18.91Z"/><path class="cls-12" d="m62.64,79.26c-4.2,1.73-3.91,8.84-2.07,17.81.89,3.16,2.65,4.34,5.43,3.25,3.65-1.02,7.66-2.68,11.63-5.94,1.46-1.2.59-4.19-.85-7.55-3.1-6.49-7.09-11.44-14.15-7.58Z"/><path class="cls-4" d="m76.59,90.27c2.13-3.41-3.7-12.32-7.67-12.23-.62.01-2.32.07-2.61,1.12-1.09,3.99,1.99,10.71,7.5,12.15.68.18,2.4-.45,2.78-1.05Z"/><path class="cls-4" d="m90.46,77.7c.46-4.63-3.5-9.22-7.08-10.19-.75-.2-1.47.27-1.47,1.19,0,5.08,2.37,8.33,6.67,9.93.55.2,1.81-.35,1.87-.93Z"/><path class="cls-4" d="m60.38,96.16c-4.51-15.68,1.11-23.17,9.75-17.89-9.54-1.96-10.85,8.27-9.75,17.89Z"/><path class="cls-4" d="m79.52,78.88c-2.81-8.43-2.3-15.85,4.89-10.99-5.42-2.38-6.3,3.11-4.89,10.99Z"/><path class="cls-4" d="m58.62,91.81s-2.63-.55-3.51-.48c-1.9.15-1.91,1.65,0,1.63.92-.01,3.51-1.15,3.51-1.15Z"/><path class="cls-4" d="m57.95,88.46s-3-1.28-4.05-1.19c-2.1.18-1.81,2.5.19,2.55,1.02.03,3.86-1.37,3.86-1.37Z"/><path class="cls-4" d="m57.7,84.44s-2.27-2.3-3.29-2.49c-2.22-.43-2.44,2.32-.19,2.87.85.21,3.48-.38,3.48-.38Z"/><path class="cls-4" d="m81.06,65.77s-.71-2.06-.64-2.81c.17-1.71,1.83-1.52,1.77.25-.02.71-1.13,2.56-1.13,2.56Z"/><path class="cls-4" d="m84.44,67.36s-.46-2.3-.4-3.07c.11-1.6,2.01-1.43,1.7.21-.15.8-1.3,2.86-1.3,2.86Z"/><path class="cls-4" d="m86.87,69.16s-.19-1.86,0-2.44c.47-1.43,1.7-.83,1.34.51-.16.59-1.34,1.93-1.34,1.93Z"/><g id="MOnd"><path class="cls-4" d="m71.64,102.11c.88,5.41,4.66,8.67,11.52,9.67,5.61-1.62,11.46-2.82,10.34-16.18-.3-1.54-1.11-2.06-2.63-1.18-4.32,4.68-10.28,7.69-19.23,7.69Z"/><path class="cls-12" d="m72.55,103.33c-1.25-.3-1.33-2.3.52-2.36,7.12-.25,12.28-1.87,17.55-6.38,1.14-.98,3.23-.89,2.06,1.07-3.57,5.97-13.75,9.2-20.12,7.67Z"/><path class="cls-7" d="m76.34,109.47c4.88,3.53,9.67,2.88,14.01-.88-5.28-2.46-9.97-2.09-14.01.88Z"/></g><path class="cls-1" d="m52.63,136.8c18.17,1.15,34.93-6.22,50.98-18.21.14,1.46-.01,3.07-.43,4.82-3.62,3.74-9.35,7.42-16.6,11.04,3.02.29,7.58-1.8,16.26-5.28,1.19-.48,1.83,2.07.51,2.44-14.27,6.82-31.01,8.89-48.6,7.37l-2.13-2.18Z"/><path class="cls-5" d="m54.76,138.98l2.68,2.58c18.46,2.49,35.17.45,47.45-8.31l-.81-2.99c-10.9,7.17-27.18,10.19-49.32,8.72Z"/><path class="cls-8" d="m57.14,141.27c9.9,13.5,22.23,22.02,36.82,25.89.75.2,1.56-.05,2.08-.63,9.06-10.24,13.87-21.07,8.85-33.28-12.76,8.66-29.09,10.55-47.75,8.02Z"/><path class="cls-6" d="m74.99,153.18c9.3,1.43,18.3-.68,27-6.32-8.36,3.6-17.36,5.7-27,6.32Z"/></g></g></g></svg>