<?xml version="1.0" encoding="UTF-8"?><svg id="Laag_2" xmlns="http://www.w3.org/2000/svg" viewBox="0 0 212.56 185.29"><defs><style>.cls-1{fill:#fce6ec;}.cls-1,.cls-2,.cls-3,.cls-4,.cls-5,.cls-6,.cls-7,.cls-8,.cls-9,.cls-10,.cls-11,.cls-12,.cls-13,.cls-14,.cls-15,.cls-16,.cls-17,.cls-18,.cls-19,.cls-20{stroke-width:0px;}.cls-2{fill:#964415;}.cls-3{fill:#93b228;}.cls-4{fill:#d64f97;}.cls-5{fill:#b4ce4d;}.cls-6{fill:#9b9c93;}.cls-7{fill:#d94c95;}.cls-8{fill:#91398d;}.cls-9{fill:#ddd;}.cls-10{fill:#a5549b;}.cls-11{fill:#d670a8;}.cls-12{fill:#8fb124;}.cls-13{fill:#2c130c;}.cls-14{fill:#b5b5b5;}.cls-15{fill:#c96f32;}.cls-16{fill:#c06915;}.cls-17{fill:#e68222;}.cls-18{fill:#cecdcc;}.cls-19{fill:#fcfcf8;}.cls-20{fill:#1d1d1b;}</style></defs><g id="Laag_3"><g id="Pen_met_schilders"><g id="Schildersdoek"><polygon class="cls-9" points="133.62 25.06 122.51 103.86 204.74 108.84 212.56 23.28 133.62 25.06"/><polygon class="cls-15" points="196.4 113.84 204.43 171.02 211.41 171.02 202.19 108.68 199.5 108.48 199.5 114.09 196.4 113.84"/><path class="cls-17" d="m133.79,104.64c-1.19.34-.34,3.83-.34,3.83l8.8.86-19.01,67.17h9.7l10.03-36.97,42.05,3.06v36.31l8.34-.74.68-64.51,5.45.43v-5.61s-64.51-4.18-65.7-3.84Zm51.4,33.48l-41.53-2.16,5.35-24.68,36.86,1.4-.68,25.44Z"/><path class="cls-15" d="m182.28,20.4l-2.17-17.74c-.13-3.45,5.23-3.57,6.51-.19l1.33,7.9c-2.93,1.55-2.28,3.43-2.02,9.56l-3.65.48Z"/><path class="cls-17" d="m150.43,25.06l52.21-1.53c.05-3.89-2.26-5.11-7.02-3.57l-.26-6.77c-.89-4.98-9.21-4.11-9.7,0v6.64s-11.11.91-10.98.71,1.85-6.71,1.85-6.71c-.13-4.98-7.09-5.76-9.64-1.28l-2.04,8.94-12.26.13c-1.92.48-2.52,1.7-2.17,3.45Z"/><path class="cls-7" d="m167.6,53.21c-4.2-2.26-8.29-2.01-12.51.45-15.23,8.86-10.53,29.19,3.24,32.36,4.75,1.09,9.37,1.32,13.35.57v5.6c0,.37.36.64.71.55,1.65-.43,2.36-2.09,2.38-4.67,0-.68.41-1.3,1.04-1.54,5.37-2.03,10.18-5.87,14-12.99,1.58-2.95,2.33-6.29,2.15-9.63-.67-11.94-7.4-15.71-20.28-11.21l-4.08.51Z"/><path class="cls-12" d="m165.97,47.96c-.75-4.73-8.87-9.36-14.59-9.44-.39,0-.71.33-.7.71.14,7.23,5.97,11.52,14.27,10.05.63-.11,1.12-.68,1.02-1.32Z"/><path class="cls-13" d="m168.56,55.87h2.21c.81-4.94-.6-11.83,1.87-11.83.66-.65.48-1.37,0-2.13-4.72-2.06-4.89,4.97-4.08,13.96Z"/><path class="cls-1" d="m178.75,53.96c4.02.43,6.57,1.77,7.54,5.18.11.38-.31.73-.7.63-3.72-.94-6.14-2.67-7.25-5.2-.12-.28.1-.64.41-.61Z"/></g><g id="Penseel"><path class="cls-16" d="m115.16,90.25c-1.27-1.95.38-2.69,2.48-1.28,4.25,2.86,17.27,13.02,17.27,13.02l-3.86,3.85s-12.77-10.84-15.88-15.6Z"/><path class="cls-14" d="m131.04,105.85s9,7.12,12.37,8.91c1.3.69,2.47-.55,1.53-2.09-1.94-3.19-10.04-10.68-10.04-10.68l-3.86,3.85Z"/><path class="cls-4" d="m145.28,121.64l7.35-7.55c3.25,2.1,6.03,5.76,5.16,10.42-.27,1.47-1.57,2.53-3.06,2.47-2.92-.12-6.89-2.61-9.45-5.34Z"/><path class="cls-2" d="m147.71,112.68c-3.38.04-4.87,1.93-4.72,5.06.08,1.74,1.4,3.74,3.28,4.38,1.58.54,3.28-.3,4.94.94.67.09,1.02,0,.6-1.19-1-2.82.12-3.66,1.92-3.28,1.22.26,1.64-.21,1.15-1.4-1.23-3.01-3.45-4.56-7.15-4.51Z"/></g><g id="Pen"><path class="cls-18" d="m56.94,126.93l45.62-2.72-1.11,4.94c-16.66,5.08-31.59,5.36-44.51,0v-2.21Z"/><path class="cls-5" d="m108.6,106.52c-6.35-2.42-10.26-6.57-10.55-13.29,3.81.46,7.6.91,10.55,0,1.5-36.96-.8-68.36-27.27-64.54l-45.04,10.89c-24.03,14.34-9.39,39.54,8.82,80.21,11.22,8.48,38.64,10.04,62.13,0l1.36-13.26Z"/><g id="Dop"><path class="cls-8" d="m36.42,40.25c10.76,2.84,24.52.65,43.55-8.12,1.05-.48,1.59-1.67,1.27-2.79l-3.7-13.73c-4.43,8.17-33.5,16.49-43.54,12.15l2.43,12.49Z"/><path class="cls-10" d="m34.05,28.04c15.83,4.68,41.11-4.6,43.49-12.43-6.13-10.72-46.89,3.49-43.49,12.43Z"/></g><g id="Oog"><path class="cls-19" d="m104.66,87.36c-1.16,4.02-10.08-2.51-9.42-6.57,2.33-9.27,8.15-24.95,9.55-18.8,1.17,5.12,2.26,17.07-.13,25.37Z"/><path class="cls-20" d="m90.9,67.02c3.7-15.53,7.44-29.66,11.91-19.06-3.83-2.52-7.89,9.25-11.91,19.06Z"/><path class="cls-20" d="m95.37,80.3c3.21-7.28,6.92-15.14,8.38-17.19,1.96-2.74-.43-3.23-1.53-2.04-2.55,2.75-4.7,11.04-6.85,19.23Z"/><path class="cls-20" d="m96.82,72.63s-2.44-1.07-2.96-1.81c-.75-1.06.24-2.2,1.34-1.26.66.56,1.62,3.06,1.62,3.06Z"/><path class="cls-20" d="m96.05,75.78s-3.19-.49-4.07-1.19c-1.76-1.4-.47-3.1,1.29-2.03.91.55,2.78,3.22,2.78,3.22Z"/><path class="cls-20" d="m95.35,78.06s-1.43.91-2.03,1.02c-1.45.28-2.09-1.23-.76-1.64.68-.21,2.79.62,2.79.62Z"/></g><path class="cls-20" d="m105.87,69.05c.9,4.27.5,10.66-.55,15.65-.05.24-.44.19-.47.07-1.46-5.94-2-11.43-.11-15.73.23-.52,1.09-.17,1.13.01Z"/><path id="Klip" class="cls-11" d="m30.85,112.67c1.88-.18,2.23-1.67.3-2.42C12.11,102.81-.09,92.71,0,81.57c-.55-25.19,34.47-24.17,35.91-1.28-.15,4.46-2.97,7.22-6.13,10.38-.96.96-1.26,3.05-.08,4.68,7.43,10.32,16.23,18.55,12,27.4-10.06,16.17-35.28-7.7-10.86-10.09Z"/><g id="Middel"><path class="cls-3" d="m45.25,119.87c12.89,7.67,41.97,8.63,61.84-.92.09-.04.19.05.15.14-1.27,3.32-2.98,6.07-6.04,7.09-11.63,2.92-25.45,3.61-40.78,2.76-.13,0-.17.18-.05.22,11.01,3.99,25.05,3.08,41.17-1.2,1.78.19,2.63.8,1.7,2.21-24.76,8.35-42.11,3.69-54.96-2.8-.01,0-.02-.01-.03-.02-2.46-2.56-3.68-5.04-3.17-7.4.02-.08.1-.11.17-.07Z"/><path class="cls-5" d="m48.26,127.36c17.76,8.77,36.43,8.68,54.98,2.81.62.15,1.19,1.29.68,2.5-14.62,5.56-37.27,9.74-57.11-2.46,0-1.1.24-2.13,1.45-2.85Z"/><path class="cls-10" d="m46.81,129.83c15.95,9.62,34.81,11.08,57.11,2.84.48,4.26.65,8.88.55,13.8-.02,1.21-.36,2.39-.96,3.43-4.11,7.2-11.19,14.77-19.34,22.47-7.94,1.41-16.32,1.3-25.7-2.21-5.5-6.98-10.17-14.48-13.99-22.51-.55-1.16-.78-2.46-.68-3.74.42-5.79,1.16-10.99,3.02-14.09Z"/><path class="cls-8" d="m49.71,143.62c18.3,8.95,35.11,8.62,51.01,2.6-16.58,2.78-33.6,1.74-51.01-2.6Z"/><path class="cls-8" d="m58.39,163.06c7.75,4.16,16.75,4.48,26.43,2.68-9.47-.16-18.33-.98-26.43-2.68Z"/></g><path id="arm" class="cls-20" d="m94.82,115.62c-.51-1.55-.4-2.69,1.61-2.55l16.29,7.91c.87.42,1.91.34,2.71-.21l14.71-10.25s-.11-2.24,0-2.98c.17-1.11.98-1.3,1.79-.6.41.36,1.53,1.53,1.53,1.53,1.64-.78,3.31-.86,5.02-.17,1.86-.39,2.98.85,1.62,2.13l-.51.34c.59,1.05.74,2.03.08,2.89-.69,0-1.15.21-1.36.64-.84,1.73-3.85,1.86-5.02,0-.51-.82-1.38-1.42-2.21-.64-3.28,3.06-15.37,11.51-15.37,11.51-.54.41-1.27.47-1.87.16l-19.01-9.71Z"/><g id="Klein"><path class="cls-5" d="m58.47,170.17c9.43,3.13,17.92,3.65,25.7,2.21l-3.66,3.32c-6.08.54-12.49-.1-19.15-1.62l-2.89-3.91Z"/><path class="cls-3" d="m61.37,174.08c5.9,1.42,12.19,2.11,19.15,1.62l-3.91,3.06c-4.44.42-8.61-.11-12.6-1.28l-2.64-3.4Z"/><path class="cls-6" d="m64.01,177.49c4.03,1.22,8.24,1.59,12.6,1.28l-2.52,2.47c-2.92.58-5.37.03-7.75-.34l-2.33-3.4"/><path class="cls-18" d="m66.34,180.89c2.5.39,5.08.52,7.75.34l-1.57,2.64c-1.58.48-3.21.08-5.02-.34l-1.16-2.64Z"/><path class="cls-20" d="m67.5,183.53c.82,2.38,4.11,2.21,5.02.34-1.46.11-3.15-.03-5.02-.34Z"/></g></g></g></g></svg>