<?xml version="1.0" encoding="UTF-8"?><svg id="Laag_2" xmlns="http://www.w3.org/2000/svg" viewBox="0 0 143.63 177.06"><defs><style>.cls-1{fill:#93b228;}.cls-1,.cls-2,.cls-3,.cls-4,.cls-5,.cls-6,.cls-7,.cls-8,.cls-9,.cls-10,.cls-11,.cls-12,.cls-13,.cls-14{stroke-width:0px;}.cls-2{fill:#7d7d7d;}.cls-3{fill:#b4ce4d;}.cls-4{fill:#9b9c93;}.cls-5{fill:#91398d;}.cls-6{fill:#a5549b;}.cls-7{fill:#d670a8;}.cls-8{fill:#a09c9d;}.cls-9{fill:#bebcbd;}.cls-10{fill:#a3a2a2;}.cls-11{fill:#fbfbfb;}.cls-12{fill:#cecdcc;}.cls-13{fill:#fcfcf8;}.cls-14{fill:#1d1d1b;}</style></defs><g id="Laag_2-2"><g id="Pen_met_laptop"><g id="Pen"><g id="Dop"><path class="cls-5" d="m54.64,19.4c.6,4.03,4.22,7.22,11.23,9.45h19.15c9.28-.03,15.78-2.44,19.11-7.57v-12.94c-5.45,6.98-43.11,3.49-49.49.98v10.09Z"/><path class="cls-6" d="m54.64,9.32c11.79,5.9,44.79,5.57,49.49-.98-4.11-9.34-50.51-8.34-49.49.98Z"/></g><g id="Klip"><path class="cls-7" d="m121.9,53.79c.3-14-3.72-25.57-17.77-32.51v-12.94c17.53-22.81,68.15,4.09,17.77,45.45Z"/><path class="cls-7" d="m111.85,95.04c21.28,11.62,40.74-24.1,8.4-28.36l-8.4,28.36Z"/></g><path class="cls-3" d="m54.64,19.4c-26.47,9.23-19.03,46-2.35,90.38,13.21,1.97,32.02,2.19,53.29,1.66,13.53-34.47,29.37-76.01-1.45-90.17-5.83,8.55-44.27,12.03-49.49-1.87Z"/><path class="cls-14" d="m43.02,53.23c2.11-8.73,9.96-13.02,16.34-6-6.64-2.68-12.09-.68-16.34,6Z"/><g id="R_oog"><path class="cls-13" d="m71.36,80.91c7.3,6.32,23.62,1.62,22.54-4.79-4.03-23.91-27.41-15.11-22.54,4.79Z"/><path class="cls-14" d="m71.36,50.23c7.34-9,20.23-3,28.98,12.32-9.24-10.47-18.84-15.56-28.98-12.32Z"/><path class="cls-14" d="m70.99,72.38c2.98-17.77,18.91-15.21,22.57,1.97-8.86-13.88-15.09-15.04-22.57-1.97Z"/><path class="cls-14" d="m90.17,64.57s-.03-1.89.38-2.53c1.11-1.73,2.96-.57,1.91,1.01-.38.57-2.3,1.52-2.3,1.52Z"/><path class="cls-14" d="m92.09,67.3s.84-2.46,1.53-2.9c1.65-1.05,2.59.88,1.4,1.79-.62.48-2.94,1.12-2.94,1.12Z"/><path class="cls-14" d="m94.68,68.47c1.57-.77,2.74,1.24,1.4,1.98-.57.32-2.83.14-2.83.14,0,0,.98-1.9,1.43-2.12Z"/><path class="cls-14" d="m78.77,74.55c6.47-.08,6.29,8.98,0,9.19s-6.98-9.1,0-9.19Z"/></g><g id="L_oog"><path class="cls-13" d="m47.94,80.32c-6.06-28.07,14.91-26.04,16.02.08l-16.02-.08Z"/><path class="cls-14" d="m62.3,70.34c-4.34-18-16.35-14.2-15.46.99,2.74-14.85,9.08-13.16,15.46-.99Z"/><path class="cls-14" d="m48.2,61.3s-2.18-.52-2.68-1.02c-1.59-1.58.37-2.75,1.66-1.28.41.47,1.02,2.3,1.02,2.3Z"/><path class="cls-14" d="m46.84,64.82s-2.23-.89-2.9-1.56c-1.1-1.1-.23-2.95,1.66-1.29.56.49,1.24,2.85,1.24,2.85Z"/><path class="cls-14" d="m46.4,67.53s-2.58-.9-3.19-1.53c-.92-.95.2-1.98,1.6-.83.55.45,1.6,2.36,1.6,2.36Z"/><path class="cls-14" d="m52.39,80.15c-1.19-9.74,8.68-7.65,7.74.17l-7.74-.17Z"/></g><g id="Middel"><polygon class="cls-1" points="105.57 111.44 104.89 114.51 81.24 114.51 81.24 111.69 105.57 111.44"/><polygon class="cls-3" points="104.89 119.1 104.89 114.51 81.24 114.51 81.87 119.1 104.89 119.1"/><path class="cls-6" d="m91.6,158.42c17.13-14.54,21.21-38.43,13.3-39.32l-57.28-1.22c.51,17.76,7.74,30.42,18.97,40.03,8.25.43,16.5.88,25.01.51Z"/></g><g id="Onderkant"><path class="cls-3" d="m91.8,158.25c-.34,1.1-1.04,2.2-2.12,3.3-6.25.86-13.24.79-20.55.32l-2.54-3.96c8.54.52,16.97.69,25.21.33Z"/><path class="cls-1" d="m89.68,161.55l-2.74,2.94c-4.37.4-9.71.15-15.38-.32l-2.43-2.3c7.31.49,14.25.5,20.55-.32Z"/><path class="cls-4" d="m86.94,164.49l-1.28,1.85c-3.92.64-8.31.55-13.02,0l-1.09-2.17c4.44.46,9.26.49,15.38.32Z"/><path class="cls-12" d="m85.66,166.34l-2.94,4.21c-2.29.52-4.54.39-6.77,0l-3.32-4.21c4.3.56,8.63.63,13.02,0Z"/><path class="cls-14" d="m82.72,170.55c-2.31,3.63-4.34,2.29-6.77,0,2.56.42,4.47.49,6.77,0"/></g><path class="cls-14" d="m104.98,97.62c-2.6-3.75,1.91-4.34,3.23-2.73,3.96,4.86,11.96,14.69,15.15,20,.92,1.54-.49,2.94-2.64,2.98-6.68.11-26.72-.43-26.72-.43-4.96-1.67-7.7-4.19-4.75-6.33,1.43-1.03,2.03-3.42-1.04-2.1-1.71.73-2.56-.14-1.79-1.11,3.91-4.85,8.9-.11,10.21,5.53l21.9.5c.18,0,.29-.21.17-.35,0,0-11.05-12.11-13.73-15.97Z"/></g><g id="Laptop"><polygon class="cls-2" points="5.87 141.7 15.32 141.7 18.64 175.15 11.11 175.15 5.87 141.7"/><polygon class="cls-2" points="44.04 141.7 53.36 141.7 53.36 177.06 46.07 177.06 44.04 141.7"/><polygon class="cls-2" points="65.85 143 75.57 143.2 75.57 177.06 67.53 177.06 65.85 143"/><polygon class="cls-2" points="111.45 143.94 121.93 144.16 118.21 177.06 111.45 177.06 111.45 143.94"/><polygon class="cls-9" points="70.72 132.44 129.19 133.66 126.64 144.25 70.72 143.1 70.72 132.44"/><polygon class="cls-9" points="8.45 131.16 83.75 132.79 76.6 80.68 0 79.02 8.45 131.16"/><path class="cls-8" d="m37.66,97.27c9.64.17,12.13,15.45,4.21,16.6-10.11,1.47-12.33-16.74-4.21-16.6Z"/><path class="cls-8" d="m17.11,127.53c16.92-2.02,35.64-1.4,55.79,1.28l-55.79-1.28Z"/><polygon class="cls-11" points="76.6 80.68 78.26 80.68 85.02 128.81 106.6 128.81 106.6 133.19 83.74 132.71 76.6 80.68"/><polygon class="cls-10" points="70.72 132.44 0 130.85 3.06 141.7 70.72 143.1 70.72 132.44"/></g></g></g></svg>