<svg xmlns="http://www.w3.org/2000/svg" width="108.417" height="123.585" viewBox="0 0 108.417 123.585">
  <g id="Laag_2-2" transform="translate(0 0)">
    <g id="Pen_met_Microfoon" transform="translate(0 0)">
      <path id="Path_145" data-name="Path 145" d="M6.843,33.56a18.519,18.519,0,0,1,7-.105,5.549,5.549,0,0,1,1.3.353,13.5,13.5,0,0,1,6.139,5.538,6.915,6.915,0,0,1,1.082,3.479c.023.759.023,1.555,0,2.374a9.22,9.22,0,0,1-1.5,4.876C16.918,56,9.833,59.835,0,61.826,6.429,49.527,9.457,39.586,6.843,33.56Z" transform="translate(86.034 -4.302)" fill="#d670a8"/>
      <path id="Path_146" data-name="Path 146" d="M73.463,95.065a6.893,6.893,0,0,0-1.135-5.117l11.255,4.936.323.992-10.436-.819Z" transform="translate(-38.441 -11.665)" fill="#a7afa9"/>
      <path id="Path_147" data-name="Path 147" d="M41.586,94.857A54.939,54.939,0,0,0,53.5,98.336c3.366.346,9.272-.023,15.012-.2a39.489,39.489,0,0,0,11.218-3.614,1.337,1.337,0,0,0,.729-1.33l-.15-1.45c-.03-.278.068-.113-.173.03a11.756,11.756,0,0,1-5.861,1.668c-7.206-.21-14.869-.361-23.4-.383-2.968-.541-6.845-2.525-10.737-5.59l-.143,1.15a1.607,1.607,0,0,0,.548,1.428c2.359,2.014,6.627,3.494,11.083,4.974a.1.1,0,0,1-.053.2c-4.636-.714-8.783-.969-9.783-.556-.03.015-.21.2-.188.21Z" transform="translate(-6.834 -11.343)" fill="#8fa738"/>
      <path id="Path_148" data-name="Path 148" d="M79.788,96.893c-2.547,1.961-6.988,3.366-11.631,4.463a9.652,9.652,0,0,1-2.186.158l-13.945.075a11.862,11.862,0,0,1-3.712-.676c-3.058-1.014-5.868-2-8.19-2.923a.711.711,0,0,1-.436-.8l.09-.488a1.069,1.069,0,0,1,1.375-.819l1.044.331A96.923,96.923,0,0,0,52.717,99.32l14.621-.188A34.563,34.563,0,0,0,79.27,95.09a.222.222,0,0,1,.316.128l.255.857c.1.323.21.616-.06.819Z" transform="translate(-6.063 -12.328)" fill="#acbd56"/>
      <path id="Path_149" data-name="Path 149" d="M70.237,23.573c-.255-.158-.12,1.067-.383.924-5.883-3.148-4.095-3.471-6.334-1.089-10.466-2.825-16.425-5.049-21.872-9.061-.428-.316-1.811-.368-1.788-.9.015-.361.548-.518-.135-1.067a41.085,41.085,0,0,0-10.647.413,4.64,4.64,0,0,0-2.314,1.059c-3.614,3.081-6.619,7.611-8.393,15.08-2.171,8.926-2.63,26.275-2.562,46.224a3.672,3.672,0,0,0,1.473,2.938,33.517,33.517,0,0,0,8.528,5.064,7.8,7.8,0,0,0,2.479.473c4.358.143,12.818.09,22.06.361A10.155,10.155,0,0,0,52.963,84a18.676,18.676,0,0,0,6.379-2.878,4.469,4.469,0,0,0,1.292-1.736L77.968,42.83a7.009,7.009,0,0,0,.7-2.945c.143-7.16-3.028-13.081-8.438-16.327Z" transform="translate(15.991 -1.581)" fill="#acbd56"/>
      <g id="Hoodje" transform="translate(55.339)">
        <path id="Path_150" data-name="Path 150" d="M53.834,23.391c-12.916-.21-23.2-3.8-30.61-10.774a25.905,25.905,0,0,1,3.389-8.671,50.427,50.427,0,0,0,29.476,10.82,31.015,31.015,0,0,1-2.262,8.626Z" transform="translate(-23.223 -0.512)" fill="#86418d"/>
        <path id="Path_151" data-name="Path 151" d="M51.814,14.08a8.186,8.186,0,0,0,.736-3.066,1.017,1.017,0,0,0-.323-.789A40.454,40.454,0,0,0,30.423.083,6.955,6.955,0,0,0,29.3,0H24.585A1.01,1.01,0,0,0,23.8.368,9.51,9.51,0,0,0,22.03,3.584a1.016,1.016,0,0,0,.4,1.127,54.072,54.072,0,0,0,28.409,9.963,1.037,1.037,0,0,0,.977-.6Z" transform="translate(-18.611 0)" fill="#9a589d"/>
      </g>
      <path id="Path_152" data-name="Path 152" d="M78.74,97.2l.308.248a1.565,1.565,0,0,1,.579,1.217v4.14a13.433,13.433,0,0,1-.068,1.345l-.383,3.644a13.583,13.583,0,0,1-2.134,6.018L69.4,125.559a3.708,3.708,0,0,1-2.983,1.691c-3.734.113-8.408.068-13.412-.038a2.825,2.825,0,0,1-1.676-.286,8.148,8.148,0,0,1-1.39-1.27L38.768,111.892a5.849,5.849,0,0,1-1.3-3.674V98.593c0-.331.331-.458.639-.331,3.02,1.285,6.657,2.156,10.414,3.419a1.2,1.2,0,0,0,.488.068H64.2a6.1,6.1,0,0,0,1.383-.158c4.884-1.165,9.167-2.525,11.8-4.448a1.106,1.106,0,0,1,1.36.045Z" transform="translate(-3.821 -12.57)" fill="#803581"/>
      <path id="Path_153" data-name="Path 153" d="M77.027,108.156a62.05,62.05,0,0,1-9.993,3.351,8.1,8.1,0,0,1-1.127.135,105.484,105.484,0,0,1-24.269-1.518" transform="translate(-4.85 -14.026)" fill="#742c79"/>
      <path id="Path_154" data-name="Path 154" d="M70.181,124.24l-4.32,1.578a3.928,3.928,0,0,1-1.1.24c-2.322.165-7.153-.1-11.751-.068a7.365,7.365,0,0,1-3.223-.736L48.7,124.72" transform="translate(-4.15 -16.111)" fill="#742c79"/>
      <path id="Path_155" data-name="Path 155" d="M67.548,131.481c-.669,1.135-1.24,2.615-1.661,3.066-4,0-7.168-.008-11.548.023a40.8,40.8,0,0,1-3.058-3.156,93.628,93.628,0,0,0,16.274.068Z" transform="translate(-3.771 -17.042)" fill="#acbd56"/>
      <path id="Path_156" data-name="Path 156" d="M64.9,134.858l-1.029,1.668H54.887l-1.811-1.668Z" transform="translate(-2.682 -17.488)" fill="#8fa738"/>
      <path id="Path_157" data-name="Path 157" d="M63.246,136.775l-.962,1.337-6.522.165-1.5-1.5Z" transform="translate(-2.053 -17.737)" fill="#8c927d"/>
      <path id="Path_158" data-name="Path 158" d="M60.043,140.56,59.1,141.6a.564.564,0,0,1-.781.06L57,140.552s.015-.038.03-.038l2.938-.105a.087.087,0,0,1,.068.143Z" transform="translate(-1.247 -18.208)" fill="#1d1d1b"/>
      <path id="Path_159" data-name="Path 159" d="M61.886,138.312,60.451,140.3l-2.975.045-2.111-1.863Z" transform="translate(-1.656 -17.936)" fill="#c0bdbc"/>
      <path id="Path_160" data-name="Path 160" d="M29.074,70.239c5.44,5.064,2.179,11.676-4.658,9.775l4.658-9.775Z" transform="translate(55.358 -9.109)" fill="#cf5f98"/>
      <path id="Path_161" data-name="Path 161" d="M22.658,78.431,37.475,93.556a.516.516,0,0,1-.113.811l-14.7,8.43c-.436.924-.21,1.818,1.089,2.682l3.344.293a.908.908,0,0,1,.5.225c.586.5,2.329.511,2.7,1.142.113.188-.143.721-.353.781a8.614,8.614,0,0,1-1.788,0l-.2.3s1.12.962,1.142,1.5c.015.308-1.232,0-1.232,0a.411.411,0,0,1-.286-.12l-.759-.789a.511.511,0,0,0-.346-.158l-.849-.045a.276.276,0,0,0-.278.2l-.526,1.871a.24.24,0,0,1-.286.165l-.428-.105a.546.546,0,0,1-.406-.473l-.135-1.5a.543.543,0,0,0-.286-.428l-3.381-1.781c-1.435-1.984-1.3-3.359,0-4.283l14.8-7.994a.3.3,0,0,0,.068-.473l-14.1-13.6a2.011,2.011,0,0,1,1.984-1.788Z" transform="translate(54.357 -10.17)" fill="#1d1d1b"/>
      <path id="Path_162" data-name="Path 162" d="M118.982,74.41a3.945,3.945,0,0,1-2.81,1.352c-.135-.023-.451-.5-.548-.586l-2.893-2.7a1.28,1.28,0,0,0-1.585-.128l-6.266,4.193a2.035,2.035,0,0,1-.278.158l-1.848.924a.183.183,0,0,1-.263-.128,3.025,3.025,0,0,0-1.841-2.074.046.046,0,0,1-.008-.083l6.529-4.283a10.477,10.477,0,0,1,1.367-.571,24.472,24.472,0,0,1,7.13-2.495c.113-.015-.1.9-.1,1.014a7,7,0,0,0,2.637,5.1" transform="translate(-98.138 -8.816)" fill="#a7afa9"/>
      <path id="Path_163" data-name="Path 163" d="M95.627,73.821c6.139-4.35,2.171-13.555-4.989-11.383Z" transform="translate(-69.126 -8.055)" fill="#1d1d1b"/>
      <path id="Path_164" data-name="Path 164" d="M103.411,74.63c-7.4.428-10.151-6.717-5.184-11.323Z" transform="translate(-78.299 -8.21)" fill="#1d1d1b"/>
      <path id="Path_165" data-name="Path 165" d="M100.684,73.87a4.6,4.6,0,0,1-1.39.654L94.11,63.2a6.164,6.164,0,0,1,1.593-.714l4.989,11.383Z" transform="translate(-74.183 -8.103)" fill="#989898"/>
      <path id="Path_166" data-name="Path 166" d="M123.88,78.7s-2.1,1.8-2.329,1.886c-1.36.5-3.186-2.029-1.8-2.8l2.014-1.375c1.007.188,1.645,1.074,2.111,2.292Z" transform="translate(-119.258 -9.91)" fill="#1d1d1b"/>
      <path id="Path_167" data-name="Path 167" d="M112.467,75.453,94.99,93.094a.674.674,0,0,1-1.1-.2L86.936,76.828c2.682-1.893,6.109-4.343,6.394-4.087,1.15-.083,2.382,1.375,3.87,3.051a2.567,2.567,0,0,1,.924,2.269c0,.083-2.059.669-2.637.188a26.437,26.437,0,0,0-3.306-1.54,2.948,2.948,0,0,0-2.4,1.007l5.034,11.751,16.7-15.613a1.685,1.685,0,0,1,.954,1.608Z" transform="translate(-79.714 -9.431)" fill="#1d1d1b"/>
      <path id="Path_168" data-name="Path 168" d="M47.1,44.87c.255-.488,5.214-.451,5.613-.21,3.171.451,7.048,5.575,11.075,10.7" transform="translate(3.631 -5.769)" fill="none" stroke="#1d1d1b" stroke-miterlimit="10" stroke-width="2.59"/>
      <g id="Gezicht" transform="translate(31.882 28.366)">
        <g id="Mond" transform="translate(4.786 31.069)">
          <path id="Path_169" data-name="Path 169" d="M78.969,70.084c.962,1.157,1.232,2.96.834,5.4a8.082,8.082,0,0,1-4.29,3.148,6.832,6.832,0,0,1-4.313.128c-3.809-1.127-6.372-2.953-7.634-5.8a15.7,15.7,0,0,1,.158-4.576,18.322,18.322,0,0,1,7.033.864,47.741,47.741,0,0,0,8.22.834Z" transform="translate(-63.492 -68.291)" fill="#161718"/>
          <path id="Path_170" data-name="Path 170" d="M74.164,77.12c-3.794-1.6-8.235-.774-9.986,2.066C67.342,81.11,72.331,79.788,74.164,77.12Z" transform="translate(-58.274 -69.331)" fill="#d15e9b"/>
          <path id="Path_171" data-name="Path 171" d="M77.111,70.1c.481,3.546-12.345.932-12.473-1.7C65.39,68.4,74.166,70.016,77.111,70.1Z" transform="translate(-61.634 -68.305)" fill="#fcfcf8"/>
        </g>
        <g id="L._Oog" transform="translate(16.38 19.655)">
          <path id="Path_172" data-name="Path 172" d="M65.131,62.575a8.326,8.326,0,0,1-3.637,2.359,5.393,5.393,0,0,1-1.585.225H55.927a5.97,5.97,0,0,1-1.848-.286,6.031,6.031,0,0,1-3.531-2.307c.744-2.9,1.826-4.989,3.546-5.6a47.786,47.786,0,0,1,11.03,5.6Z" transform="translate(-48.97 -55.409)" fill="#fcfcf8"/>
          <path id="Path_173" data-name="Path 173" d="M64.017,62.47h2.164a.145.145,0,0,0,.1-.248L64.814,60.84a6,6,0,0,0,1.217-.511c.128-.158.27-.932.03-1.022a10.749,10.749,0,0,0-2.044,0s.225-1.18,0-1.473c-.18-.233-.511-.105-.8-.03-.5.12-2.111.8-2.111.8l-8.641-3.1a8.48,8.48,0,0,0-4.628,0,31.4,31.4,0,0,0-.225,5.725A2.649,2.649,0,0,0,49.23,62.47c.541-2.562,1.615-4.779,3.464-5.725A64.067,64.067,0,0,1,64.01,62.47Z" transform="translate(-47.571 -55.176)" fill="#1d1d1b"/>
        </g>
        <g id="R._Oog" transform="translate(0 8.497)">
          <path id="Path_174" data-name="Path 174" d="M81.5,50.558c-2.314-2.292-4.538-4.095-6.439-4.155-.458,0-1.4,8.926-.977,9.046.263.075,3.178.631,3.434.323C80.375,54.939,81.6,53.143,81.5,50.558Z" transform="translate(-69.36 -42.88)" fill="#fdfcfb"/>
          <path id="Path_175" data-name="Path 175" d="M86.146,49.778a11.663,11.663,0,0,0-6.311-3.9,56.931,56.931,0,0,0-1.044,8.881c-.023.346-1.352.218-1.375-.128-.1-1.488.03-7.927.03-7.927s-2.352.8-3.118.383c-.263-.143-.233-.188-.068-.428.481-.7,2.923-1.089,2.923-1.089V45.1s-1.991.128-2.555-.323c-.218-.173-.526-.548-.323-.736.669-.624,3.644.286,3.644.286s-.526-1.187-.383-1.57a.959.959,0,0,1,.894-.383c.5.21.8,2.036.8,2.036a.536.536,0,0,0,.571.338l.947-.128a1.158,1.158,0,0,1,.639.09c3.261,1.45,4.561,3.133,4.711,5.042Z" transform="translate(-74.133 -42.355)" fill="#1d1d1b"/>
        </g>
        <path id="Path_176" data-name="Path 176" d="M82.2,36.745q-4.61-8.306-10.489,0" transform="translate(-68.071 -32.592)" fill="none" stroke="#1d1d1b" stroke-miterlimit="10" stroke-width="2.59"/>
      </g>
    </g>
  </g>
</svg>
