<?xml version="1.0" encoding="UTF-8"?><svg id="Laag_2" xmlns="http://www.w3.org/2000/svg" viewBox="0 0 179.68 167.94"><defs><style>.cls-1{fill:#c1bcb8;}.cls-1,.cls-2,.cls-3,.cls-4,.cls-5,.cls-6,.cls-7,.cls-8,.cls-9,.cls-10,.cls-11,.cls-12,.cls-13,.cls-14,.cls-15,.cls-16{stroke-width:0px;}.cls-2{fill:#93b228;}.cls-17,.cls-18{stroke:#000;}.cls-17,.cls-18,.cls-19{stroke-miterlimit:10;}.cls-17,.cls-19{fill:none;}.cls-18{fill:#f4f3f2;}.cls-4{fill:#b4ce4d;}.cls-5{fill:#9b9c93;}.cls-6{fill:#91398d;}.cls-7{fill:#d15e9b;}.cls-8{fill:#a5549b;}.cls-9{fill:#d670a8;}.cls-10{fill:#858585;}.cls-19{stroke:#c1bcb8;}.cls-11{fill:#592b0f;}.cls-12{fill:#e8e8e8;}.cls-13{fill:#cecdcc;}.cls-14{fill:#fcfcf8;}.cls-15{fill:#8e4314;}.cls-16{fill:#adadad;}</style></defs><g id="Laag_5"><g id="Pen_met_kist"><path class="cls-3" d="m83.3,53.25l-10.79-8.3c-1.74-1.37-2.8-1.17-3.32.34l-2.13,13.53c-3.07.67-3.38.72-3.8,6.02-.07.9-.03,2.74-.03,2.74.47.7,1,.79,1.21,0,.14-.51.03-1.63.26-2.11.3-.63,1.07-.43,1.18.22.1.6-.2,1.85,0,2.43.23.64,1.14.82,1.44,0,.21-.6-.13-1.94.06-2.55.17-.55.97-.53,1.31.06.26.45.62,1.45.84,1.93.4.87,1.64.91,1.45-.38-.03-.19-1.23-2.34-1.23-2.34,0,0-.13-1.34-.1-1.79.05-.63-.07-.71.35-.67,0,0,1.92.07,2.2.13,1.93.36,1.74-1.76.16-2.39-.7-.28-2.73-1.11-2.73-1.11l1.1-11.43c.44-.96,1.12-.81,1.95-.06l11.19,8.88-.57-3.15Z"/><rect class="cls-18" x="52.96" y="65.36" width="28.67" height="31.28" transform="translate(-16.32 16.99) rotate(-12.84)"/><rect class="cls-18" x="51" y="63.28" width="28.44" height="31.66" transform="translate(-15.95 16.48) rotate(-12.84)"/><line class="cls-17" x1="54.21" y1="79.48" x2="75.31" y2="74.67"/><line class="cls-17" x1="55.13" y1="83.54" x2="76.23" y2="78.73"/><line class="cls-17" x1="56.06" y1="87.6" x2="77.16" y2="82.79"/><line class="cls-17" x1="56.99" y1="91.66" x2="78.09" y2="86.85"/><line class="cls-17" x1="52.07" y1="71.84" x2="73.16" y2="67.03"/><line class="cls-17" x1="52.99" y1="75.9" x2="74.09" y2="71.09"/><g id="De_pen"><path class="cls-3" d="m69.63,59.02l1.1-11.43c.44-.96,1.12-.81,1.95-.06l11.19,8.88-.57-3.15-10.79-8.3c-1.74-1.37-2.8-1.17-3.32.34l-2.13,13.53c-3.07.67-3.38.72-3.8,6.02-.07.9-.03,2.74-.03,2.74.47.7,1,.79,1.21,0,.14-.51.03-1.63.26-2.11.3-.63,1.07-.43,1.18.22.1.6-.2,1.85,0,2.43.23.64,1.14.82,1.44,0,.21-.6-.13-1.94.06-2.55.17-.55.97-.53,1.31.06.26.45.62,1.45.84,1.93.4.87,1.64.91,1.45-.38-.03-.19-1.23-2.34-1.23-2.34,0,0-.13-1.34-.1-1.79"/><path class="cls-4" d="m98.21,20.36c-18.67,7.87-19.25,22.81-10.38,51.72,5.02,16.35,10.03,33.44,15.33,35.55,16.6,7.62,35.09,5.06,54.93-4.68,10.59-49,13.3-84.93-12.9-87.53l-46.98,4.94Z"/><path class="cls-3" d="m151.74,87.85c-1.17-1.66,1.6-3.67,3.06-2.47,0,0,10.63,8.38,13.88,11.5,1.53,1.47,1.26,2.49-.26,2.71-3.6.52-14.47,1.7-14.47,1.7-16.02,6.91-8.38-18.55-.34-3.15l13.01-.42c.08,0,.11-.11.04-.15l-14.93-9.73Z"/><g id="Dop"><path class="cls-6" d="m98.21,10.49l.51,15.15c13.21,11.04,28.79,10.2,46.47-1.19v-15.15c-7.53,10.66-36.94,11.91-46.98,1.19Z"/><path class="cls-8" d="m98.21,10.49c5.96,10.9,38.13,12.43,46.98-1.19-6.81-12.26-41.53-12.94-46.98,1.19Z"/></g><g id="Klip"><path class="cls-9" d="m152.64,17.38c18.38-16.17,42.97,10.81,13.01,34.98.32-16.46-1.85-28.69-13.01-34.98Z"/><path class="cls-9" d="m164.8,64.12c17.36,0,15.71,23.68-3.35,22.21.91-7.35,2.54-15.04,3.35-22.21Z"/></g><path class="cls-2" d="m98.72,25.64c-11.74,3.74-2.55,11.57,14.16,7.16-7.3-2.06-11.45-4.52-14.16-7.16Z"/><g id="middel"><path class="cls-13" d="m124.96,113.11v3.83l13.78-2.36s2.17-1.91,2.23-2.17,0-1.28,0-1.28l-16.02,1.98Z"/><path class="cls-2" d="m124.94,111.6c11.17,1.12,22.23-4.39,33.15-8.64-.3,1.92-.85,2.88-.05,4.89,1.1,2.61-31.86,14.54-33.11,12.34-.18-.31.43-4.09.43-4.09l14.81-3.66s-14.72,1.79-14.89,1.36-.34-2.21-.34-2.21Z"/><path class="cls-4" d="m124.91,119.99v4.8c3.61,2.17,33.4-6.98,33.18-12.81,0-.13-.03-3.91-.03-3.91-15.58,8.06-26.36,11.8-33.15,11.92Z"/><path class="cls-8" d="m124.68,124.79s-.68,17.19,0,17.53,2.81,1.96,2.81,1.96c3.18.38,7.04.36,11.06,0,6.23-.95,20.39-21.91,20.26-24.26-.06-1.61-.72-8.04-.72-8.04-8.75,8.98-20.87,12.02-33.41,12.81Z"/><path class="cls-6" d="m125.21,133.15c.7,1.91,18.54-.93,18.83-3.06-6.32,2.07-12.6,3.09-18.83,3.06Z"/><path class="cls-6" d="m125.21,140.19c5.21.92,10.18,1,14.87,0-4.83.49-9.79.48-14.87,0Z"/></g><g id="Pennie"><path class="cls-4" d="m127.44,144.28l.32.7.09.15c3.97.63,7.54.67,11.05.15l1.26-1.57c-4.18,1.13-9.06.86-12.72.58Z"/><path class="cls-2" d="m127.76,144.98l.63,1.09c2.53.71,6.07.5,9.83.18l.66-.98c-3.93.42-7.47.34-11.13-.29Z"/><path class="cls-5" d="m128.32,145.93c.06.26,2.02,2.23,2.02,2.23,2.11.19,4.14.24,6.42.17,0,0,.2-.15.35-.37.39-.58,1.1-1.65,1.19-1.81-.5.23-9.16.63-9.98-.22Z"/><path class="cls-13" d="m130.34,148.16l1.08,1.59c1.29.31,2.61.35,3.96.15l1.61-1.8c-1.48.3-4.26.29-6.65.05Z"/><path class="cls-3" d="m131.4,149.73l1.23,1.79c.24.34.75.39,1.05.09l1.81-1.82c-1.32.36-2.69.28-4.09-.06Z"/></g><g id="Mond"><path class="cls-3" d="m103.1,94.63c.12-1.79,1.17-2.36,3.7-1.05,4.28,1.65,8.64,2.41,13.19.14,2.62-1.5,4.35-.68,4.11.76-.97,5.72-5.24,8.5-11.49,8.49-4.52-.21-9.63-6.56-9.51-8.33Z"/><path class="cls-14" d="m104.6,93.94c-.28-.28-.94-.82-.78-.9.48-.24.93-.37,2.3.21,4.73,2.02,9.95,2.2,14.15.22,1.92-.9,2.93-.64,3.44-.19,0,0-.48.68-.95,1.05-6.32,4.94-11.76,5.53-18.16-.4Z"/><path class="cls-7" d="m112.48,102.96c6.24.05,10.31-2.18,11.44-7.5-6.93,2.4-10.02,4.93-11.44,7.5Z"/></g><g id="R_oog"><path class="cls-14" d="m124.68,89.04c-13.8.89-13.45-18.38-.84-19.23,11.44-.77,16.57,18.22.84,19.23Z"/><path class="cls-3" d="m115.49,84.48c5.44-2.47,9.44-1.18,11.32,4.3-5.28,1.09-9.75-.74-11.32-4.3Z"/><path class="cls-3" d="m114.74,77.13c1.47-12.04,18.48-11.62,19.27-.15-4.37-8.29-14.81-9.7-19.27.15Z"/><path class="cls-3" d="m130.58,70.02s2.86-.85,3.42-1.61c1.09-1.49-.91-3.01-2.3-1.4-.53.61-1.12,3.02-1.12,3.02Z"/><path class="cls-3" d="m132.67,72.21c.2-.15,3.57-.64,3.86-.87,1.62-1.29-1.01-3.13-2.13-1.74-.49.61-1.73,2.61-1.73,2.61Z"/><path class="cls-3" d="m133.82,74.6s2.04.17,2.69,0c1.62-.43,1.14-2.03-.34-1.73-.71.15-2.35,1.73-2.35,1.73Z"/></g><path class="cls-3" d="m114.94,57.51c9.46-4.96,16.07.03,21.6,8.8-6.87-7.43-14.05-10.72-21.6-8.8Z"/><path class="cls-3" d="m89.79,57.13c5.28-7.49,11.12-8.34,17.53-2.55-6.27-3.78-12.08-2.62-17.53,2.55Z"/><g id="L_oog"><path class="cls-14" d="m99.32,66.92c-11.5,1.41-5.64,19.96,4,19.62,10.19-.36,4.34-20.64-4-19.62Z"/><path class="cls-3" d="m103.83,86.5c-.36-6.24-3.88-8.01-9.57-6.69,2.11,4.43,5.43,7.07,9.57,6.69Z"/><path class="cls-3" d="m107.87,74.84c-1.11-11.33-14.86-10.4-14.89-.73,2.9-8.84,11.32-7.74,14.89.73Z"/><path class="cls-3" d="m98.55,65.9s-.4-3.16-.94-4.05c-1.03-1.7-2.35-.53-1.83.81.39.99,2.77,3.24,2.77,3.24Z"/><path class="cls-3" d="m93.74,62.53c1.01.88,2.68,4.66,2.68,4.66,0,0-3.74-2.33-4.6-3.48-1.06-1.41.38-2.53,1.91-1.19Z"/><path class="cls-3" d="m91.79,65.68c1.01.44,3.23,3.01,3.23,3.01,0,0-3.69-.31-4.62-1.05-1.29-1.02-.22-2.67,1.39-1.96Z"/></g></g><g id="Kist"><polygon class="cls-1" points="90.94 113.81 92.83 167.94 125.02 156.96 125.91 108.7 90.94 113.81"/><path class="cls-10" d="m34.13,150.32v8.17l58.7,9.45-1.89-54.13h-2.51l.17,13.62c.37.26-3.92,9.86-3.66,9.87,1.43.08,1.28,0,1.28,0l.77,23.87-47.23-7.15-1.15-3.7h-4.47Z"/><path class="cls-1" d="m56.85,146.58c2.62,4.47,6.63,7.24,12.09,8.21,9.38-1.11,13.86-7.93,15.99-17.49l3.62-9.41v-11.27h-2.68l-29.02,29.96Z"/><path class="cls-11" d="m5,143.83l29.9,3.56-.73,2.94c-12.24-1.07-26.14-3.12-29.17-6.49Z"/><path class="cls-16" d="m0,139.6l56.85,6.98c2.74,4.54,6.73,7.1,12.09,8.21-6.03,1.37-10.76-.16-14.2-4.92l-48.53-5.77c-2.91-.46-4.35-2.05-6.21-4.51Z"/><path class="cls-10" d="m0,139.6c.43-.26,24.44-28.34,24.44-28.34l60.66,6.16-7.43,7.67-20.81,21.48L0,139.6Z"/><polygon class="cls-1" points="88.44 115.08 28.89 108.7 24.44 111.26 85.1 117.42 85.87 116.62 88.55 116.62 88.44 115.08"/><polygon class="cls-10" points="28.89 108.7 68.21 104.87 125.91 108.7 114.54 110.35 68.34 107.6 46.91 110.63 28.89 108.7"/><polygon class="cls-12" points="46.91 110.63 68.34 107.6 114.54 110.35 90.94 113.81 88.43 113.81 88.44 115.08 46.91 110.63"/><path class="cls-11" d="m86.98,161.17l-47.23-7.15-1.15-3.7h-4.47l.77-2.94c5.09.58,12.42,1.41,20.3,2.3,3.38,4.67,8.34,7.53,19.28,3.57,5.03-2.32,8.4-7.87,10.47-15.96h1.28s.77,23.87.77,23.87Z"/><path class="cls-19" d="m30.72,143.34s-2.57,3.54-2.89,4.94c-.74,3.16,2.56,4.64,4.89,2.34,1.39-1.37,3.62-6.89,3.62-6.89l-.35-.16s-2.03,5.32-3.33,6.65c-2.39,2.45-5.15.69-4.36-2.13.36-1.29,2.7-4.62,2.7-4.62l-.28-.13Z"/><path class="cls-1" d="m30.7,142.45s6.03.9,6.03.9l-2.26,4.36-6.37-1.25,2.6-4.01Z"/><path class="cls-11" d="m77.66,125.07l-48.9-5.49c-.17,9.26-.74,17.91-4.34,21.96l32.68,4.76,20.56-21.22Z"/><path class="cls-15" d="m64.6,146.66l18.13-17.96-2.17,7.42c-.54,1.85-1.38,3.59-2.5,5.16-2.11,2.96-5.48,7.62-5.71,7.5-3.78,1.33-6.28.47-7.74-2.13Z"/><path class="cls-15" d="m9.96,140.19l14.04-16.17c1.16,3.57,0,9.19-3.49,16.85l-10.55-.68Z"/><polygon class="cls-15" points="96.17 122.49 121.7 116.62 121.06 152.75 96.94 161.17 96.17 122.49"/></g></g></g></svg>