<?xml version="1.0" encoding="UTF-8"?><svg id="Laag_2" xmlns="http://www.w3.org/2000/svg" viewBox="0 0 144.29 164.48"><defs><style>.cls-1{fill:#86418d;}.cls-1,.cls-2,.cls-3,.cls-4,.cls-5,.cls-6,.cls-7,.cls-8,.cls-9,.cls-10,.cls-11,.cls-12,.cls-13,.cls-14,.cls-15,.cls-16,.cls-17{stroke-width:0px;}.cls-2{fill:#cf5f98;}.cls-3{fill:#a7afa9;}.cls-4{fill:#c0bdbc;}.cls-5{fill:#fdfcfb;}.cls-6{fill:#161718;}.cls-18{fill:none;stroke:#1d1d1b;stroke-miterlimit:10;stroke-width:3px;}.cls-7{fill:#989898;}.cls-8{fill:#742c79;}.cls-9{fill:#d15e9b;}.cls-10{fill:#d670a8;}.cls-11{fill:#acbd56;}.cls-12{fill:#9a589d;}.cls-13{fill:#8c927d;}.cls-14{fill:#fcfcf8;}.cls-15{fill:#1d1d1b;}.cls-16{fill:#803581;}.cls-17{fill:#8fa738;}</style></defs><g id="Laag_2-2"><g id="Pen_met_Microfoon"><path class="cls-10" d="m20.68,38.94c-2.71-.65-5.84-.66-9.32-.14-.59.09-1.18.24-1.73.47-3.5,1.48-6.11,4.09-8.17,7.37-.88,1.4-1.39,2.98-1.44,4.63-.03,1.01-.03,2.07,0,3.16.06,2.3.72,4.57,2,6.49,5.25,7.89,14.68,12.99,27.77,15.64-8.56-16.37-12.59-29.6-9.11-37.62Z"/><path class="cls-3" d="m97.68,111c-.34-2.3-.11-4.09,1.51-6.81l-14.98,6.57-.43,1.32,13.89-1.09Z"/><path class="cls-17" d="m98.04,111.15c-3.79,1.71-9.02,3.31-15.85,4.63-4.48.46-12.34-.03-19.98-.26-5.37-.86-10.3-2.54-14.93-4.81-.66-.32-1.04-1.04-.97-1.77l.2-1.93c.04-.37-.09-.15.23.04,2.54,1.5,5.37,2.23,7.8,2.22,9.59-.28,19.79-.48,31.15-.51,3.95-.72,9.11-3.36,14.29-7.44l.19,1.53c.09.72-.18,1.43-.73,1.9-3.14,2.68-8.82,4.65-14.75,6.62-.17.06-.1.3.07.27,6.17-.95,11.69-1.29,13.02-.74.04.02.28.26.25.28Z"/><path class="cls-11" d="m46.17,112.55c3.39,2.61,9.3,4.48,15.48,5.94.94.22,1.94.21,2.91.21l18.56.1c1.67,0,3.35-.37,4.94-.9,4.07-1.35,7.81-2.66,10.9-3.89.43-.17.67-.62.58-1.07l-.12-.65c-.16-.84-1.02-1.35-1.83-1.09l-1.39.44c-3,1.25-8.38,2.68-14,4.14l-19.46-.25c-5.99-.91-11.18-2.74-15.88-5.38-.16-.09-.37,0-.42.17l-.34,1.14c-.13.43-.28.82.08,1.09Z"/><path class="cls-11" d="m29.53,29.27c.34-.21.16,1.42.51,1.23,7.83-4.19,5.45-4.62,8.43-1.45,13.93-3.76,21.86-6.72,29.11-12.06.57-.42,2.41-.49,2.38-1.2-.02-.48-.73-.69.18-1.42,4.34-.52,9.34-.18,14.17.55,1.13.17,2.2.66,3.08,1.41,4.81,4.1,8.81,10.13,11.17,20.07,2.89,11.88,3.5,34.97,3.41,61.52,0,1.54-.73,2.99-1.96,3.91-3.38,2.53-7.04,5.18-11.35,6.74-1.06.39-2.18.6-3.3.63-5.8.19-17.06.12-29.36.48-1.25.04-2.25.27-3.48.01-3.61-.74-5.91-2.27-8.49-3.83-.7-.42-1.37-1.57-1.72-2.31l-23.07-48.65c-.59-1.22-.91-2.56-.93-3.92-.19-9.53,4.03-17.41,11.23-21.73Z"/><g id="Hoodje"><path class="cls-1" d="m29.9,30.45c17.19-.28,30.88-5.06,40.74-14.34-.95-4.25-2.31-8.2-4.51-11.54-11.01,8.74-24.05,13.6-39.23,14.4.44,3.76,1.36,7.61,3.01,11.48Z"/><path class="cls-12" d="m26.45,18.74c-.62-1.32-.9-2.68-.98-4.08-.02-.39.14-.78.43-1.05C33.75,6.4,43.41,1.87,54.92.11c.49-.08.99-.11,1.49-.11h6.28c.4,0,.79.18,1.04.49,1.17,1.45,1.94,2.88,2.36,4.28.17.56-.05,1.17-.53,1.5-11.73,8.1-24.32,12.58-37.81,13.26-.55.03-1.06-.3-1.3-.8Z"/></g><path class="cls-16" d="m44.58,112.63l-.41.33c-.49.4-.77.99-.77,1.62v5.51c0,.6.03,1.19.09,1.79l.51,4.85c.3,2.86,1.27,5.61,2.84,8.01l10.17,15.64c.88,1.35,2.36,2.2,3.97,2.25,4.97.15,11.19.09,17.85-.05.76-.02,1.65.08,2.23-.38.64-.49,1.3-1.02,1.85-1.69l14.87-18.32c1.12-1.39,1.73-3.11,1.73-4.89v-12.81c0-.44-.44-.61-.85-.44-4.02,1.71-8.86,2.87-13.86,4.55-.23.08-.41.1-.65.09h-20.22c-.62,0-1.24-.07-1.84-.21-6.5-1.55-12.2-3.36-15.7-5.92-.55-.4-1.29-.37-1.81.06Z"/><path class="cls-8" d="m48.23,125.28c4.85,1.95,9.54,3.71,13.3,4.46.49.1,1,.15,1.5.18,11.33.58,22.07-.17,32.3-2.02"/><path class="cls-8" d="m56.41,143.91l5.75,2.1c.47.17.96.29,1.46.32,3.09.22,9.52-.13,15.64-.09,1.49,0,2.95-.33,4.29-.98l1.45-.71"/><path class="cls-11" d="m59.41,152.31c.89,1.51,1.65,3.48,2.21,4.08,5.32,0,9.54-.01,15.37.03,1.51-1.33,2.92-2.94,4.07-4.2-8.13.67-15.32.68-21.66.09Z"/><polygon class="cls-17" points="61.48 156.21 62.85 158.43 74.81 158.43 77.22 156.21 61.48 156.21"/><polygon class="cls-13" points="62.85 158.43 64.13 160.21 72.81 160.43 74.81 158.43 62.85 158.43"/><path class="cls-15" d="m66.04,162.84l1.26,1.39c.27.3.73.34,1.04.08l1.75-1.48s-.02-.05-.04-.05l-3.91-.14c-.1,0-.15.11-.09.19Z"/><polygon class="cls-4" points="64.13 160.21 66.04 162.85 70 162.91 72.81 160.43 64.13 160.21"/><path class="cls-2" d="m31.92,81.36c-7.24,6.74-2.9,15.54,6.2,13.01l-6.2-13.01Z"/><path class="cls-15" d="m41.79,90.85l-19.72,20.13c-.32.32-.24.86.15,1.08l19.57,11.22c.58,1.23.28,2.42-1.45,3.57l-4.45.39c-.25.02-.48.14-.67.3-.78.67-3.1.68-3.6,1.52-.15.25.19.96.47,1.04.56.16,2.38,0,2.38,0l.26.4s-1.49,1.28-1.52,2c-.02.41,1.64,0,1.64,0,.14,0,.28-.06.38-.16l1.01-1.05c.12-.13.29-.2.46-.21l1.13-.06c.17,0,.33.1.37.27l.7,2.49c.05.16.21.26.38.22l.57-.14c.29-.07.51-.33.54-.63l.18-2c.02-.24.17-.46.38-.57l4.5-2.37c1.91-2.64,1.73-4.47,0-5.7l-19.7-10.64c-.23-.13-.28-.44-.09-.63l18.76-18.1c-.36-1.47-1.18-2.34-2.64-2.38Z"/><path class="cls-3" d="m116.55,87.3c.67.96,2.75,1.95,3.74,1.8.18-.03.6-.66.73-.78l3.85-3.6c.58-.54,1.45-.61,2.11-.17l8.34,5.58c.12.08.24.15.37.21l2.46,1.23c.15.07.32-.01.35-.17.31-1.26,1.14-2.17,2.45-2.76.05-.02.05-.08.01-.11l-8.69-5.7c-.56-.37-1.21-.47-1.82-.76-3.99-1.89-6.56-2.89-9.49-3.32-.15-.02.13,1.2.13,1.35-.02,2.23-1.14,4.74-3.51,6.79"/><path class="cls-15" d="m109.02,87.53c-8.17-5.79-2.89-18.04,6.64-15.15l-6.64,15.15Z"/><path class="cls-15" d="m110.87,88.4c9.85.57,13.51-8.94,6.9-15.07l-6.9,15.07Z"/><path class="cls-7" d="m109.02,87.53c.48.35,1.09.64,1.85.87l6.9-15.07c-.93-.55-1.37-.72-2.12-.95l-6.64,15.15Z"/><path class="cls-15" d="m138.14,91.56s2.79,2.4,3.1,2.51c1.81.66,4.24-2.7,2.39-3.72l-2.68-1.83c-1.34.25-2.19,1.43-2.81,3.05Z"/><path class="cls-15" d="m100.7,87.87l23.26,23.48c.45.45,1.21.31,1.46-.27l9.26-21.38c-3.57-2.52-8.13-5.78-8.51-5.44-1.53-.11-3.17,1.83-5.15,4.06-.81.54-1.21,1.54-1.23,3.02,0,.11,2.74.89,3.51.25.66-.55,4.4-2.05,4.4-2.05,1.7.11,2.67.6,3.19,1.34l-6.7,15.64-22.22-20.78c-.8.4-1.25,1.09-1.27,2.14Z"/><path class="cls-18" d="m76.77,52.04c-.34-.65-6.94-.6-7.47-.28-4.22.6-9.38,7.42-14.74,14.24"/><g id="Gezicht"><g id="Mond"><path class="cls-6" d="m74.89,81.49c-1.28,1.54-1.64,3.94-1.11,7.19,1.15,1.87,3.07,3.2,5.71,4.19,1.84.68,3.86.73,5.74.17,5.07-1.5,8.48-3.93,10.16-7.72.19-3.01.1-4.96-.21-6.09-2.25-.38-5.5.12-9.36,1.15-4.04.76-7.62,1.06-10.94,1.11Z"/><path class="cls-9" d="m74.34,89.47c5.05-2.13,10.96-1.03,13.29,2.75-4.21,2.56-10.85.8-13.29-2.75Z"/><path class="cls-14" d="m74.89,81.49c-.64,4.72,16.43,1.24,16.6-2.26-1,0-12.68,2.15-16.6,2.26Z"/></g><g id="L._Oog"><path class="cls-14" d="m58.55,73.45c1.3,1.36,2.81,2.52,4.84,3.14.68.21,1.4.3,2.11.3h5.3c.83,0,1.66-.12,2.46-.38,2.18-.7,3.88-1.66,4.7-3.07-.99-3.86-2.43-6.64-4.72-7.45-5.59,1.86-10.23,4.57-14.68,7.45Z"/><path class="cls-15" d="m58.17,73.62h-2.88c-.17,0-.25-.21-.13-.33l1.95-1.84s-1.45-.47-1.62-.68-.36-1.24-.04-1.36c.46-.17,2.72,0,2.72,0,0,0-.3-1.57,0-1.96.24-.31.68-.14,1.06-.04.66.16,2.81,1.06,2.81,1.06l11.5-4.13c2.23-.53,4.31-.61,6.16,0,.27,2.22.46,4.58.3,7.62-.34.63-1.16,1.44-2.15,1.66-.72-3.41-2.15-6.36-4.61-7.62-5.07,1.93-10.09,4.49-15.06,7.62Z"/></g><g id="R._Oog"><path class="cls-5" d="m85.7,59.28c3.08-3.05,6.04-5.45,8.57-5.53.61,0,1.86,11.88,1.3,12.04-.35.1-4.23.84-4.57.43-3.8-1.11-5.43-3.5-5.3-6.94Z"/><path class="cls-15" d="m85.87,58.94c2.36-2.72,5.19-4.47,8.4-5.19.68,2.26,1.09,7.53,1.39,11.82.03.46,1.8.29,1.83-.17.13-1.98-.04-10.55-.04-10.55,0,0,3.13,1.06,4.15.51.35-.19.31-.25.09-.57-.64-.93-3.89-1.45-3.89-1.45v-.62s2.65.17,3.4-.43c.29-.23.7-.73.43-.98-.89-.83-4.85.38-4.85.38,0,0,.7-1.58.51-2.09-.11-.3-.89-.64-1.19-.51-.67.28-1.07,2.71-1.07,2.71-.12.31-.43.49-.76.45l-1.26-.17c-.29-.04-.59,0-.85.12-4.34,1.93-6.07,4.17-6.27,6.71Z"/></g><path class="cls-18" d="m83.06,43.28c4.09-7.37,8.74-7.37,13.96,0"/></g></g></g></svg>