<?xml version="1.0" encoding="UTF-8"?><svg id="Laag_2" xmlns="http://www.w3.org/2000/svg" viewBox="0 0 123.91 201.28"><defs><style>.cls-1{fill:#93b228;}.cls-1,.cls-2,.cls-3,.cls-4,.cls-5,.cls-6,.cls-7,.cls-8,.cls-9,.cls-10,.cls-11{stroke-width:0px;}.cls-12{fill:none;stroke:#000;stroke-miterlimit:10;}.cls-3{fill:#b4ce4d;}.cls-4{fill:#9b9c93;}.cls-5{fill:#91398d;}.cls-6{fill:#d15e9b;}.cls-7{fill:#a5549b;}.cls-8{fill:#d670a8;}.cls-9{fill:#f39204;}.cls-10{fill:#cecdcc;}.cls-11{fill:#fcfcf8;}</style></defs><g id="Hulp_en_uitleg"><g id="De_hulp_en_uitleg"><g id="Vraagteken"><path class="cls-9" d="m6.56,15.57c14.51-17.01,32.57,1.81,18.91,14.44-3.83,3.55-12.1,10.85-14.75,15.5-3,5.27,2.77,8.35,6.81,4.29,0,0,14.52-14.89,18.38-20.92C47.93,10.1,24.46-7.8,8.45,3.54c0,0-6.08,4.16-7.51,6.6-1.82,3.12-.84,5.9,1.41,6.68,1.5.52,3.17-.05,4.2-1.26Z"/><path class="cls-9" d="m8.2,61.89c4.52-8.19,9.96-4.97,8.44,2.65-1.58,7.93-12.74,5.15-8.44-2.65Z"/></g><g id="De_sassy_pen"><g id="L_Arm"><path id="l_arm" class="cls-2" d="m22.81,127.23l-11.66,10.46c-.24.21-.21.58.05.76l14.94,10.16-1.21,3.2-18.3-12.49c-.56-.38-.61-1.18-.12-1.64l15.59-14.02.7,3.56Z"/><path id="L_hand" class="cls-2" d="m24.69,153.55s-6.87.62-8.64,1.67c-.42.25-.94,1.1-1.23,1.49-.6.81-.24,1.17.53.88.42-.16,1.14-.79,1.58-.88.59-.12.93.36.7.88-.18.4-.62,1.17-.79,1.58-.53,1.3.07,1.69,1.14,1.05.75-.44,2.13-1.52,2.9-1.93.63-.34,1.06-.03.97.79-.07.58-.48,1.7-.44,2.28.06.91.81.9,1.23,0,.17-.36.34-1.14.53-1.49.18-.33,1.1-.37,1.54-.2v-6.12Z"/></g><g id="Klip"><path class="cls-8" d="m94.4,113.81c16.33-4.42,30.29-10.19,29.48-24.3-1.15-11.31-7.06-16.67-19.74-13.6,4.72,8.66-2.52,21.26-9.74,37.9Z"/><path class="cls-8" d="m86.59,130.3c9.63,3.25,13.07-5.86,5.79-12.11l-5.79,12.11Z"/></g><path class="cls-3" d="m53.43,51.69s-8.5-.59-11.25,0c-7,1.49-12.94,8.8-14.55,17.11-2.55,13.16-5.95,39.77-5.66,53.17.07,3.32,1.33,13.34,1.33,13.34,8.78,11.1,45.87,16.23,57.98,6.05,0,0,18.46-36.47,23.12-48.98,3.84-10.31.62-19.71-9.13-26.64-8.04,1.26-32.93-2.9-41.85-14.04Z"/><g id="Dop"><path class="cls-5" d="m53.43,51.69c1.84,6.67,27.95,18.53,41.85,14.04,2.43-7.13,5-13.2,2.41-14.88.1,2.1-.49,3.77-2.68,4.52-1.32.46-2.77.77-4.15.52-9.62-1.8-20.26-6.49-31.91-14.03-1.85,2.03-3.69,5.79-5.53,9.83Z"/><path class="cls-7" d="m58.63,42.27c11.57,6.45,23.11,12.55,33.42,13.84.27.03.55.02.82-.04,2.03-.47,4.07-1.04,5.02-2.69.49-.85.29-2.13-.44-2.79-8.94-8.1-20.45-12.39-33.06-14.26-2.87-.42-4.85,2.26-5.76,5.94Z"/></g><g id="Wenkies"><path id="L_wenkie" class="cls-2" d="m27.63,80.67c6.2-10.22,11.23-9.67,15.09,1.64-4.02-8.19-9.05-8.73-15.09-1.64Z"/><path id="R_wenkie" class="cls-2" d="m46.78,89.56c10.03-5.22,17.96-2.7,23.78,7.6-6.81-7.31-14.56-10.61-23.78-7.6Z"/></g><g id="Mond"><path class="cls-2" d="m32.98,122.58c-1.34,8.34,13.95,7.27,12.9.53-1.12-7.13-11.85-7.08-12.9-.53Z"/><path class="cls-11" d="m35.18,118.97c3.26-2.43,8.21-1.66,10.04,2.1-6.12.69-8.98-.25-10.04-2.1Z"/><path class="cls-6" d="m38.42,128.5c.8-4.07,3.55-5.28,7.51-4.69-.26,4.15-2.77,4.91-7.51,4.69Z"/></g><g id="Tussen"><polygon class="cls-10" points="28.25 141.14 27.81 146.84 42.59 150 49.61 148.51 49.17 146.49 28.25 141.14"/><path class="cls-1" d="m81.28,141.36c-.7,4.69-6.41,9.79-27.86,10.35-13.27.54-25.78,1.39-27.55-5.4-.42-1.6.74-1.44,1.49-1.4,2.08.11,11.61,4.35,18.56,2.75-17.1-2.44-21.43-5.17-22.63-12.36,12.82,11.97,42.87,14.95,57.98,6.05Z"/><path class="cls-3" d="m24.69,147.23c3.03,3.82,16.65,9.45,27.88,8.19,11.9.67,24.05-3.81,28.31-7.49l-2.02-2.28c-7.12,4.03-16,5.77-26.01,6.05-9.39.2-18.49-2.24-26.98-5.4-1.14-.26-1.16.3-1.18.92Z"/></g><g id="Paarse"><path class="cls-7" d="m24.69,147.23c-.26,8.57-.57,15.99,1.45,19.48,5.39,8.66,11.82,16.04,19.39,22.02,10.94,1.56,15.09,1.27,22.11-1.49,5.55-7.47,10.18-14.43,12.63-20.18,1.38-7.13,1.66-13.55.61-19.13-16.84,9.86-41.19,10.35-56.19-.7Z"/><path class="cls-5" d="m43.6,181.27c7.64,2.25,14.86,2.1,21.67-.44-7,.46-14.23.58-21.67.44Z"/><path class="cls-5" d="m34.48,164.17c11.96,4.4,23.81,4.49,35.53,0-11.73,1.54-23.57,1.51-35.53,0Z"/></g><path id="R_arm" class="cls-2" d="m81.55,130.26c4.06,3.85,16.65,16.51,16.65,16.51.25.24.21.65-.08.83l-19.42,12c-.48.29-.61.93-.29,1.38,0,0,3.82,6.33,5.42,8.15,1.47,1.67,2.91,1.53,2.55-.35-.07-.37-.41-1.08-.41-1.46,0-.68.73-.74,1.5-.26.46.29,1.35.91,1.82,1.18.96.55,2.05.64,1.73-.31-.19-.56-1.36-1.93-1.36-1.93-.1-.26-.07-.38.15-.33.63.15,1.9.44,2.57.42,1.18-.04,1.15-.88-.21-1.49-1.99-.88-6.39-1.91-8.13-3.08-1.01-.68.61-1.74,1.84-2.4,3.5-1.88,11.9-6.89,16.15-9.44,1.3-.78,1.5-2.56.43-3.62,0,0-14.19-14.35-18.94-18.11-.85-.67-3.14,1.19-1.97,2.29Z"/><g id="Punt"><path class="cls-3" d="m45.34,188.58l3.99,3.57c5.23,1.37,10.78.84,14.86-.7l3.45-4.21c-7.43,1.8-14.86,2.25-22.29,1.34Z"/><path class="cls-1" d="m49.33,192.15l2.22,2.28c4.07.25,7.82.07,11.11-.76l1.52-2.22c-4.63,1.24-9.61,1.38-14.86.7Z"/><path class="cls-4" d="m51.55,194.43l1.46,1.93c3,.99,6.19.77,8.48-.29l1.33-2.64c-2.43.75-5.95,1.16-11.28,1Z"/><path class="cls-10" d="m53.02,196.36l1.87,2.52c1.43.45,3.09.49,5.03,0l1.72-3.09c-2.43,1.24-5.34,1.35-8.62.57Z"/><path class="cls-2" d="m54.89,198.88l1.72,2.1c.31.38.88.4,1.22.05l2.09-2.15c-1.8.26-3.45.2-5.03,0Z"/></g><g id="R_oog"><path class="cls-2" d="m65.92,109.55s1.87-1.32,2.6-1.49c1.51-.35,1.87,1.03.58,1.48-.75.27-3.18,0-3.18,0Z"/><path class="cls-12" d="m67.3,109.85l-18.94-8.47c-1.12-.5-2.37.35-2.32,1.57l.2,5.39c.03.81.63,1.49,1.43,1.62l2.56.42,5.11-.31,11.91.04c.15,0,.2-.21.06-.27Z"/><path class="cls-11" d="m46.54,108.22l-.13-3.18c5.25,2.77,7.96,1.93,9.83-.22,4.82,3.03,8.06,3.66,11.38,5.15.22.1.24.41.03.53-6.91,4.26-14.24,5.16-20.63.05-.66-.53-.5-1.48-.48-2.33Z"/><path class="cls-2" d="m46.29,105.81c-.15-2.16-.13-3.91.49-4.31,1.48-.41,5.52,1.37,9.74,3.31-1.71,2.53-6.19,2.96-10.23,1Z"/><path class="cls-2" d="m64.37,108.3s1.7-1.53,2.4-1.79c1.46-.53,1.98.8.75,1.41-.71.35-3.16.38-3.16.38Z"/><path class="cls-2" d="m61.91,107.54s2.22-2.18,3.13-2.63c1.87-.94,2.45.53.87,1.51-.92.57-4,1.12-4,1.12Z"/></g><g id="L_oog"><path class="cls-12" d="m36.84,93.45l-8.53,7.72c-.26.24-.68.05-.68-.3v-10.14c.5-.91,1.19-1.63,2.28-1.93,2.79.18,4.93,2.23,6.93,4.65"/><path class="cls-11" d="m39.6,99.51c-3.73,4.21-8.39,4.63-12.02,2.34l.54-7.16c3.39.73,6.61.19,8.98-1.99,1.05,1.03,1.92,2.42,2.74,3.61.67.98.55,2.31-.23,3.19Z"/><path class="cls-2" d="m28,95.28c-.95-.94-.41-2.5-.37-4.55.68-1.02,1.32-1.68,1.91-1.8,2.96.07,4.38,1.28,7.75,3.98-1.79,1.76-5.55,3-9.3,2.37Z"/><path class="cls-2" d="m29.57,88.93s-1.29-1.89-1.45-2.62c-.33-1.52,1.06-1.85,1.49-.56.25.75-.05,3.18-.05,3.18Z"/><path class="cls-2" d="m27.95,91.21s-2.71.3-3.57.13c-1.8-.37-1.4-1.71.21-1.53.94.1,3.36,1.41,3.36,1.41Z"/><path class="cls-2" d="m28.19,90.04s-2.17-.72-2.74-1.2c-1.19-1.01-.29-2.11.85-1.35.66.44,1.9,2.55,1.9,2.55Z"/></g></g></g></g></svg>