<?xml version="1.0" encoding="UTF-8"?><svg id="Laag_2" xmlns="http://www.w3.org/2000/svg" viewBox="0 0 163.12 183.2"><defs><style>.cls-1{fill:#93b228;}.cls-1,.cls-2,.cls-3,.cls-4,.cls-5,.cls-6,.cls-7,.cls-8,.cls-9,.cls-10,.cls-11{stroke-width:0px;}.cls-3{fill:#b4ce4d;}.cls-4{fill:#9b9c93;}.cls-5{fill:#91398d;}.cls-6{fill:#ddd;}.cls-7{fill:#d15e9b;}.cls-8{fill:#a5549b;}.cls-9{fill:#d670a8;}.cls-10{fill:#cecdcc;}.cls-11{fill:#fcfcf8;}</style></defs><g id="Toetsen"><g id="Pen_met_toets"><polygon class="cls-6" points="69.34 98.44 132.27 161.36 63.57 183.2 21.48 136.79 0 113.11 69.34 98.44"/><g id="Lijntje"><polygon class="cls-4" points="41.19 140.82 78.35 132.84 79.98 134.95 42.55 142.87 41.19 140.82"/><polygon class="cls-4" points="40.09 139.2 77.32 131.44 76.16 129.79 38.47 137.42 40.09 139.2"/><polygon class="cls-4" points="34.64 133.76 76.6 124.4 75.1 122.52 32.34 132.23 34.64 133.76"/><polygon class="cls-4" points="29.45 129.79 76.6 120.4 76 118.44 27.83 128.14 29.45 129.79"/><polygon class="cls-4" points="24.34 124.11 61.11 117.52 59.72 115.63 22.98 122.52 24.34 124.11"/><polygon class="cls-4" points="20.77 121.25 74.5 110.6 73.62 108.31 19.15 119.37 20.77 121.25"/></g><g id="Pen_duipie"><g id="Punt"><path class="cls-3" d="m94.79,149.22l3.9,3.17c5.13,1.22,10.55.75,14.55-.62l3.38-3.74c-7.28,1.6-14.55,1.99-21.83,1.19Z"/><path class="cls-1" d="m98.69,152.39l2.18,2.03c3.98.22,7.66.06,10.88-.68l1.49-1.97c-4.53,1.1-9.41,1.23-14.55.62Z"/><path class="cls-4" d="m100.87,154.42l1.43,1.71c2.94.88,6.06.69,8.3-.26l1.31-2.34c-2.38.67-5.82,1.03-11.04.89Z"/><path class="cls-10" d="m102.3,156.13l1.83,2.23c1.4.4,3.02.44,4.93,0l1.69-2.74c-2.38,1.1-5.23,1.2-8.44.51Z"/><path class="cls-2" d="m104.13,158.37l1.69,1.86c.3.34.86.36,1.2.05l2.04-1.91c-1.76.23-3.37.18-4.93,0Z"/></g><g id="KLip"><path class="cls-9" d="m141.19,73.42c25.87-1.96,30.04-35.91,6.13-37.11,7.34,8.67,1.69,21.09-6.13,37.11Z"/><path class="cls-9" d="m132.83,93.08c7.77.22,10.48-6.18,5.38-12.06l-5.38,12.06Z"/></g><path class="cls-3" d="m96.04,15.33c-26.73-1.05-24.03,26.78-25.07,50.94-.24,10.21-.2,19.17,1.67,27.97.17.83.55,1.6,1.09,2.25,8.19,9.78,33.29,13.51,50.07,7.69,3.08-1.07,5.55-3.39,6.88-6.36l19.23-42.95c3.15-10.49.5-18.19-9.77-26.4-4.65,5.5-35.49-3.13-44.1-13.14Z"/><g id="MOnd"><path class="cls-2" d="m82.68,80c-2-1.36-3.53-1.58-2.96,2.03,2.38,14.9,15.95,15.92,20.3,3.53.84-2.39.95-4.58-1.79-3.66-7.4,2.51-11.23,1.03-15.55-1.9Z"/><path class="cls-7" d="m86.75,93.33c5.83,2.42,9.94-.86,12.25-5.49-5.6-1.79-9.29.13-12.25,5.49Z"/><path class="cls-11" d="m81.19,80c2.62,7.37,14.27,7.44,18.4,2.28.22-.28-.02-.67-.37-.61-5.99.98-12.65.69-17.41-2.2-.34-.21-.75.16-.62.54Z"/></g><g id="Dop"><path class="cls-5" d="m96.3,16.26c4.04,6.53,30.89,15.54,41,14.11,1.61-.23,2.9-1.42,3.32-3,.79-2.96,1.88-6.37,2.9-9.3-17.43.82-31.85-4.06-43.15-14.63-1.47,3-3.04,7.32-4.23,11.28-.15.51-.12,1.08.16,1.53Z"/><path class="cls-8" d="m100.49,3.11c5.27-9.59,46.33,5.24,43.17,14.68-.15.44-.58.75-1.04.77-14.85.58-29.21-1.6-41.81-13.71-.47-.45-.63-1.17-.32-1.74Z"/></g><path class="cls-2" d="m71.04,81.18l-14.09,10.3c-.32.23-.76,0-.74-.4l.68-16.39c1.14-1.98,1.87-5.32,1.87-10.98,2.98-9.53-3.91-9.15-3.23.34-.45-.13-1,.14-1.36-.04-10.38-5.28-5.4,14.04-.09,10.6l-.47,20.84c0,.61.68.97,1.18.63l16.53-10.55-.29-4.35Z"/><g id="Middel"><path class="cls-1" d="m72.83,94.9c-2.88,16.62,53.36,22.69,56.62,5.05-8.75,11.26-50.56,6.53-56.62-5.05Z"/><path class="cls-10" d="m77.32,103.51v4.12c15.42,7.4,35.34,6.96,49.25.77v-3.44c-10.28,8.17-35.62,7.02-49.25-1.44Z"/><path class="cls-1" d="m77.32,107.63c16.3,6.27,32.7,7.52,49.25.77,1.31.66.98,1.05.88,1.88-17.19,5.94-33.53,6.07-52.26-.6-.38-2.08.51-2.13,2.13-2.04Z"/><path class="cls-3" d="m75.19,109.67c-.58.37-.81.57-.62,1.53,13.26,7.74,36.94,8.49,54.28,1.53,0-1.39-.5-2.13-1.32-2.49-18.1,6.13-35.14,5.49-52.34-.57Z"/></g><g id="Paarse"><path class="cls-8" d="m74.57,111.2c-.25,7.61-.37,15.48,1.6,18.58,5.26,7.69,11.54,14.25,18.92,19.57,10.68,1.38,14.73,1.13,21.58-1.33,5.42-6.64,9.94-12.82,12.33-17.93,1.35-6.33.88-12.41-.14-17.36-16.66,6.9-39.89,6.29-54.28-1.53Z"/><path class="cls-5" d="m80.6,123.97c12.51,6.3,28.6,6.92,42.21,1.11-13.57,2.42-27.69,1.73-42.21-1.11Z"/><path class="cls-5" d="m89.79,140.4c8.71,2.96,17.72,3.42,27.15.51-9.05,1.14-18.1.97-27.15-.51Z"/></g><path id="R_arm" class="cls-2" d="m127.34,93.58c3.84,3.57,15.71,15.31,15.71,15.31.24.22.2.6-.08.77l-18.33,11.12c-.45.27-.57.86-.27,1.28,0,0,3.6,5.87,5.12,7.55,1.39,1.55,2.74,1.42,2.41-.33-.07-.34-.39-1-.39-1.35,0-.63.69-.69,1.41-.24.43.27,1.27.85,1.72,1.1.91.51,1.94.59,1.64-.28-.18-.52-1.28-1.79-1.28-1.79-.1-.24-.07-.36.14-.31.6.14,1.79.41,2.42.39,1.12-.03,1.09-.82-.2-1.38-1.87-.82-6.03-1.78-7.67-2.85-.96-.63.58-1.61,1.74-2.22,3.3-1.74,11.23-6.39,15.24-8.75,1.22-.72,1.42-2.37.4-3.36,0,0-13.39-13.3-17.88-16.8-.8-.62-2.96,1.1-1.86,2.13Z"/><g id="R_oog"><path class="cls-11" d="m104.6,78.86c16,1.53,16.09-19.32.85-21.28-12.68.51-14.21,20.77-.85,21.28Z"/><path class="cls-2" d="m124.21,58.1c-3.23-11.51-9.35-16.62-18.77-14.38,7.35,1.37,13.55,6.32,18.77,14.38Z"/><path class="cls-2" d="m96.93,62.65c6.87-10.61,18.63-7.81,19.77,5.83-5.46-10.85-11.4-13.7-19.77-5.83Z"/><path class="cls-2" d="m105.87,74.61c6.92.09,5.96-10.77,0-10.55-5.46.2-6.43,10.47,0,10.55Z"/><path class="cls-2" d="m115.82,62.76s3.58-.03,4.63-.54c1.59-.78.94-2.52-1.15-1.85-1.01.32-3.48,2.39-3.48,2.39Z"/><path class="cls-2" d="m116.71,64.86s3.42-.97,4.56-.81c1.64.23,1.56,1.83-.1,1.96-1.19.1-4.47-1.15-4.47-1.15Z"/><path class="cls-2" d="m117.04,67.49s2.58,1.65,3.54,1.98c1.34.46,2.19-.9.93-1.7-.95-.6-4.47-.28-4.47-.28Z"/></g><g id="L_oog"><path class="cls-11" d="m80.85,70.69c12.53,2.08,12.45-19.92,3.33-21.2-12.6-1.78-13.53,19.51-3.33,21.2Z"/><path class="cls-2" d="m93.96,40.91c-3.06-10.38-11.06-9.62-16.51,0,6.3-6.24,11.8-6.24,16.51,0Z"/><path class="cls-2" d="m90.68,59.45c0-13.96-12.28-14.31-15.96-4.04,8.19-8.68,11.87-6.12,15.96,4.04Z"/><path class="cls-2" d="m84.43,68.48c6.55,0,6.72-11.4.51-11.4s-5.79,11.4-.51,11.4Z"/><path class="cls-2" d="m76.34,51.89s-2.19-.62-2.68-1.17c-1.01-1.12.2-2.28,1.34-1.17.49.47,1.34,2.34,1.34,2.34Z"/><path class="cls-2" d="m77.89,50.14s-2.91-1.78-3.49-2.72c-1.08-1.76.5-2.94,1.74-1.36.69.87,1.74,4.09,1.74,4.09Z"/><path class="cls-2" d="m79.58,49.1c-.06-.09-2.1-2.64-2.31-3.78-.37-2.01,1.16-2,1.79-.26.36,1,.52,4.04.52,4.04Z"/></g></g><path class="cls-1" d="m63.96,165.84c12.26-5.79,23.55-13.65,15.97-18.83-.8-.54-1.69-.94-2.61-1.22-8.53-2.58-15.21-1-19.62,3.74-.64.69-.94,1.65-.76,2.58.96,4.79,7.44,5.57,16.35,4.59,8.19-.82,16.93-2.12,18.77,1.67-.1,7.55,6.98,8.84,11.32,4.28.69-.72-.18-1.93-1.06-1.4-8.9,5.28-4.45-1.33-8.56-6.21-.81-.97-2.04-1.49-3.3-1.42-6.13.33-12.87.76-23.03,1.81-1.64.17-3.33-.29-4.54-1.41-6.03-5.6,15.48-11.87,15.25-2.25.48,4.12-8.78,8.4-14.94,12.8-1.44,1.03-.76,2,.77,1.28Z"/></g></g></svg>