<?xml version="1.0" encoding="UTF-8"?><svg id="Laag_2" xmlns="http://www.w3.org/2000/svg" viewBox="0 0 185.87 283.84"><defs><style>.cls-1{fill:#cbcaca;}.cls-1,.cls-2,.cls-3,.cls-4,.cls-5,.cls-6,.cls-7,.cls-8,.cls-9,.cls-10{stroke-width:0px;}.cls-2{fill:#bbd25d;}.cls-4{fill:#e25f9f;}.cls-5{fill:#a5549b;}.cls-6{fill:#95b32a;}.cls-7{fill:#acbd56;}.cls-8{fill:#fff;}.cls-9{fill:#9d9d9d;}.cls-10{fill:#822584;}</style></defs><g id="Laag_2-2"><path id="R" class="cls-3" d="m135.63,153.82l13.67,12.31c1.82,1.64,3.78,3.13,5.85,4.45l4.31,2.74c.51.32,1.19.09,1.39-.49l4.54-13.28c.58-1.69,1.04-3.41,1.39-5.16l3.96-19.92c.13-.63.59-1.15,1.2-1.35,0,0,9.69-2.09,12.36-3.94s1.83-4.72-1.62-4.09c-1.88.35-7.15,2.72-7.15,2.72-.75-.21-.75-.73-.26-1.45,0,0,7.28-4.58,9.02-6.81,1.57-2.01.46-4.5-2.47-3.23-2.45,1.06-8.51,6.47-8.51,6.47-.8.28-1.15.04-.85-.94,0,0,3.5-6.24,4.17-8.51,1.44-4.86-1.65-6.1-4.34-2.21-2.02,2.92-5.7,13.02-5.7,13.02-.3.7-.73.72-1.28,0,0,0-2.28-4.24-3.32-5.45-2.28-2.63-4.5-.44-3.23,2.98.81,2.19,5.6,7.49,5.6,7.49.45.6.62,1.35.48,2.08l-6.42,33.32c-.07.38-.53.55-.83.3l-20.96-17.39-.99,6.32Z"/><path id="L" class="cls-3" d="m28.75,153.77L.6,185.92c-.85.81-.74,1.52,0,2.17l29.36,19.28c3.73,5.35,7.56,8.08,11.58,5.2l1.32-16.3c-4.78-3.76-8.33-.5-11.49,5.11l-23.59-14.31c-.35-.21-.42-.68-.16-.99l22.98-26.58-1.85-5.72Z"/><g id="Dop"><path class="cls-10" d="m37.57,29.9c3.66-1.59,6.95-2.69,10.26-3.46l47.03-3.71c.79-.06,1.57-.27,2.36-.27,5.63.03,10.27-.04,15.33,1.4v-5.04c-4.19-5.1-10.64-7.07-18.26-7.4-14.9-.88-29.53.06-43.92,2.55-.5.09-.99.29-1.5.37-2.88.4-9.59,4.83-11.89,8.7l.58,6.87Z"/><path class="cls-5" d="m36.99,23.02c3.13-4.03,6.93-7.15,11.89-8.7,17.12-3.04,33.96-4.03,49.86-2.5,5.35,1.06,10.07,2.36,13.81,6.99v-4.34c-2.75-7.75-8.02-12.65-16.72-13.66-16.74-1.86-32.97-.55-48.6,4.38-1.82.57-3.52,1.49-4.95,2.75-2.28,2-4.12,4.7-5.51,8.12-.37.9-.5,1.88-.36,2.84l.58,4.12Z"/></g><path class="cls-2" d="m34.17,172.13l98.94-2.17,9.13-58.28c.3-1.91.55-3.83.74-5.75l2-19.58c1.42-23.97-1.44-42.35-11.87-50.81-7.01-6.95-14.46-11.45-22.53-12.51-5.59-.91-10.86-1.36-15.14-.35l-48.09,3.75c-20.78,5.6-31.9,18.47-35.8,35.65-1.69,7.46-1.72,15.2-.44,22.73l.72,4.22,2.41,11.85c.26,1.29.57,2.58.92,3.85l12.63,46.09,6.38,21.32Z"/><g id="Tusenlijf"><polygon class="cls-1" points="41.7 180.75 41.72 185.14 82.26 179.58 73.87 176.98 41.7 180.75"/><polygon class="cls-7" points="42.16 190.81 130.27 177.52 131.58 187.32 42.16 204.04 42.16 190.81"/><path class="cls-6" d="m34.17,172.13l98.94-2.17c.12,3.39-.53,5.7-2.68,5.87v1.3c0,.72-.58.67-1.29.78l-86.97,13.63c-.44.07-.84-.27-.85-.72-.04-2.09-.17-3.55-.34-4.67-.07-.48.27-.93.75-1l38.41-5.61-37.03,1.22c-1.24.04-2.48-.22-3.56-.83-3.67-2.04-5.5-4.63-5.37-7.8Z"/></g><g id="Onderlijf"><path class="cls-5" d="m40.81,205.58c-1.15-3.34-.1-4.91,3.45-4.47l86.94-14.3c1.72-.44,3.21-.08,3.96,2.73l3.57,20.24c.52,2.52.44,4.79-.64,6.64-3.52,10.49-10.82,24.55-18.87,39.24l-43.31,5.94-20.07-20.41c-1.93-1.96-3.72-4.06-5.36-6.27l-2.71-3.67c-.7-.94-1.45-1.84-2.19-2.75-1.64-2.02-2.89-5.04-3.42-9.92l-1.35-13.02Z"/><path class="cls-10" d="m44.26,201.11c30.94-1.2,60.03-5.75,86.94-14.3l-86.94,14.3Z"/><path class="cls-10" d="m46.43,219.23c32.39,1.13,60.99-4.46,86.69-15.19l-86.69,15.19Z"/><path class="cls-10" d="m64.04,243.49c21.78,2.02,41.76-1.06,60.13-8.68l-60.13,8.68Z"/></g><g id="Pen_punt"><polygon class="cls-2" points="75.79 261.49 81.53 266.85 115.12 262.67 119.32 255.49 75.79 261.49"/><polygon class="cls-6" points="81.53 266.85 87.06 271.22 111.3 267.94 115.36 262.26 81.53 266.85"/><polygon class="cls-9" points="86.87 271.06 89.97 275.39 108.53 272.4 111.53 267.62 86.87 271.06"/><polygon class="cls-1" points="89.77 275.15 95.58 282.3 104.38 281.15 108.72 272.09 89.77 275.15"/><path class="cls-3" d="m95.58,282.3c3.05,1.81,6.04,2.68,8.81-1.15l-8.81,1.15Z"/></g><g id="Wenkies"><path class="cls-3" d="m29.38,56.4c11.68-16.6,31.09-22.34,38.55-9.26-12.37-7.15-25.29-2.62-38.55,9.26Z"/><path class="cls-3" d="m85.87,46.45c14.59-12.12,29.17-5.74,42.96,11.11-12.57-13.04-27-16.11-42.96-11.11Z"/></g><g id="R_oog"><g id="Wit_oog"><path class="cls-8" d="m126.26,94.83c0,4.26-1.86,8.21-4.89,11.28-3.74,3.78-9.27,6.21-15.32,6.21-5.49,0-10.62-2.16-14.09-4.32-4.19-2.61-5.77-7.97-5.77-12.88,0-9.5,9.61-22.52,20.57-22.52,5.02,0,9.83,2.21,13.24,6.01,4.04,4.51,6.25,11.07,6.25,16.22Z"/></g><ellipse class="cls-3" cx="102.44" cy="96.46" rx="8.01" ry="8.9"/><path class="cls-3" d="m86.17,94.38c-.68-37.53,42.54-35.06,40.04-.86-2.93-27.5-33.91-27.87-40.04.86Z"/><g id="R_Wimpers"><path class="cls-3" d="m118.73,71.64s2.6-4.36,3.08-5.97c.24-.81.25-2.58,0-3.38-.69-2.2-3-1.86-3.45.57-.4,2.16.37,8.77.37,8.77Z"/><path class="cls-3" d="m122.13,75.29s6.44-3.94,7.47-6.13c1.27-2.69-1.42-4.43-3.19-2.36-1.55,1.8-4.28,8.49-4.28,8.49Z"/><path class="cls-3" d="m124.68,79.44s6.78.14,8.55-1.21c2.31-1.77.37-4.51-2.23-3.57-1.87.67-6.32,4.79-6.32,4.79Z"/></g></g><g id="L_oog"><g id="Wit_oog-2"><path class="cls-8" d="m73.81,97.13c.03,4.42-.65,6.76-3.13,10.09-3.63,4.86-10.28,6.77-16.76,6.51s-12.27-2.41-15.93-7.09c-2.61-3.34-4.5-7.14-4.47-12.77.06-10.98,9.41-19.91,20.39-19.91s19.82,12.31,19.88,23.17Z"/><ellipse class="cls-8" cx="54.44" cy="93.02" rx="15.86" ry="16.51"/></g><path class="cls-3" d="m33.53,93.87c.38-31.98,36.89-33.96,40.28.96-8.55-27.77-34.41-26.43-40.28-.96Z"/><g id="L_Wimpers"><path class="cls-3" d="m39.66,75.3s-.02-6.76-1.15-8.62c-1.24-2.05-3.88-.8-3.32,1.6.48,2.03,4.47,7.02,4.47,7.02Z"/><path class="cls-3" d="m36.85,79.45s-3.67-6.54-5.68-7.91c-1.91-1.3-4.23.75-2.68,2.94,1.41,1.98,8.36,4.98,8.36,4.98Z"/><path class="cls-3" d="m34.81,83.85s-5.49-3.15-7.53-3.19c-2.29-.05-2.8,2.88-.45,3.7,1.89.65,7.98-.51,7.98-.51Z"/></g><ellipse class="cls-3" cx="58.27" cy="98.37" rx="8.01" ry="8.84"/></g><g id="Mond"><path class="cls-3" d="m58.49,125.98c4.15,25.66,40.79,27.79,42.7,0,.66-3.3.46-4.14-2.94-3.38-10.6,16.09-28.4,10.91-36.32-.26-2.57-.31-3.63.46-3.45,3.64Z"/><path class="cls-8" d="m61.94,122.34c4.83,6.54,11.49,10.47,19.66,10.44,5.49.03,13.18-3.58,16.66-10.18-11.75,5.19-24.96,4.21-36.32-.26Z"/><path class="cls-4" d="m61.27,134.12c4.4,8.14,13.69,13.12,23.33,11.71-4.88-8.51-12.33-13.09-23.33-11.71Z"/></g></g></svg>