<?xml version="1.0" encoding="utf-8"?>
<!-- Generator: Adobe Illustrator 28.0.0, SVG Export Plug-In . SVG Version: 6.00 Build 0)  -->
<svg version="1.1" id="Layer_1" xmlns="http://www.w3.org/2000/svg" xmlns:xlink="http://www.w3.org/1999/xlink" x="0px" y="0px"
	 viewBox="0 0 595.28 841.89" style="enable-background:new 0 0 595.28 841.89;" xml:space="preserve">
<style type="text/css">
	.st0{fill:none;}
	.st1{fill:#717070;}
</style>
<g id="Polygon_1" transform="translate(40 28) rotate(-180)">
	<path class="st0" d="M-262.88-401.92c1.93-2.7,5.67-3.32,8.37-1.4c0.54,0.38,1.01,0.86,1.4,1.4l8.34,11.68
		c1.93,2.7,1.3,6.44-1.39,8.37c-1.02,0.73-2.24,1.12-3.49,1.12h-16.68c-3.31,0-6-2.69-6-6c0-1.25,0.39-2.47,1.12-3.49
		L-262.88-401.92z"/>
	<path class="st1" d="M-258-401.43c-0.98,0-1.87,0.46-2.44,1.26l-8.34,11.68c-0.67,0.93-0.75,2.1-0.23,3.12
		c0.52,1.02,1.52,1.63,2.67,1.63h16.68c1.15,0,2.14-0.61,2.67-1.63c0.52-1.02,0.44-2.18-0.23-3.12l-8.34-11.68
		C-256.13-400.98-257.02-401.43-258-401.43 M-258-404.43c1.84,0,3.69,0.84,4.88,2.51l8.34,11.68c2.84,3.97,0,9.49-4.88,9.49h-16.68
		c-4.88,0-7.72-5.52-4.88-9.49l8.34-11.68C-261.69-403.6-259.84-404.43-258-404.43z"/>
</g>
</svg>
