<svg xmlns="http://www.w3.org/2000/svg" width="79.777" height="79.855" viewBox="0 0 79.777 79.855">
  <path id="progress_check_icon_135275" d="M45.836,2.03v8.077a31.991,31.991,0,0,1,0,63.5v8a39.989,39.989,0,0,0,0-79.575m-8,.12a39.3,39.3,0,0,0-21.313,8.8l5.718,5.918a31.971,31.971,0,0,1,15.6-6.718v-8M10.887,16.585A39.526,39.526,0,0,0,2.05,37.9h8a32.057,32.057,0,0,1,6.558-15.6l-5.718-5.718M55.833,27.9,36.319,47.416l-8.477-8.477L23.6,43.177,36.319,55.893,60.072,32.14,55.833,27.9M2.09,45.9a40.145,40.145,0,0,0,8.837,21.313l5.678-5.718a32,32,0,0,1-6.518-15.6h-8M22.244,67.369l-5.718,5.478a39.964,39.964,0,0,0,21.313,9.037v-8A32,32,0,0,1,22.244,67.369Z" transform="translate(-2.05 -2.03)"/>
</svg>
