<svg xmlns="http://www.w3.org/2000/svg" width="228.88" height="56.739" viewBox="0 0 228.88 56.739">
  <g id="Group_214" data-name="Group 214" transform="matrix(1, 0.017, -0.017, 1, 0.764, 11.367)">
    <path id="Union_2" data-name="Union 2" d="M-4130.156,6863.658l-22.813-11.557a3,3,0,0,1-.184-5.251l21.952-13.121a3,3,0,0,1,4.538,2.469l.169,4.857,13.063-7.808a3,3,0,0,1,4.538,2.47l.861,24.679a3,3,0,0,1-4.354,2.781l-13.577-6.878.16,4.578a3,3,0,0,1-3,3.109A2.985,2.985,0,0,1-4130.156,6863.658Z" transform="translate(4154.433 -6830.641)" fill="#02b7df"/>
  </g>
  <g id="Group_222" data-name="Group 222" transform="matrix(0.999, -0.035, 0.035, 0.999, 180.984, 11.439)">
    <path id="Union_1" data-name="Union 1" d="M-4317.2,6860.759l.16-4.579-13.577,6.879a3,3,0,0,1-4.354-2.781l.861-24.679a3,3,0,0,1,4.538-2.471l13.063,7.808.169-4.857a3,3,0,0,1,4.538-2.47l21.952,13.121a3,3,0,0,1-.184,5.251l-22.813,11.558a2.985,2.985,0,0,1-1.354.328A3,3,0,0,1-4317.2,6860.759Z" transform="translate(4335.149 -6830.523)" fill="#02b7df"/>
  </g>
  <path id="Path_796" data-name="Path 796" d="M27.794,4.81a3,3,0,0,1,5.264,0L58.423,51.171a3,3,0,0,1-2.632,4.44H5.061a3,3,0,0,1-2.632-4.44Z" transform="translate(143.609 -2.057) rotate(90)" fill="#02b7df"/>
</svg>
