<svg id="Group_211" data-name="Group 211" xmlns="http://www.w3.org/2000/svg" width="292.14" height="20" viewBox="0 0 292.14 20">
  <text id="_-_2:47" data-name="- 2:47" transform="translate(252.14)" font-size="15" font-family="OpenSans, Open Sans"><tspan x="0" y="16">- 2:47</tspan></text>
  <text id="_0:13" data-name="0:13" font-size="15" font-family="OpenSans, Open Sans"><tspan x="0" y="16">0:13</tspan></text>
  <path id="Subtraction_10" data-name="Subtraction 10" d="M35.481,10.569H5.285A5.284,5.284,0,1,1,5.285,0h30.2V10.568Z" transform="translate(35.481 6.039)" fill="#02b7df"/>
  <rect id="Rectangle_308" data-name="Rectangle 308" width="52.089" height="10.569" transform="translate(74.737 6.039)" fill="#02b7df"/>
  <rect id="Rectangle_309" data-name="Rectangle 309" width="77.001" height="10.569" transform="translate(130.6 6.039)" fill="#bfbfbf"/>
  <path id="Subtraction_11" data-name="Subtraction 11" d="M35.481,10.569H5.285A5.284,5.284,0,1,1,5.285,0h30.2V10.568Z" transform="translate(246.856 16.608) rotate(180)" fill="#bfbfbf"/>
  <path id="Path_793" data-name="Path 793" d="M7.549,0A7.549,7.549,0,1,1,0,7.549,7.549,7.549,0,0,1,7.549,0Z" transform="translate(113.747 3.774)"/>
</svg>
