<svg xmlns="http://www.w3.org/2000/svg" width="547.391" height="695.731" viewBox="0 0 547.391 695.731">
  <g id="Group_216" data-name="Group 216" transform="translate(-3993 -1753.124)">
    <path id="Polygon_1" data-name="Polygon 1" d="M45.841,0,91.682,80.708H0Z" transform="translate(4152.738 2007.628) rotate(158)" fill="#dbe7f9"/>
    <g id="Group_130" data-name="Group 130" transform="translate(3993 1753.124)">
      <rect id="Rectangle_274" data-name="Rectangle 274" width="453.147" height="214.451" rx="33" transform="translate(0 0)" fill="#dbe7f9"/>
      <text id="Welkom_" data-name="Welkom," transform="translate(224.705 78.32)" font-size="52" font-family="Asap-Bold, Asap" font-weight="700"><tspan x="-99.684" y="0">Welkom,</tspan></text>
      <text id="BOBBY" transform="translate(225.039 169.099)" font-size="85" font-family="Asap-Bold, Asap" font-weight="700"><tspan x="-130.432" y="0">BOBBY</tspan></text>
    </g>
  </g>
  <g id="Boek_mascotte" transform="translate(149.488 288.849)">
    <g id="Boek" transform="translate(44.522 17.469)">
      <path id="Ond._blad" d="M102.96,200.29l.194,5.8,3.374,4.827L293.09,241.1l1.6-9.1Z" transform="translate(-58.971 3.464)" fill="#f4f1ea"/>
      <path id="Zij._blad" d="M221.13,302.106,256.854,97.98l37.71,15.449L272.641,311.194Z" transform="translate(13.618 -59.383)" fill="#f4f1ea"/>
      <path id="Ond._lijn" d="M103.346,203.884a.147.147,0,0,0-.194.177c1.566,6.3,6.215,9.589,12.914,10.913l213.391,36-2.712-9.573L115.1,209.276c-4.665-2.131-8.653-3.955-11.768-5.375Z" transform="translate(-58.856 5.665)" fill="#792779"/>
      <path id="ZIJ_lijn" d="M372.321,281.8l13.027-148.821,1.356-2.308a4.809,4.809,0,0,0,.662-2.438v-4.907a4.582,4.582,0,0,0-1.178-3.067c-8.62-9.25-18.758-14.222-30.4-15-.032,0-.048.016-.081.032-6.8.823-9.121,5.392-10.122,11.058L130.083,82.27l13.754,4.746,199.589,35.45L315.4,296.6c-.371,2.809-2.567,4.052-5.569,4.6L92.083,264.99a32,32,0,0,1-16.353-7.216c.775,6.36,6.167,10.138,15.045,11.946l218.541,36.854c5.973-.016,10.025-2.357,11.542-7.732L349.35,123.257c.92-3.745,2.6-6.635,5.924-7.732a11.39,11.39,0,0,1,6.651.1c6.812,2.631,12.64,6.07,16.982,10.719a3.637,3.637,0,0,1,.92,2.89L363.313,285.766l9.008-4Z" transform="translate(-75.698 -69.033)" fill="#7b2a83"/>
      <path id="Boek-2" d="M75.726,262.828c8.556-61.456,28.766-119.473,51.77-176.909v-.081a9.651,9.651,0,0,1,.194-6.247,11.264,11.264,0,0,1,6.861-5.521h.065l221.172,36.224c-7.361,1.582-8.249,5.763-9.2,12.059l-30.3,178.895a6.32,6.32,0,0,1-3.18,4.488h0a5.152,5.152,0,0,1-3.293.5L93.063,270.318c-1.13-.194-2.47-.436-3.6-.63-5.263-.952-7.571-2-11.4-5.053-.048-.032-2.357-1.76-2.357-1.824Z" transform="translate(-75.71 -74.07)" fill="#9c4794"/>
    </g>
    <g id="Rechter_arn" transform="translate(306.261 140.219)">
      <path id="Path_17" data-name="Path 17" d="M242.87,188.982l7.151-38.872,5.763,7.958-1.1,39.017Z" transform="translate(-234.766 -150.11)" fill="#e36da7"/>
      <path id="Path_18" data-name="Path 18" d="M321.906,233.762c-.42-.145-29.121-8.927-29.121-8.927L250.2,194.067l1.1-39.017,70.608,78.728Z" transform="translate(-230.264 -147.075)" fill="#e58bb8"/>
      <path id="Path_19" data-name="Path 19" d="M276.189,238.524,237.85,226.029l62.5-27.749,29.138,8.927Z" transform="translate(-237.85 -120.52)" fill="#e36da7"/>
      <path id="Path_20" data-name="Path 20" d="M295.415,259.152l-.743-.194-47.347-13L237.85,215.47l38.339,12.495Z" transform="translate(-237.85 -109.961)" fill="#e58bb8"/>
    </g>
    <g id="Linker_arm" transform="translate(0 20.407)">
      <path id="Path_21" data-name="Path 21" d="M48.13,77.343,98.2,75.89l8.653,52.965-49.042,2.276Z" transform="translate(-48.13 -75.89)" fill="#f4c835"/>
      <path id="Path_22" data-name="Path 22" d="M48.13,185.572,106.857,108.7l-34.416,1.6-21.018,44.78Z" transform="translate(-48.13 -55.735)" fill="#e9903b"/>
      <path id="Path_23" data-name="Path 23" d="M104.9,166.012,48.13,170.9l25.974-34,40.389-4.326Z" transform="translate(-48.13 -41.066)" fill="#f4c835"/>
    </g>
    <g id="Rechter_been" transform="translate(211.26 243.727)">
      <path id="Path_24" data-name="Path 24" d="M179.759,236.911,179,214.23l25.522,4.326,1.824,23.084Z" transform="translate(-179 -214.23)" fill="#92b323"/>
      <path id="Path_25" data-name="Path 25" d="M187.16,365.936l-7.7-137.666,26.587,4.746,10.3,102.071c-19.969.791-27.733,12.9-29.2,30.849Z" transform="translate(-178.717 -205.606)" fill="#b3cc4e"/>
      <path id="Path_26" data-name="Path 26" d="M267.987,328.188H212.069l-1.146-2.615L197.75,295.24a39.038,39.038,0,0,1,7.377-.92h35.659Q261.538,304.175,267.987,328.188Z" transform="translate(-167.482 -165.032)" fill="#b3cc4e"/>
      <path id="Path_27" data-name="Path 27" d="M184.23,324.819l35,.4L206.055,294.89C192.979,298.07,185.36,307.643,184.23,324.819Z" transform="translate(-175.787 -164.682)" fill="#92b323"/>
    </g>
    <g id="Linker_been" transform="translate(70.512 235.849)">
      <path id="Path_28" data-name="Path 28" d="M149.96,231.013V209.35l25.99,4.391.484,21.793Z" transform="translate(-56.09 -209.35)" fill="#1973b6"/>
      <path id="Path_29" data-name="Path 29" d="M181.388,366.641,177.546,227.3l-26.474-4.536L148.15,336.131c17.289,3.648,28.137,14.06,33.254,30.494Z" transform="translate(-57.202 -201.112)" fill="#67a0d6"/>
      <path id="Path_30" data-name="Path 30" d="M156.131,323.6h35.175c-4.794-15.432-13.8-27.346-33.254-30.494-15.481,0-16.24-1.84-26.022,3.842,10.444,5.957,20.243,13.915,24.1,26.668Z" transform="translate(-67.104 -158.074)" fill="#1973b6"/>
      <path id="Path_31" data-name="Path 31" d="M139.625,323.494H91.81c3.648-14.06,14.641-24.666,35.724-30.494h38.743C148.536,297.568,143.435,310.257,139.625,323.494Z" transform="translate(-91.81 -157.965)" fill="#67a0d6"/>
    </g>
    <g id="Rechter_oog" transform="translate(186.608 38.288)">
      <path id="Rechter_oog1" d="M164.07,140.234c2.6-16.207,15.11-29.105,30.913-30.042,18.839-1.1,31.963,13.108,30.913,30.042-1.049,17.047-13.35,29.751-30.913,30.042C175.983,170.583,161.277,157.7,164.07,140.234Z" transform="translate(-163.729 -72.736)" fill="#fff"/>
      <path id="Rechter_oog-2" d="M200.69,134.531c-1.34,8.314-5.327,13.221-14.319,14.125-8.814.888-14.851-4.972-14.319-14.125.452-7.781,6.441-13.511,14.319-14.125C196.283,119.631,202.143,125.475,200.69,134.531Z" transform="translate(-158.635 -66.467)" fill="#2a2b28"/>
      <path id="Path_32" data-name="Path 32" d="M165.4,133.334c4.762-8.281,10.719-15.771,21.89-19.791a7.751,7.751,0,0,1,1.808-.42,58.961,58.961,0,0,1,13.915.032,6.107,6.107,0,0,1,1.421.355c16.433,6.28,20.857,17.951,20.13,35.111.1-.307.355-2.082.436-2.373a28.48,28.48,0,0,0,1.017-6.8v-3.164a26.229,26.229,0,0,0-.839-6.635,61.671,61.671,0,0,0-2.486-7.426,20.679,20.679,0,0,0-3.584-5.908,27.8,27.8,0,0,0-12.753-8.523l-2.47-.726a3.878,3.878,0,0,0-1.469-.21H193.44a7.206,7.206,0,0,0-1.76.226l-1.808.484a33.065,33.065,0,0,0-9.347,4.391c-.355.226-.71.484-1.049.726a44.057,44.057,0,0,0-9.492,10.089,4.659,4.659,0,0,0-.517.969c-2.325,5.553-3.116,7.442-4,9.573Z" transform="translate(-162.702 -74.746)" fill="#2a2b28"/>
      <path id="Rechter_wenkbrauw" d="M179.516,91.282a16.944,16.944,0,0,1,8.1-3.842c14.625-3.067,26.507,9.169,37.774,24.86-15.723-10.767-31.236-19.775-45.894-21.018Z" transform="translate(-154.041 -86.967)" fill="#2a2b28"/>
    </g>
    <g id="Linker_oog" transform="translate(117.81 0)">
      <path id="Linker_oog_1" d="M175.124,141.845c6.877-18.677-2.2-36.063-14.964-38.129-12.8-2.066-26.958,4.133-35.353,20.679-8.507,16.756-1.84,36.951,14.964,38.129C152.411,163.4,169.474,157.181,175.124,141.845Z" transform="translate(-121.11 -38.625)" fill="#fff"/>
      <path id="Linker_oog-2" d="M162.047,129.257c-.92,8.184-6.49,14.157-13.963,14.528-8.636.436-15.239-5.86-13.964-14.528,1.13-7.619,6.586-13.77,13.964-14.529C156.639,113.857,163,120.75,162.047,129.257Z" transform="translate(-113.215 -31.671)" fill="#2a2b28"/>
      <path id="Linker_lid" d="M123.31,126.915c4.778-7.555,10.687-15.981,20.631-19.71a12.066,12.066,0,0,1,1.937-.694c4.246-.517,8.185-1.1,12.2-.6a4.984,4.984,0,0,1,1.259.323c14.625,5.828,16.9,15.949,16.256,31.882.081-.274.307-1.937.387-2.212a27.694,27.694,0,0,0,.9-6.312v-2.938a46.938,46.938,0,0,0-.42-6.845c-.371-2.389,0-3.229-.888-5.472a19.043,19.043,0,0,0-3.2-5.489,24.694,24.694,0,0,0-11.348-7.926l-2.2-.662a3.429,3.429,0,0,0-1.307-.194h-7.975a5.723,5.723,0,0,0-1.566.21l-1.614.452a28.669,28.669,0,0,0-8.314,4.084c-.323.21-.63.436-.936.678a40.136,40.136,0,0,0-8.443,9.363,15.89,15.89,0,0,0-.856,1.55c-2.066,5.166-3.7,8.523-4.488,10.509Z" transform="translate(-119.759 -40.63)" fill="#2a2b28"/>
      <path id="Linker_wenkbrauw" d="M134.96,77.683c18.758-6.183,36.273-8.62,51.447-3.987-1.453-3.7-4.2-7.038-7.006-8.378C164.5,60.022,151.91,65.156,134.96,77.683Z" transform="translate(-112.602 -63.248)" fill="#2a2b28"/>
    </g>
    <g id="Mond" transform="translate(97.339 131.027)">
      <path id="Mond-2" d="M118.7,145.213c-16.627,29.816-10.186,44.021-.823,54,49.042,34.755,125.7,10.848,144.4-38.6.759-2.583-.387-3.455-2.341-3.568-59.47,16.4-106.526,14.206-137.649-11.817-1.291-.969-2.518-1.195-3.567,0Z" transform="translate(-108.429 -144.416)" fill="#2a2b28"/>
      <path id="Tanden" d="M117.682,145.47c-.694,18.629,9.912,29.057,26.3,25.344,8.2,13.366,21.793,16.9,34.3,5.085,12.172,12.075,27.136,11.122,36.273-4.117,16.918,8.7,27.975,2.744,34.626-14.286C196.556,171.379,152.906,172.057,117.682,145.47Z" transform="translate(-102.764 -143.769)" fill="#fff"/>
      <path id="Tong" d="M135.81,196.488c27.83,5.618,62.618-1.695,87.348-21.987C185,168.464,154.358,177.117,135.81,196.488Z" transform="translate(-91.609 -127.1)" fill="#e05d9e"/>
    </g>
    <path id="Sikje" d="M147.489,198.707c10.832,6.554,20.792,5.408,29.977-2.341a.248.248,0,0,0-.178-.436l-29.7,2.308a.257.257,0,0,0-.113.468Z" transform="translate(12.824 18.255)" fill="#742675"/>
  </g>
</svg>
